<svg width="80" height="80" viewBox="0 0 80 80" fill="none" xmlns="http://www.w3.org/2000/svg">
<path d="M6.51569 16.7157H33.0939C34.5554 16.7157 35.7521 15.5199 35.7521 14.0583C35.7521 12.596 34.5554 11.4001 33.0939 11.4001H6.51569C5.05415 11.4001 3.85828 12.596 3.85828 14.0583C3.85828 15.5199 5.05415 16.7157 6.51569 16.7157Z" fill="#00ACE4"/>
<path d="M33.0939 61.899H6.51569C5.05415 61.899 3.85828 63.0948 3.85828 64.5564C3.85828 66.0187 5.05415 67.2146 6.51569 67.2146H33.0939C34.5554 67.2146 35.7521 66.0187 35.7521 64.5564C35.7521 63.0948 34.5554 61.899 33.0939 61.899Z" fill="#00ACE4"/>
<path d="M6.5155 61.899V55.4023C6.5155 50.4856 9.23871 45.9875 13.6225 43.6632C16.5094 42.1474 16.5793 37.6953 13.6241 36.1334C9.23871 33.8091 6.5155 29.311 6.5155 24.3943V16.8974C6.5155 15.7271 8.28711 15.7254 8.28711 16.8974V24.3943C8.28711 28.6539 10.6501 32.5516 14.4524 34.5683C18.6618 36.7898 18.5968 43.0537 14.4491 45.23C10.6501 47.245 8.28711 51.1436 8.28711 55.4023V61.899C8.28711 63.0694 6.5155 63.0711 6.5155 61.899Z" fill="#18273C"/>
<path d="M31.3222 61.899V55.4023C31.3222 51.1436 28.96 47.245 25.1577 45.2283C20.9499 43.0077 21.0133 36.7421 25.161 34.5658C28.96 32.5516 31.3222 28.6539 31.3222 24.3943V16.8974C31.3222 15.7271 33.0938 15.7254 33.0938 16.8974V24.3943C33.0938 29.311 30.3706 33.8091 25.9876 36.1326C23.0892 37.6558 23.039 42.1062 25.9859 43.6624C30.3706 45.9875 33.0938 50.4856 33.0938 55.4023V61.899C33.0938 63.0694 31.3222 63.0711 31.3222 61.899Z" fill="#18273C"/>
<path d="M6.51547 12.2867C5.53837 12.2867 4.74386 13.0812 4.74386 14.0583C4.74386 15.0354 5.53837 15.8307 6.51547 15.8307H33.0937C34.0708 15.8307 34.8653 15.0354 34.8653 14.0583C34.8653 13.0812 34.0708 12.2867 33.0937 12.2867H6.51547ZM33.0937 17.6024H6.51547C4.5621 17.6024 2.97144 16.0125 2.97144 14.0583C2.97144 12.1041 4.5621 10.5143 6.51547 10.5143H33.0937C35.0479 10.5143 36.6377 12.1041 36.6377 14.0583C36.6377 16.0125 35.0479 17.6024 33.0937 17.6024Z" fill="#18273C"/>
<path d="M6.51547 62.7849C5.53837 62.7849 4.74386 63.5794 4.74386 64.5565C4.74386 65.5336 5.53837 66.3289 6.51547 66.3289H33.0937C34.0708 66.3289 34.8653 65.5336 34.8653 64.5565C34.8653 63.5794 34.0708 62.7849 33.0937 62.7849H6.51547ZM33.0937 68.1006H6.51547C4.5621 68.1006 2.97144 66.5107 2.97144 64.5565C2.97144 62.6023 4.5621 61.0125 6.51547 61.0125H33.0937C35.0479 61.0125 36.6377 62.6023 36.6377 64.5565C36.6377 66.5107 35.0479 68.1006 33.0937 68.1006Z" fill="#18273C"/>
<path d="M27.8089 59.2409H11.8019C10.1537 59.2409 11.0041 55.4583 12.9953 53.8381C14.8393 52.3371 16.624 51.0589 19.1457 49.9502C19.5718 49.7627 20.039 49.7627 20.465 49.9502C22.9554 51.0458 24.7443 52.3165 26.6154 53.8381C28.6025 55.4551 29.4579 59.2409 27.8089 59.2409Z" fill="#00ACE4"/>
<path d="M26.4743 29.9247C20.2318 31.2513 18.4815 28.0067 12.4898 28.5001C11.9601 28.5437 11.6739 29.1663 11.9922 29.5924C12.8484 30.7406 13.9662 31.7094 15.2862 32.4085C18.79 34.2657 18.0612 36.6862 19.8 36.6862C20.8009 36.6862 21.037 35.8012 21.3199 35.3143C23.0068 32.3995 24.6221 32.8255 26.8189 30.5349C27.0681 30.2759 26.8263 29.8498 26.4743 29.9247Z" fill="#00ACE4"/>
<path d="M67.5075 22.7585H61.7469V23.5505C61.7469 26.3033 58.2407 28.2337 55.4484 25.1231C55.3834 25.0507 55.4089 22.8555 55.4089 22.7585H44.9906V23.5505C44.9906 26.3033 41.4844 28.2337 38.6913 25.1231C38.6264 25.0507 38.6518 22.8555 38.6518 22.7585H34.7204C34.7204 22.7585 35.0157 27.2319 32.948 31.4734H71.2547V26.7195C71.2547 24.9133 70.067 23.0874 67.5075 22.7585Z" fill="#00ACE4"/>
<path d="M64.9161 45.7351C58.3635 45.7351 53.0322 51.0664 53.0322 57.619C53.0322 64.1725 58.3635 69.5038 64.9161 69.5038C71.4688 69.5038 76.8 64.1725 76.8 57.619C76.8 51.0664 71.4688 45.7351 64.9161 45.7351Z" fill="#00ACE4"/>
<path d="M44.3164 37.0192H53.8234V46.527H44.3164V37.0192Z" fill="#00ACE4"/>
<path d="M31.625 37.0192H41.1328V46.527H31.625V37.0192Z" fill="#00ACE4"/>
<path d="M74.2509 34.6423C74.2509 33.5953 75.8358 33.5945 75.8358 34.6423C75.8358 35.6894 74.2509 35.6902 74.2509 34.6423Z" fill="#18273C"/>
<path d="M71.2539 32.3591H33.4169C32.2465 32.3591 32.2449 30.5875 33.4169 30.5875H71.2539C72.4243 30.5875 72.4259 32.3591 71.2539 32.3591Z" fill="#18273C"/>
<path d="M40.9344 23.5504V18.0036C40.9344 16.8332 42.7061 16.8324 42.7061 18.0036V23.5504C42.7061 24.7207 40.9344 24.7224 40.9344 23.5504Z" fill="#18273C"/>
<path d="M74.1572 31.6451V26.3476C74.1572 22.7674 71.3559 19.855 67.913 19.855L62.5398 19.8385C61.3711 19.8352 61.3703 18.0661 62.5448 18.0661L67.9155 18.0826C72.333 18.0826 75.9289 21.7903 75.9289 26.3476V31.6451C75.9289 32.8155 74.1572 32.8172 74.1572 31.6451Z" fill="#18273C"/>
<path d="M57.6914 23.5504V18.0036C57.6914 16.8332 59.463 16.8324 59.463 18.0036V23.5504C59.463 24.7207 57.6914 24.7224 57.6914 23.5504Z" fill="#18273C"/>
<path d="M70.3683 44.8633V26.9655C70.3683 25.1749 69.0384 23.6443 67.2931 23.6443H62.6321C62.582 25.837 60.7824 27.6053 58.5782 27.6053C56.3731 27.6053 54.5736 25.837 54.5234 23.6443H45.8751C45.8249 25.837 44.0253 27.6053 41.8211 27.6053C39.6169 27.6053 37.8173 25.837 37.7671 23.6443H35.53C34.3596 23.6443 34.358 21.8727 35.53 21.8727H38.6521C39.1415 21.8727 39.5379 22.2691 39.5379 22.7585V23.5506C39.5379 24.8089 40.5619 25.8337 41.8211 25.8337C43.0795 25.8337 44.1043 24.8089 44.1043 23.5506V22.7585C44.1043 22.2691 44.5007 21.8727 44.9901 21.8727H55.4092C55.8977 21.8727 56.295 22.2691 56.295 22.7585V23.5506C56.295 24.8089 57.319 25.8337 58.5782 25.8337C59.8366 25.8337 60.8605 24.8089 60.8605 23.5506V22.7585C60.8605 22.2691 61.2578 21.8727 61.7472 21.8727H67.2931C70.0114 21.8727 72.1399 24.2036 72.1399 26.9655V44.8633C72.1399 46.0337 70.3683 46.0353 70.3683 44.8633Z" fill="#18273C"/>
<path d="M51.8181 64.7637H39.3453C38.175 64.7637 38.1733 62.9921 39.3453 62.9921H51.8181C52.9885 62.9921 52.9902 64.7637 51.8181 64.7637Z" fill="#18273C"/>
<path d="M66.5001 44.2464V37.0193H56.9923V46.5271H57.2868C59.9549 44.6864 63.1905 43.8566 66.5001 44.2464Z" fill="#00ACE4"/>
<path d="M53.8234 49.9905V49.6961H44.3164V59.2039H51.5435C51.1438 55.8169 52.0287 52.592 53.8234 49.9905Z" fill="#00ACE4"/>
<path d="M33.2335 49.6444C34.6568 52.9433 34.423 55.3093 34.4224 59.1517L41.132 59.1515L41.1323 49.6443L33.2335 49.6444Z" fill="#00ACE4"/>
<path d="M63.8532 62.0744L58.7037 56.9249C57.8755 56.0975 59.1273 54.8432 59.9563 55.6722L64.4799 60.195L70.8516 53.8233C71.6791 52.9959 72.9333 54.2469 72.1043 55.0759L65.1058 62.0744C64.7604 62.4206 64.1995 62.4206 63.8532 62.0744Z" fill="white"/>
</svg>
