<svg width="412" height="210" viewBox="0 0 412 210" fill="none" xmlns="http://www.w3.org/2000/svg">
<g opacity="0.1">
<path d="M352.596 199.963H383.731V83.6081H352.596V199.963Z" fill="#00A2E0" stroke="#18273C" stroke-width="0.133333"/>
<path d="M352.53 200.03H383.798V83.5414H352.53V200.03Z" stroke="#18273C" stroke-width="3.33333" stroke-miterlimit="10" stroke-linecap="round" stroke-linejoin="round"/>
<path d="M332.364 199.963H352.463V83.6081H332.364V199.963Z" fill="#00A2E0" stroke="#18273C" stroke-width="0.133333"/>
<path d="M332.364 83.6081V199.963H336.523V83.6081H332.364Z" fill="white" stroke="#18273C" stroke-width="0.133333"/>
<path d="M332.298 200.03H352.53V83.5414H332.298V200.03Z" stroke="#18273C" stroke-width="3.33333" stroke-miterlimit="10" stroke-linecap="round" stroke-linejoin="round"/>
<path d="M386.183 83.4751V78.7037H352.596V83.4751H386.183Z" fill="white" stroke="#18273C" stroke-width="0.133333"/>
<path d="M352.53 78.637H386.25V83.5417H352.53V78.637Z" stroke="#18273C" stroke-width="3.33333" stroke-miterlimit="10" stroke-linecap="round" stroke-linejoin="round"/>
<path d="M352.463 78.7037H329.912V83.4751H352.463V78.7037Z" fill="white" stroke="#18273C" stroke-width="0.133333"/>
<path d="M352.53 78.637H329.845V83.5417H352.53V78.637Z" stroke="#18273C" stroke-width="3.33333" stroke-miterlimit="10" stroke-linecap="round" stroke-linejoin="round"/>
<path d="M373.308 199.963V183.543H363.019V199.963H373.308Z" fill="#17282F" stroke="#18273C" stroke-width="0.133333"/>
<path d="M362.952 183.476H373.375V200.03H362.952V183.476Z" stroke="#18273C" stroke-width="3.33333" stroke-miterlimit="10" stroke-linecap="round" stroke-linejoin="round"/>
<path d="M380.665 78.5701V71.9593H352.596V78.5701H380.665Z" fill="white" stroke="#18273C" stroke-width="0.133333"/>
<path d="M352.53 71.8927H380.732V78.6367H352.53V71.8927Z" stroke="#18273C" stroke-width="3.33333" stroke-miterlimit="10" stroke-linecap="round" stroke-linejoin="round"/>
<path d="M352.463 78.5701V71.9593H336.656V78.5701H352.463Z" fill="white" stroke="#18273C" stroke-width="0.133333"/>
<path d="M336.589 71.8927H352.53V78.6367H336.589V71.8927Z" stroke="#18273C" stroke-width="3.33333" stroke-miterlimit="10" stroke-linecap="round" stroke-linejoin="round"/>
<path d="M374.668 93.2847H380.052V88.5132H374.668V93.2847Z" fill="white" stroke="#18273C" stroke-width="0.133333"/>
<path d="M374.601 93.3513H380.119V88.4466H374.601V93.3513Z" stroke="#18273C" stroke-width="3.33333" stroke-miterlimit="10" stroke-linecap="round" stroke-linejoin="round"/>
<path d="M366.085 93.2847H370.856V88.5132H366.085V93.2847Z" fill="white" stroke="#18273C" stroke-width="0.133333"/>
<path d="M366.018 93.3513H370.923V88.4466H366.018V93.3513Z" stroke="#18273C" stroke-width="3.33333" stroke-miterlimit="10" stroke-linecap="round" stroke-linejoin="round"/>
<path d="M356.888 93.2847H362.273V88.5132H356.888V93.2847Z" fill="white" stroke="#18273C" stroke-width="0.133333"/>
<path d="M356.822 93.3513H362.339V88.4466H356.822V93.3513Z" stroke="#18273C" stroke-width="3.33333" stroke-miterlimit="10" stroke-linecap="round" stroke-linejoin="round"/>
<path d="M374.668 103.707H380.052V98.9358H374.668V103.707Z" fill="white" stroke="#18273C" stroke-width="0.133333"/>
<path d="M374.601 103.774H380.119V98.8692H374.601V103.774Z" stroke="#18273C" stroke-width="3.33333" stroke-miterlimit="10" stroke-linecap="round" stroke-linejoin="round"/>
<path d="M366.085 103.707H370.856V98.9358H366.085V103.707Z" fill="white" stroke="#18273C" stroke-width="0.133333"/>
<path d="M366.018 103.774H370.923V98.8692H366.018V103.774Z" stroke="#18273C" stroke-width="3.33333" stroke-miterlimit="10" stroke-linecap="round" stroke-linejoin="round"/>
<path d="M356.888 103.707H362.273V98.9358H356.888V103.707Z" fill="white" stroke="#18273C" stroke-width="0.133333"/>
<path d="M356.822 103.774H362.339V98.8692H356.822V103.774Z" stroke="#18273C" stroke-width="3.33333" stroke-miterlimit="10" stroke-linecap="round" stroke-linejoin="round"/>
<path d="M374.668 113.516H380.052V108.745H374.668V113.516Z" fill="white" stroke="#18273C" stroke-width="0.133333"/>
<path d="M374.601 113.583H380.119V108.678H374.601V113.583Z" stroke="#18273C" stroke-width="3.33333" stroke-miterlimit="10" stroke-linecap="round" stroke-linejoin="round"/>
<path d="M366.085 113.516H370.856V108.745H366.085V113.516Z" fill="white" stroke="#18273C" stroke-width="0.133333"/>
<path d="M366.018 113.583H370.923V108.678H366.018V113.583Z" stroke="#18273C" stroke-width="3.33333" stroke-miterlimit="10" stroke-linecap="round" stroke-linejoin="round"/>
<path d="M356.888 113.516H362.273V108.745H356.888V113.516Z" fill="white" stroke="#18273C" stroke-width="0.133333"/>
<path d="M356.822 113.583H362.339V108.678H356.822V113.583Z" stroke="#18273C" stroke-width="3.33333" stroke-miterlimit="10" stroke-linecap="round" stroke-linejoin="round"/>
<path d="M374.668 123.939H380.052V119.168H374.668V123.939Z" fill="white" stroke="#18273C" stroke-width="0.133333"/>
<path d="M374.601 124.006H380.119V119.101H374.601V124.006Z" stroke="#18273C" stroke-width="3.33333" stroke-miterlimit="10" stroke-linecap="round" stroke-linejoin="round"/>
<path d="M366.085 123.939H370.856V119.168H366.085V123.939Z" fill="white" stroke="#18273C" stroke-width="0.133333"/>
<path d="M366.018 124.006H370.923V119.101H366.018V124.006Z" stroke="#18273C" stroke-width="3.33333" stroke-miterlimit="10" stroke-linecap="round" stroke-linejoin="round"/>
<path d="M356.888 123.939H362.273V119.168H356.888V123.939Z" fill="white" stroke="#18273C" stroke-width="0.133333"/>
<path d="M356.822 124.006H362.339V119.101H356.822V124.006Z" stroke="#18273C" stroke-width="3.33333" stroke-miterlimit="10" stroke-linecap="round" stroke-linejoin="round"/>
<path d="M374.668 133.749H380.052V128.977H374.668V133.749Z" fill="white" stroke="#18273C" stroke-width="0.133333"/>
<path d="M374.601 133.815H380.119V128.91H374.601V133.815Z" stroke="#18273C" stroke-width="3.33333" stroke-miterlimit="10" stroke-linecap="round" stroke-linejoin="round"/>
<path d="M366.085 133.749H370.856V128.977H366.085V133.749Z" fill="white" stroke="#18273C" stroke-width="0.133333"/>
<path d="M366.018 133.815H370.923V128.91H366.018V133.815Z" stroke="#18273C" stroke-width="3.33333" stroke-miterlimit="10" stroke-linecap="round" stroke-linejoin="round"/>
<path d="M356.888 133.749H362.273V128.977H356.888V133.749Z" fill="white" stroke="#18273C" stroke-width="0.133333"/>
<path d="M356.822 133.815H362.339V128.91H356.822V133.815Z" stroke="#18273C" stroke-width="3.33333" stroke-miterlimit="10" stroke-linecap="round" stroke-linejoin="round"/>
<path d="M374.668 144.172H380.052V139.4H374.668V144.172Z" fill="white" stroke="#18273C" stroke-width="0.133333"/>
<path d="M374.601 144.238H380.119V139.334H374.601V144.238Z" stroke="#18273C" stroke-width="3.33333" stroke-miterlimit="10" stroke-linecap="round" stroke-linejoin="round"/>
<path d="M366.085 144.172H370.856V139.4H366.085V144.172Z" fill="white" stroke="#18273C" stroke-width="0.133333"/>
<path d="M366.018 144.238H370.923V139.334H366.018V144.238Z" stroke="#18273C" stroke-width="3.33333" stroke-miterlimit="10" stroke-linecap="round" stroke-linejoin="round"/>
<path d="M356.888 144.172H362.273V139.4H356.888V144.172Z" fill="white" stroke="#18273C" stroke-width="0.133333"/>
<path d="M356.822 144.238H362.339V139.334H356.822V144.238Z" stroke="#18273C" stroke-width="3.33333" stroke-miterlimit="10" stroke-linecap="round" stroke-linejoin="round"/>
<path d="M374.668 153.981H380.052V149.209H374.668V153.981Z" fill="white" stroke="#18273C" stroke-width="0.133333"/>
<path d="M374.601 154.047H380.119V149.143H374.601V154.047Z" stroke="#18273C" stroke-width="3.33333" stroke-miterlimit="10" stroke-linecap="round" stroke-linejoin="round"/>
<path d="M366.085 153.981H370.856V149.209H366.085V153.981Z" fill="white" stroke="#18273C" stroke-width="0.133333"/>
<path d="M366.018 154.047H370.923V149.143H366.018V154.047Z" stroke="#18273C" stroke-width="3.33333" stroke-miterlimit="10" stroke-linecap="round" stroke-linejoin="round"/>
<path d="M356.888 153.981H362.273V149.209H356.888V153.981Z" fill="white" stroke="#18273C" stroke-width="0.133333"/>
<path d="M356.822 154.047H362.339V149.143H356.822V154.047Z" stroke="#18273C" stroke-width="3.33333" stroke-miterlimit="10" stroke-linecap="round" stroke-linejoin="round"/>
<path d="M374.668 164.403H380.052V159.019H374.668V164.403Z" fill="white" stroke="#18273C" stroke-width="0.133333"/>
<path d="M374.601 164.47H380.119V158.952H374.601V164.47Z" stroke="#18273C" stroke-width="3.33333" stroke-miterlimit="10" stroke-linecap="round" stroke-linejoin="round"/>
<path d="M366.085 164.403H370.856V159.019H366.085V164.403Z" fill="white" stroke="#18273C" stroke-width="0.133333"/>
<path d="M366.018 164.47H370.923V158.952H366.018V164.47Z" stroke="#18273C" stroke-width="3.33333" stroke-miterlimit="10" stroke-linecap="round" stroke-linejoin="round"/>
<path d="M356.888 164.403H362.273V159.019H356.888V164.403Z" fill="white" stroke="#18273C" stroke-width="0.133333"/>
<path d="M356.822 164.47H362.339V158.952H356.822V164.47Z" stroke="#18273C" stroke-width="3.33333" stroke-miterlimit="10" stroke-linecap="round" stroke-linejoin="round"/>
<path d="M374.668 174.213H380.052V169.442H374.668V174.213Z" fill="white" stroke="#18273C" stroke-width="0.133333"/>
<path d="M374.601 174.28H380.119V169.375H374.601V174.28Z" stroke="#18273C" stroke-width="3.33333" stroke-miterlimit="10" stroke-linecap="round" stroke-linejoin="round"/>
<path d="M366.085 174.213H370.856V169.442H366.085V174.213Z" fill="white" stroke="#18273C" stroke-width="0.133333"/>
<path d="M366.018 174.28H370.923V169.375H366.018V174.28Z" stroke="#18273C" stroke-width="3.33333" stroke-miterlimit="10" stroke-linecap="round" stroke-linejoin="round"/>
<path d="M356.888 174.213H362.273V169.442H356.888V174.213Z" fill="white" stroke="#18273C" stroke-width="0.133333"/>
<path d="M356.822 174.28H362.339V169.375H356.822V174.28Z" stroke="#18273C" stroke-width="3.33333" stroke-miterlimit="10" stroke-linecap="round" stroke-linejoin="round"/>
<path d="M344.626 93.2847H349.398V88.5132H344.626V93.2847Z" fill="white" stroke="#18273C" stroke-width="0.133333"/>
<path d="M344.56 93.3513H349.464V88.4466H344.56V93.3513Z" stroke="#18273C" stroke-width="3.33333" stroke-miterlimit="10" stroke-linecap="round" stroke-linejoin="round"/>
<path d="M335.43 93.2847H340.201V88.5132H335.43V93.2847Z" fill="white" stroke="#18273C" stroke-width="0.133333"/>
<path d="M335.363 93.3513H340.268V88.4466H335.363V93.3513Z" stroke="#18273C" stroke-width="3.33333" stroke-miterlimit="10" stroke-linecap="round" stroke-linejoin="round"/>
<path d="M344.626 103.707H349.398V98.9358H344.626V103.707Z" fill="white" stroke="#18273C" stroke-width="0.133333"/>
<path d="M344.56 103.774H349.464V98.8692H344.56V103.774Z" stroke="#18273C" stroke-width="3.33333" stroke-miterlimit="10" stroke-linecap="round" stroke-linejoin="round"/>
<path d="M335.43 103.707H340.201V98.9358H335.43V103.707Z" fill="white" stroke="#18273C" stroke-width="0.133333"/>
<path d="M335.363 103.774H340.268V98.8692H335.363V103.774Z" stroke="#18273C" stroke-width="3.33333" stroke-miterlimit="10" stroke-linecap="round" stroke-linejoin="round"/>
<path d="M344.626 113.516H349.398V108.745H344.626V113.516Z" fill="white" stroke="#18273C" stroke-width="0.133333"/>
<path d="M344.56 113.583H349.464V108.678H344.56V113.583Z" stroke="#18273C" stroke-width="3.33333" stroke-miterlimit="10" stroke-linecap="round" stroke-linejoin="round"/>
<path d="M335.43 113.516H340.201V108.745H335.43V113.516Z" fill="white" stroke="#18273C" stroke-width="0.133333"/>
<path d="M335.363 113.583H340.268V108.678H335.363V113.583Z" stroke="#18273C" stroke-width="3.33333" stroke-miterlimit="10" stroke-linecap="round" stroke-linejoin="round"/>
<path d="M344.626 123.939H349.398V119.168H344.626V123.939Z" fill="white" stroke="#18273C" stroke-width="0.133333"/>
<path d="M344.56 124.006H349.464V119.101H344.56V124.006Z" stroke="#18273C" stroke-width="3.33333" stroke-miterlimit="10" stroke-linecap="round" stroke-linejoin="round"/>
<path d="M335.43 123.939H340.201V119.168H335.43V123.939Z" fill="white" stroke="#18273C" stroke-width="0.133333"/>
<path d="M335.363 124.006H340.268V119.101H335.363V124.006Z" stroke="#18273C" stroke-width="3.33333" stroke-miterlimit="10" stroke-linecap="round" stroke-linejoin="round"/>
<path d="M344.626 133.749H349.398V128.977H344.626V133.749Z" fill="white" stroke="#18273C" stroke-width="0.133333"/>
<path d="M344.56 133.815H349.464V128.91H344.56V133.815Z" stroke="#18273C" stroke-width="3.33333" stroke-miterlimit="10" stroke-linecap="round" stroke-linejoin="round"/>
<path d="M335.43 133.749H340.201V128.977H335.43V133.749Z" fill="white" stroke="#18273C" stroke-width="0.133333"/>
<path d="M335.363 133.815H340.268V128.91H335.363V133.815Z" stroke="#18273C" stroke-width="3.33333" stroke-miterlimit="10" stroke-linecap="round" stroke-linejoin="round"/>
<path d="M344.626 144.172H349.398V139.4H344.626V144.172Z" fill="white" stroke="#18273C" stroke-width="0.133333"/>
<path d="M344.56 144.238H349.464V139.334H344.56V144.238Z" stroke="#18273C" stroke-width="3.33333" stroke-miterlimit="10" stroke-linecap="round" stroke-linejoin="round"/>
<path d="M335.43 144.172H340.201V139.4H335.43V144.172Z" fill="white" stroke="#18273C" stroke-width="0.133333"/>
<path d="M335.363 144.238H340.268V139.334H335.363V144.238Z" stroke="#18273C" stroke-width="3.33333" stroke-miterlimit="10" stroke-linecap="round" stroke-linejoin="round"/>
<path d="M344.626 153.981H349.398V149.209H344.626V153.981Z" fill="white" stroke="#18273C" stroke-width="0.133333"/>
<path d="M344.56 154.047H349.464V149.143H344.56V154.047Z" stroke="#18273C" stroke-width="3.33333" stroke-miterlimit="10" stroke-linecap="round" stroke-linejoin="round"/>
<path d="M335.43 153.981H340.201V149.209H335.43V153.981Z" fill="white" stroke="#18273C" stroke-width="0.133333"/>
<path d="M335.363 154.047H340.268V149.143H335.363V154.047Z" stroke="#18273C" stroke-width="3.33333" stroke-miterlimit="10" stroke-linecap="round" stroke-linejoin="round"/>
<path d="M344.626 164.403H349.398V159.019H344.626V164.403Z" fill="white" stroke="#18273C" stroke-width="0.133333"/>
<path d="M344.56 164.47H349.464V158.952H344.56V164.47Z" stroke="#18273C" stroke-width="3.33333" stroke-miterlimit="10" stroke-linecap="round" stroke-linejoin="round"/>
<path d="M335.43 164.403H340.201V159.019H335.43V164.403Z" fill="white" stroke="#18273C" stroke-width="0.133333"/>
<path d="M335.363 164.47H340.268V158.952H335.363V164.47Z" stroke="#18273C" stroke-width="3.33333" stroke-miterlimit="10" stroke-linecap="round" stroke-linejoin="round"/>
<path d="M344.626 174.213H349.398V169.442H344.626V174.213Z" fill="white" stroke="#18273C" stroke-width="0.133333"/>
<path d="M344.56 174.28H349.464V169.375H344.56V174.28Z" stroke="#18273C" stroke-width="3.33333" stroke-miterlimit="10" stroke-linecap="round" stroke-linejoin="round"/>
<path d="M335.43 174.213H340.201V169.442H335.43V174.213Z" fill="white" stroke="#18273C" stroke-width="0.133333"/>
<path d="M335.363 174.28H340.268V169.375H335.363V174.28Z" stroke="#18273C" stroke-width="3.33333" stroke-miterlimit="10" stroke-linecap="round" stroke-linejoin="round"/>
<path d="M344.626 184.635H349.398V179.251H344.626V184.635Z" fill="white" stroke="#18273C" stroke-width="0.133333"/>
<path d="M344.56 184.702H349.464V179.184H344.56V184.702Z" stroke="#18273C" stroke-width="3.33333" stroke-miterlimit="10" stroke-linecap="round" stroke-linejoin="round"/>
<path d="M335.43 184.635H340.201V179.251H335.43V184.635Z" fill="white" stroke="#18273C" stroke-width="0.133333"/>
<path d="M335.363 184.702H340.268V179.184H335.363V184.702Z" stroke="#18273C" stroke-width="3.33333" stroke-miterlimit="10" stroke-linecap="round" stroke-linejoin="round"/>
<path d="M344.626 194.445H349.398V189.674H344.626V194.445Z" fill="white" stroke="#18273C" stroke-width="0.133333"/>
<path d="M344.56 194.512H349.464V189.607H344.56V194.512Z" stroke="#18273C" stroke-width="3.33333" stroke-miterlimit="10" stroke-linecap="round" stroke-linejoin="round"/>
<path d="M335.43 194.445H340.201V189.674H335.43V194.445Z" fill="white" stroke="#18273C" stroke-width="0.133333"/>
<path d="M335.363 194.512H340.268V189.607H335.363V194.512Z" stroke="#18273C" stroke-width="3.33333" stroke-miterlimit="10" stroke-linecap="round" stroke-linejoin="round"/>
<path d="M296.672 22.2986H288.835V38.1057H296.672V22.2986Z" fill="#00A2E0" stroke="#18273C" stroke-width="0.133333"/>
<path d="M296.738 22.2319H288.768V38.1724H296.738V22.2319Z" stroke="#18273C" stroke-width="3.33333" stroke-miterlimit="10" stroke-linecap="round" stroke-linejoin="round"/>
<path d="M292.753 30.882C288.218 30.882 284.543 34.5445 284.543 39.0616V109.022C284.543 109.134 284.633 109.225 284.746 109.225H300.759C300.872 109.225 300.963 109.134 300.963 109.022V39.0616C300.963 34.5445 297.287 30.882 292.753 30.882Z" fill="#00A2E0" stroke="#18273C" stroke-width="0.133333"/>
<path d="M292.753 30.8153C288.181 30.8153 284.476 34.5074 284.476 39.0616V109.022C284.476 109.171 284.597 109.292 284.746 109.292H300.759C300.908 109.292 301.03 109.171 301.03 109.022V39.0616C301.03 34.5074 297.324 30.8153 292.753 30.8153Z" stroke="#18273C" stroke-width="3.33333" stroke-miterlimit="10" stroke-linecap="round" stroke-linejoin="round"/>
<path d="M293.06 37.6259C286.663 37.6259 281.478 42.7703 281.478 49.1144V115.67C281.478 115.834 281.612 115.969 281.779 115.969H304.34C304.508 115.969 304.642 115.834 304.642 115.67V49.1144C304.642 42.7703 299.457 37.6259 293.06 37.6259Z" fill="#00A2E0" stroke="#18273C" stroke-width="0.133333"/>
<path d="M293.06 37.5592C286.626 37.5592 281.411 42.7329 281.411 49.1144V115.67C281.411 115.872 281.576 116.035 281.779 116.035H304.34C304.544 116.035 304.709 115.872 304.709 115.67V49.1144C304.709 42.7329 299.493 37.5592 293.06 37.5592Z" stroke="#18273C" stroke-width="3.33333" stroke-miterlimit="10" stroke-linecap="round" stroke-linejoin="round"/>
<path d="M293.059 44.3703C284.97 44.3703 278.412 50.9715 278.412 59.1158V135.187C278.412 135.409 278.591 135.588 278.81 135.588H307.309C307.529 135.588 307.707 135.409 307.707 135.187V59.1158C307.707 50.9715 301.149 44.3703 293.059 44.3703Z" fill="#00A2E0" stroke="#18273C" stroke-width="0.133333"/>
<path d="M293.059 44.3036C284.933 44.3036 278.345 50.9351 278.345 59.1158V135.187C278.345 135.445 278.553 135.655 278.81 135.655H307.309C307.566 135.655 307.774 135.445 307.774 135.187V59.1158C307.774 50.9351 301.186 44.3036 293.059 44.3036Z" stroke="#18273C" stroke-width="3.33333" stroke-miterlimit="10" stroke-linecap="round" stroke-linejoin="round"/>
<path d="M292.753 51.7273C283.14 51.7273 275.346 59.4824 275.346 69.0478V170.051C275.346 170.318 275.564 170.534 275.833 170.534H309.674C309.942 170.534 310.16 170.318 310.16 170.051V69.0478C310.16 59.4824 302.367 51.7273 292.753 51.7273Z" fill="#00A2E0" stroke="#18273C" stroke-width="0.133333"/>
<path d="M306.969 170.534H310.159V69.0485C310.159 59.4848 302.42 51.7273 292.879 51.7273C292.559 51.7273 292.241 51.7358 291.925 51.7529C300.42 52.9114 306.969 60.2187 306.969 69.0485V170.534Z" fill="white" stroke="#18273C" stroke-width="0.133333"/>
<path d="M292.753 51.6606C283.103 51.6606 275.28 59.4452 275.28 69.0478V170.078C275.28 170.367 275.516 170.601 275.806 170.601H309.7C309.99 170.601 310.226 170.367 310.226 170.078V69.0478C310.226 59.4452 302.403 51.6606 292.753 51.6606Z" stroke="#18273C" stroke-width="3.33333" stroke-miterlimit="10" stroke-linecap="round" stroke-linejoin="round"/>
<path d="M292.753 59.6975C286.525 59.6975 281.478 64.7103 281.478 70.8924V170.246C281.478 170.404 281.608 170.534 281.77 170.534H303.737C303.898 170.534 304.029 170.404 304.029 170.246V70.8924C304.029 64.7103 298.981 59.6975 292.753 59.6975Z" fill="#00A2E0" stroke="#18273C" stroke-width="0.133333"/>
<path d="M292.753 59.6308C286.489 59.6308 281.411 64.673 281.411 70.8924V170.246C281.411 170.442 281.571 170.601 281.77 170.601H303.737C303.934 170.601 304.095 170.442 304.095 170.246V70.8924C304.095 64.673 299.017 59.6308 292.753 59.6308Z" stroke="#18273C" stroke-width="3.33333" stroke-miterlimit="10" stroke-linecap="round" stroke-linejoin="round"/>
<path d="M290.674 70.1204V77.9573H294.832V70.1204H290.674Z" fill="#17282F" stroke="#18273C" stroke-width="0.133333"/>
<path d="M290.674 84.2214V92.0583H294.832V84.2214H290.674Z" fill="#17282F" stroke="#18273C" stroke-width="0.133333"/>
<path d="M290.674 98.3227V106.16H294.832V98.3227H290.674Z" fill="#17282F" stroke="#18273C" stroke-width="0.133333"/>
<path d="M290.674 112.424V120.261H294.832V112.424H290.674Z" fill="#17282F" stroke="#18273C" stroke-width="0.133333"/>
<path d="M290.674 126.525V134.362H294.832V126.525H290.674Z" fill="#17282F" stroke="#18273C" stroke-width="0.133333"/>
<path d="M290.674 140.626V147.85H294.832V140.626H290.674Z" fill="#17282F" stroke="#18273C" stroke-width="0.133333"/>
<path d="M293.059 22.2322V2.00003" stroke="#18273C" stroke-width="3.33333" stroke-miterlimit="10" stroke-linecap="round" stroke-linejoin="round"/>
<path d="M319.969 152.275H265.537V199.963H319.969V152.275Z" fill="#00A2E0" stroke="#18273C" stroke-width="0.133333"/>
<path d="M320.036 152.208H265.47V200.03H320.036V152.208Z" stroke="#18273C" stroke-width="3.33333" stroke-miterlimit="10" stroke-linecap="round" stroke-linejoin="round"/>
<path d="M259.406 147.37V199.963H272.147V147.37H259.406Z" fill="#00A2E0" stroke="#18273C" stroke-width="0.133333"/>
<path d="M272.214 200.03H259.339V147.303H272.214V200.03Z" stroke="#18273C" stroke-width="3.33333" stroke-miterlimit="10" stroke-linecap="round" stroke-linejoin="round"/>
<path d="M313.972 147.37V199.963H326.713V147.37H313.972Z" fill="#00A2E0" stroke="#18273C" stroke-width="0.133333"/>
<path d="M326.78 200.03H313.905V147.303H326.78V200.03Z" stroke="#18273C" stroke-width="3.33333" stroke-miterlimit="10" stroke-linecap="round" stroke-linejoin="round"/>
<path d="M277.186 157.18V165.017H281.344V157.18H277.186Z" fill="#17282F" stroke="#18273C" stroke-width="0.133333"/>
<path d="M277.186 171.281V179.118H281.344V171.281H277.186Z" fill="#17282F" stroke="#18273C" stroke-width="0.133333"/>
<path d="M277.186 185.382V193.219H281.344V185.382H277.186Z" fill="#17282F" stroke="#18273C" stroke-width="0.133333"/>
<path d="M286.382 157.18V165.017H290.54V157.18H286.382Z" fill="#17282F" stroke="#18273C" stroke-width="0.133333"/>
<path d="M286.382 171.281V179.118H290.54V171.281H286.382Z" fill="#17282F" stroke="#18273C" stroke-width="0.133333"/>
<path d="M294.966 157.18V165.017H299.737V157.18H294.966Z" fill="#17282F" stroke="#18273C" stroke-width="0.133333"/>
<path d="M294.966 171.281V179.118H299.737V171.281H294.966Z" fill="#17282F" stroke="#18273C" stroke-width="0.133333"/>
<path d="M304.162 157.18V165.017H308.32V157.18H304.162Z" fill="#17282F" stroke="#18273C" stroke-width="0.133333"/>
<path d="M304.162 171.281V179.118H308.32V171.281H304.162Z" fill="#17282F" stroke="#18273C" stroke-width="0.133333"/>
<path d="M304.162 185.382V193.219H308.32V185.382H304.162Z" fill="#17282F" stroke="#18273C" stroke-width="0.133333"/>
<path d="M286.382 186.608V199.963H299.737V186.608H286.382Z" fill="#17282F" stroke="#18273C" stroke-width="0.133333"/>
<path d="M351.237 199.963V124.072H312.745V199.963H351.237Z" fill="#85B8E6" stroke="#18273C" stroke-width="0.133333"/>
<path d="M312.678 124.006H351.303V200.03H312.678V124.006Z" stroke="#18273C" stroke-width="3.33333" stroke-miterlimit="10" stroke-linecap="round" stroke-linejoin="round"/>
<path d="M312.612 124.072H304.162V199.963H312.612V124.072Z" fill="#85B8E6" stroke="#18273C" stroke-width="0.133333"/>
<path d="M304.162 124.073V199.35H307.094V124.073H304.162Z" fill="white" stroke="#18273C" stroke-width="0.133333"/>
<path d="M312.679 124.006H304.095V200.03H312.679V124.006Z" stroke="#18273C" stroke-width="3.33333" stroke-miterlimit="10" stroke-linecap="round" stroke-linejoin="round"/>
<path d="M340.948 141.106H345.106V131.43H340.948V141.106Z" fill="white" stroke="#18273C" stroke-width="0.133333"/>
<path d="M340.881 141.173H345.173V131.363H340.881V141.173Z" stroke="#18273C" stroke-width="3.33333" stroke-miterlimit="10" stroke-linecap="round" stroke-linejoin="round"/>
<path d="M339.108 142.945H346.945V140.626H339.108V142.945Z" fill="white" stroke="#18273C" stroke-width="0.133333"/>
<path d="M339.042 143.012H347.012V140.56H339.042V143.012Z" stroke="#18273C" stroke-width="3.33333" stroke-miterlimit="10" stroke-linecap="round" stroke-linejoin="round"/>
<path d="M329.912 141.106H334.07V131.43H329.912V141.106Z" fill="white" stroke="#18273C" stroke-width="0.133333"/>
<path d="M329.845 141.173H334.137V131.363H329.845V141.173Z" stroke="#18273C" stroke-width="3.33333" stroke-miterlimit="10" stroke-linecap="round" stroke-linejoin="round"/>
<path d="M328.073 142.945H335.909V140.626H328.073V142.945Z" fill="white" stroke="#18273C" stroke-width="0.133333"/>
<path d="M328.006 143.012H335.976V140.56H328.006V143.012Z" stroke="#18273C" stroke-width="3.33333" stroke-miterlimit="10" stroke-linecap="round" stroke-linejoin="round"/>
<path d="M318.263 141.106H322.421V131.43H318.263V141.106Z" fill="white" stroke="#18273C" stroke-width="0.133333"/>
<path d="M318.196 141.173H322.488V131.363H318.196V141.173Z" stroke="#18273C" stroke-width="3.33333" stroke-miterlimit="10" stroke-linecap="round" stroke-linejoin="round"/>
<path d="M316.424 142.945H324.261V140.626H316.424V142.945Z" fill="white" stroke="#18273C" stroke-width="0.133333"/>
<path d="M316.357 143.012H324.327V140.56H316.357V143.012Z" stroke="#18273C" stroke-width="3.33333" stroke-miterlimit="10" stroke-linecap="round" stroke-linejoin="round"/>
<path d="M307.227 141.106H309.546V131.43H307.227V141.106Z" fill="white" stroke="#18273C" stroke-width="0.133333"/>
<path d="M307.161 141.173H309.613V131.363H307.161V141.173Z" stroke="#18273C" stroke-width="3.33333" stroke-miterlimit="10" stroke-linecap="round" stroke-linejoin="round"/>
<path d="M306.001 142.945H310.772V140.626H306.001V142.945Z" fill="white" stroke="#18273C" stroke-width="0.133333"/>
<path d="M305.934 143.012H310.839V140.56H305.934V143.012Z" stroke="#18273C" stroke-width="3.33333" stroke-miterlimit="10" stroke-linecap="round" stroke-linejoin="round"/>
<path d="M340.948 157.659H345.106V147.983H340.948V157.659Z" fill="white" stroke="#18273C" stroke-width="0.133333"/>
<path d="M340.881 157.726H345.173V147.917H340.881V157.726Z" stroke="#18273C" stroke-width="3.33333" stroke-miterlimit="10" stroke-linecap="round" stroke-linejoin="round"/>
<path d="M339.108 159.499H346.945V157.179H339.108V159.499Z" fill="white" stroke="#18273C" stroke-width="0.133333"/>
<path d="M339.042 159.565H347.012V157.113H339.042V159.565Z" stroke="#18273C" stroke-width="3.33333" stroke-miterlimit="10" stroke-linecap="round" stroke-linejoin="round"/>
<path d="M329.912 157.659H334.07V147.983H329.912V157.659Z" fill="white" stroke="#18273C" stroke-width="0.133333"/>
<path d="M329.845 157.726H334.137V147.917H329.845V157.726Z" stroke="#18273C" stroke-width="3.33333" stroke-miterlimit="10" stroke-linecap="round" stroke-linejoin="round"/>
<path d="M328.073 159.499H335.909V157.179H328.073V159.499Z" fill="white" stroke="#18273C" stroke-width="0.133333"/>
<path d="M328.006 159.565H335.976V157.113H328.006V159.565Z" stroke="#18273C" stroke-width="3.33333" stroke-miterlimit="10" stroke-linecap="round" stroke-linejoin="round"/>
<path d="M318.263 157.659H322.421V147.983H318.263V157.659Z" fill="white" stroke="#18273C" stroke-width="0.133333"/>
<path d="M318.196 157.726H322.488V147.917H318.196V157.726Z" stroke="#18273C" stroke-width="3.33333" stroke-miterlimit="10" stroke-linecap="round" stroke-linejoin="round"/>
<path d="M316.424 159.499H324.261V157.179H316.424V159.499Z" fill="white" stroke="#18273C" stroke-width="0.133333"/>
<path d="M316.357 159.565H324.327V157.113H316.357V159.565Z" stroke="#18273C" stroke-width="3.33333" stroke-miterlimit="10" stroke-linecap="round" stroke-linejoin="round"/>
<path d="M307.227 157.659H309.546V147.983H307.227V157.659Z" fill="white" stroke="#18273C" stroke-width="0.133333"/>
<path d="M307.161 157.726H309.613V147.917H307.161V157.726Z" stroke="#18273C" stroke-width="3.33333" stroke-miterlimit="10" stroke-linecap="round" stroke-linejoin="round"/>
<path d="M306.001 159.499H310.772V157.179H306.001V159.499Z" fill="white" stroke="#18273C" stroke-width="0.133333"/>
<path d="M305.934 159.565H310.839V157.113H305.934V159.565Z" stroke="#18273C" stroke-width="3.33333" stroke-miterlimit="10" stroke-linecap="round" stroke-linejoin="round"/>
<path d="M340.948 174.213H345.106V165.15H340.948V174.213Z" fill="white" stroke="#18273C" stroke-width="0.133333"/>
<path d="M340.881 174.28H345.173V165.083H340.881V174.28Z" stroke="#18273C" stroke-width="3.33333" stroke-miterlimit="10" stroke-linecap="round" stroke-linejoin="round"/>
<path d="M339.108 176.666H346.945V174.346H339.108V176.666Z" fill="white" stroke="#18273C" stroke-width="0.133333"/>
<path d="M339.042 176.732H347.012V174.28H339.042V176.732Z" stroke="#18273C" stroke-width="3.33333" stroke-miterlimit="10" stroke-linecap="round" stroke-linejoin="round"/>
<path d="M329.912 174.213H334.07V165.15H329.912V174.213Z" fill="white" stroke="#18273C" stroke-width="0.133333"/>
<path d="M329.845 174.28H334.137V165.083H329.845V174.28Z" stroke="#18273C" stroke-width="3.33333" stroke-miterlimit="10" stroke-linecap="round" stroke-linejoin="round"/>
<path d="M328.073 176.666H335.909V174.346H328.073V176.666Z" fill="white" stroke="#18273C" stroke-width="0.133333"/>
<path d="M328.006 176.732H335.976V174.28H328.006V176.732Z" stroke="#18273C" stroke-width="3.33333" stroke-miterlimit="10" stroke-linecap="round" stroke-linejoin="round"/>
<path d="M318.263 174.213H322.421V165.15H318.263V174.213Z" fill="white" stroke="#18273C" stroke-width="0.133333"/>
<path d="M318.196 174.28H322.488V165.083H318.196V174.28Z" stroke="#18273C" stroke-width="3.33333" stroke-miterlimit="10" stroke-linecap="round" stroke-linejoin="round"/>
<path d="M316.424 176.666H324.261V174.346H316.424V176.666Z" fill="white" stroke="#18273C" stroke-width="0.133333"/>
<path d="M316.357 176.732H324.327V174.28H316.357V176.732Z" stroke="#18273C" stroke-width="3.33333" stroke-miterlimit="10" stroke-linecap="round" stroke-linejoin="round"/>
<path d="M307.227 174.213H309.546V165.15H307.227V174.213Z" fill="white" stroke="#18273C" stroke-width="0.133333"/>
<path d="M307.161 174.28H309.613V165.083H307.161V174.28Z" stroke="#18273C" stroke-width="3.33333" stroke-miterlimit="10" stroke-linecap="round" stroke-linejoin="round"/>
<path d="M306.001 176.666H310.772V174.346H306.001V176.666Z" fill="white" stroke="#18273C" stroke-width="0.133333"/>
<path d="M305.934 176.732H310.839V174.28H305.934V176.732Z" stroke="#18273C" stroke-width="3.33333" stroke-miterlimit="10" stroke-linecap="round" stroke-linejoin="round"/>
<path d="M340.948 191.38H345.106V181.704H340.948V191.38Z" fill="white" stroke="#18273C" stroke-width="0.133333"/>
<path d="M340.881 191.447H345.173V181.637H340.881V191.447Z" stroke="#18273C" stroke-width="3.33333" stroke-miterlimit="10" stroke-linecap="round" stroke-linejoin="round"/>
<path d="M339.108 193.219H346.945V190.9H339.108V193.219Z" fill="white" stroke="#18273C" stroke-width="0.133333"/>
<path d="M339.042 193.286H347.012V190.833H339.042V193.286Z" stroke="#18273C" stroke-width="3.33333" stroke-miterlimit="10" stroke-linecap="round" stroke-linejoin="round"/>
<path d="M318.263 191.38H322.421V181.704H318.263V191.38Z" fill="white" stroke="#18273C" stroke-width="0.133333"/>
<path d="M318.196 191.447H322.488V181.637H318.196V191.447Z" stroke="#18273C" stroke-width="3.33333" stroke-miterlimit="10" stroke-linecap="round" stroke-linejoin="round"/>
<path d="M316.424 193.219H324.261V190.9H316.424V193.219Z" fill="white" stroke="#18273C" stroke-width="0.133333"/>
<path d="M316.357 193.286H324.327V190.833H316.357V193.286Z" stroke="#18273C" stroke-width="3.33333" stroke-miterlimit="10" stroke-linecap="round" stroke-linejoin="round"/>
<path d="M307.227 191.38H309.546V181.704H307.227V191.38Z" fill="white" stroke="#18273C" stroke-width="0.133333"/>
<path d="M307.161 191.447H309.613V181.637H307.161V191.447Z" stroke="#18273C" stroke-width="3.33333" stroke-miterlimit="10" stroke-linecap="round" stroke-linejoin="round"/>
<path d="M306.001 193.219H310.772V190.9H306.001V193.219Z" fill="white" stroke="#18273C" stroke-width="0.133333"/>
<path d="M305.934 193.286H310.839V190.833H305.934V193.286Z" stroke="#18273C" stroke-width="3.33333" stroke-miterlimit="10" stroke-linecap="round" stroke-linejoin="round"/>
<path d="M352.463 123.939V120.394H312.745V123.939H352.463Z" fill="white" stroke="#18273C" stroke-width="0.133333"/>
<path d="M312.678 120.328H352.53V124.006H312.678V120.328Z" stroke="#18273C" stroke-width="3.33333" stroke-miterlimit="10" stroke-linecap="round" stroke-linejoin="round"/>
<path d="M312.745 120.261H355.528V117.329H312.745V120.261Z" fill="white" stroke="#18273C" stroke-width="0.133333"/>
<path d="M312.678 120.327H355.595V117.262H312.678V120.327Z" stroke="#18273C" stroke-width="3.33333" stroke-miterlimit="10" stroke-linecap="round" stroke-linejoin="round"/>
<path d="M312.612 120.394H302.323V123.939H312.612V120.394Z" fill="white" stroke="#18273C" stroke-width="0.133333"/>
<path d="M312.678 120.328H302.256V124.006H312.678V120.328Z" stroke="#18273C" stroke-width="3.33333" stroke-miterlimit="10" stroke-linecap="round" stroke-linejoin="round"/>
<path d="M300.483 117.329V120.261H312.612V117.329H300.483Z" fill="white" stroke="#18273C" stroke-width="0.133333"/>
<path d="M312.679 120.327H300.417V117.262H312.679V120.327Z" stroke="#18273C" stroke-width="3.33333" stroke-miterlimit="10" stroke-linecap="round" stroke-linejoin="round"/>
<path d="M345.106 117.195V107.519H312.745V117.195H345.106Z" fill="white" stroke="#18273C" stroke-width="0.133333"/>
<path d="M312.678 107.452H345.173V117.262H312.678V107.452Z" stroke="#18273C" stroke-width="3.33333" stroke-miterlimit="10" stroke-linecap="round" stroke-linejoin="round"/>
<path d="M312.612 107.519H306.001V117.195H312.612V107.519Z" fill="white" stroke="#18273C" stroke-width="0.133333"/>
<path d="M312.678 107.452H305.934V117.262H312.678V107.452Z" stroke="#18273C" stroke-width="3.33333" stroke-miterlimit="10" stroke-linecap="round" stroke-linejoin="round"/>
<path d="M329.299 199.963H334.07V182.316H329.299V199.963Z" fill="#17282F" stroke="#18273C" stroke-width="0.133333"/>
<path d="M329.232 200.03H334.137V182.25H329.232V200.03Z" stroke="#18273C" stroke-width="3.33333" stroke-miterlimit="10" stroke-linecap="round" stroke-linejoin="round"/>
<path d="M314.584 90.9654V103.094H343.88V90.9654H314.584Z" fill="white" stroke="#18273C" stroke-width="0.133333"/>
<path d="M343.946 103.161H314.518V90.8987H343.946V103.161Z" stroke="#18273C" stroke-width="3.33333" stroke-miterlimit="10" stroke-linecap="round" stroke-linejoin="round"/>
<path d="M318.876 103.227V107.999H321.808V103.227H318.876Z" fill="white" stroke="#18273C" stroke-width="0.133333"/>
<path d="M321.875 108.065H318.809V103.161H321.875V108.065Z" stroke="#18273C" stroke-width="3.33333" stroke-miterlimit="10" stroke-linecap="round" stroke-linejoin="round"/>
<path d="M336.656 103.227V107.999H338.975V103.227H336.656Z" fill="white" stroke="#18273C" stroke-width="0.133333"/>
<path d="M339.042 108.065H336.589V103.161H339.042V108.065Z" stroke="#18273C" stroke-width="3.33333" stroke-miterlimit="10" stroke-linecap="round" stroke-linejoin="round"/>
<path d="M247.757 199.963H275.826V97.0962H247.757V199.963Z" fill="#85B8E6" stroke="#18273C" stroke-width="0.133333"/>
<path d="M247.691 200.03H275.893V97.0295H247.691V200.03Z" stroke="#18273C" stroke-width="3.33333" stroke-miterlimit="10" stroke-linecap="round" stroke-linejoin="round"/>
<path d="M229.364 199.963H247.624V97.0962H229.364V199.963Z" fill="#85B8E6" stroke="#18273C" stroke-width="0.133333"/>
<path d="M229.364 97.0962V199.963H232.297V97.0962H229.364Z" fill="white" stroke="#18273C" stroke-width="0.133333"/>
<path d="M229.298 200.03H247.691V97.0295H229.298V200.03Z" stroke="#18273C" stroke-width="3.33333" stroke-miterlimit="10" stroke-linecap="round" stroke-linejoin="round"/>
<path d="M248.37 92.6714H272.761V81.1559H248.37V92.6714Z" fill="#85B8E6" stroke="#18273C" stroke-width="0.133333"/>
<path d="M248.304 92.738H272.828V81.0892H248.304V92.738Z" stroke="#18273C" stroke-width="3.33333" stroke-miterlimit="10" stroke-linecap="round" stroke-linejoin="round"/>
<path d="M232.43 92.6714H248.237V81.1559H232.43V92.6714Z" fill="#85B8E6" stroke="#18273C" stroke-width="0.133333"/>
<path d="M232.43 81.1559V92.6714H234.749V81.1559H232.43Z" fill="white" stroke="#18273C" stroke-width="0.133333"/>
<path d="M232.363 92.738H248.304V81.0892H232.363V92.738Z" stroke="#18273C" stroke-width="3.33333" stroke-miterlimit="10" stroke-linecap="round" stroke-linejoin="round"/>
<path d="M278.279 96.9629V92.8045H247.757V96.9629H278.279Z" fill="white" stroke="#18273C" stroke-width="0.133333"/>
<path d="M247.691 92.7379H278.345V97.0295H247.691V92.7379Z" stroke="#18273C" stroke-width="3.33333" stroke-miterlimit="10" stroke-linecap="round" stroke-linejoin="round"/>
<path d="M247.624 92.8045H226.912V96.9629H247.624V92.8045Z" fill="white" stroke="#18273C" stroke-width="0.133333"/>
<path d="M247.69 92.7379H226.845V97.0295H247.69V92.7379Z" stroke="#18273C" stroke-width="3.33333" stroke-miterlimit="10" stroke-linecap="round" stroke-linejoin="round"/>
<path d="M267.989 110.451H272.148V104.37C272.148 103.405 271.304 102.614 270.252 102.614H269.885C268.833 102.614 267.989 103.405 267.989 104.37V110.451Z" fill="white" stroke="#18273C" stroke-width="0.133333"/>
<path d="M267.923 110.518H272.214V104.37C272.214 103.363 271.336 102.548 270.252 102.548H269.885C268.801 102.548 267.923 103.363 267.923 104.37V110.518Z" stroke="#18273C" stroke-width="3.33333" stroke-miterlimit="10" stroke-linecap="round" stroke-linejoin="round"/>
<path d="M260.019 110.451H263.564V104.37C263.564 103.395 262.836 102.614 261.949 102.614H261.634C260.747 102.614 260.019 103.395 260.019 104.37V110.451Z" fill="white" stroke="#18273C" stroke-width="0.133333"/>
<path d="M259.952 110.518H263.631V104.37C263.631 103.363 262.878 102.548 261.949 102.548H261.634C260.705 102.548 259.952 103.363 259.952 104.37V110.518Z" stroke="#18273C" stroke-width="3.33333" stroke-miterlimit="10" stroke-linecap="round" stroke-linejoin="round"/>
<path d="M252.049 110.451H255.594V104.37C255.594 103.395 254.866 102.614 253.979 102.614H253.664C252.777 102.614 252.049 103.395 252.049 104.37V110.451Z" fill="white" stroke="#18273C" stroke-width="0.133333"/>
<path d="M251.982 110.518H255.661V104.37C255.661 103.363 254.908 102.548 253.979 102.548H253.664C252.735 102.548 251.982 103.363 251.982 104.37V110.518Z" stroke="#18273C" stroke-width="3.33333" stroke-miterlimit="10" stroke-linecap="round" stroke-linejoin="round"/>
<path d="M267.989 123.326H272.148V117.245C272.148 116.28 271.304 115.489 270.252 115.489H269.885C268.833 115.489 267.989 116.28 267.989 117.245V123.326Z" fill="white" stroke="#18273C" stroke-width="0.133333"/>
<path d="M267.923 123.393H272.214V117.245C272.214 116.238 271.336 115.423 270.252 115.423H269.885C268.801 115.423 267.923 116.238 267.923 117.245V123.393Z" stroke="#18273C" stroke-width="3.33333" stroke-miterlimit="10" stroke-linecap="round" stroke-linejoin="round"/>
<path d="M260.019 123.326H263.564V117.245C263.564 116.27 262.836 115.489 261.949 115.489H261.634C260.747 115.489 260.019 116.27 260.019 117.245V123.326Z" fill="white" stroke="#18273C" stroke-width="0.133333"/>
<path d="M259.952 123.393H263.631V117.245C263.631 116.238 262.878 115.423 261.949 115.423H261.634C260.705 115.423 259.952 116.238 259.952 117.245V123.393Z" stroke="#18273C" stroke-width="3.33333" stroke-miterlimit="10" stroke-linecap="round" stroke-linejoin="round"/>
<path d="M252.049 123.326H255.594V117.245C255.594 116.27 254.866 115.489 253.979 115.489H253.664C252.777 115.489 252.049 116.27 252.049 117.245V123.326Z" fill="white" stroke="#18273C" stroke-width="0.133333"/>
<path d="M251.982 123.393H255.661V117.245C255.661 116.238 254.908 115.423 253.979 115.423H253.664C252.735 115.423 251.982 116.238 251.982 117.245V123.393Z" stroke="#18273C" stroke-width="3.33333" stroke-miterlimit="10" stroke-linecap="round" stroke-linejoin="round"/>
<path d="M267.989 136.201H272.148V130.119C272.148 129.155 271.304 128.364 270.252 128.364H269.885C268.833 128.364 267.989 129.155 267.989 130.119V136.201Z" fill="white" stroke="#18273C" stroke-width="0.133333"/>
<path d="M267.923 136.268H272.214V130.119C272.214 129.113 271.336 128.297 270.252 128.297H269.885C268.801 128.297 267.923 129.113 267.923 130.119V136.268Z" stroke="#18273C" stroke-width="3.33333" stroke-miterlimit="10" stroke-linecap="round" stroke-linejoin="round"/>
<path d="M260.019 136.201H263.564V130.119C263.564 129.145 262.836 128.364 261.949 128.364H261.634C260.747 128.364 260.019 129.145 260.019 130.119V136.201Z" fill="white" stroke="#18273C" stroke-width="0.133333"/>
<path d="M259.952 136.268H263.631V130.119C263.631 129.113 262.878 128.297 261.949 128.297H261.634C260.705 128.297 259.952 129.113 259.952 130.119V136.268Z" stroke="#18273C" stroke-width="3.33333" stroke-miterlimit="10" stroke-linecap="round" stroke-linejoin="round"/>
<path d="M252.049 136.201H255.594V130.119C255.594 129.145 254.866 128.364 253.979 128.364H253.664C252.777 128.364 252.049 129.145 252.049 130.119V136.201Z" fill="white" stroke="#18273C" stroke-width="0.133333"/>
<path d="M251.982 136.268H255.661V130.119C255.661 129.113 254.908 128.297 253.979 128.297H253.664C252.735 128.297 251.982 129.113 251.982 130.119V136.268Z" stroke="#18273C" stroke-width="3.33333" stroke-miterlimit="10" stroke-linecap="round" stroke-linejoin="round"/>
<path d="M267.989 149.076H272.148V142.994C272.148 142.03 271.304 141.239 270.252 141.239H269.885C268.833 141.239 267.989 142.03 267.989 142.994V149.076Z" fill="white" stroke="#18273C" stroke-width="0.133333"/>
<path d="M267.923 149.143H272.214V142.994C272.214 141.988 271.336 141.172 270.252 141.172H269.885C268.801 141.172 267.923 141.988 267.923 142.994V149.143Z" stroke="#18273C" stroke-width="3.33333" stroke-miterlimit="10" stroke-linecap="round" stroke-linejoin="round"/>
<path d="M260.019 149.076H263.564V142.994C263.564 142.02 262.836 141.239 261.949 141.239H261.634C260.747 141.239 260.019 142.02 260.019 142.994V149.076Z" fill="white" stroke="#18273C" stroke-width="0.133333"/>
<path d="M259.952 149.143H263.631V142.994C263.631 141.988 262.878 141.172 261.949 141.172H261.634C260.705 141.172 259.952 141.988 259.952 142.994V149.143Z" stroke="#18273C" stroke-width="3.33333" stroke-miterlimit="10" stroke-linecap="round" stroke-linejoin="round"/>
<path d="M252.049 149.076H255.594V142.994C255.594 142.02 254.866 141.239 253.979 141.239H253.664C252.777 141.239 252.049 142.02 252.049 142.994V149.076Z" fill="white" stroke="#18273C" stroke-width="0.133333"/>
<path d="M251.982 149.143H255.661V142.994C255.661 141.988 254.908 141.172 253.979 141.172H253.664C252.735 141.172 251.982 141.988 251.982 142.994V149.143Z" stroke="#18273C" stroke-width="3.33333" stroke-miterlimit="10" stroke-linecap="round" stroke-linejoin="round"/>
<path d="M267.989 161.951H272.148V155.869C272.148 154.904 271.304 154.114 270.252 154.114H269.885C268.833 154.114 267.989 154.904 267.989 155.869V161.951Z" fill="white" stroke="#18273C" stroke-width="0.133333"/>
<path d="M267.923 162.018H272.214V155.869C272.214 154.863 271.336 154.047 270.252 154.047H269.885C268.801 154.047 267.923 154.863 267.923 155.869V162.018Z" stroke="#18273C" stroke-width="3.33333" stroke-miterlimit="10" stroke-linecap="round" stroke-linejoin="round"/>
<path d="M260.019 161.951H263.564V155.869C263.564 154.895 262.836 154.114 261.949 154.114H261.634C260.747 154.114 260.019 154.895 260.019 155.869V161.951Z" fill="white" stroke="#18273C" stroke-width="0.133333"/>
<path d="M259.952 162.018H263.631V155.869C263.631 154.863 262.878 154.047 261.949 154.047H261.634C260.705 154.047 259.952 154.863 259.952 155.869V162.018Z" stroke="#18273C" stroke-width="3.33333" stroke-miterlimit="10" stroke-linecap="round" stroke-linejoin="round"/>
<path d="M252.049 161.951H255.594V155.869C255.594 154.895 254.866 154.114 253.979 154.114H253.664C252.777 154.114 252.049 154.895 252.049 155.869V161.951Z" fill="white" stroke="#18273C" stroke-width="0.133333"/>
<path d="M251.982 162.018H255.661V155.869C255.661 154.863 254.908 154.047 253.979 154.047H253.664C252.735 154.047 251.982 154.863 251.982 155.869V162.018Z" stroke="#18273C" stroke-width="3.33333" stroke-miterlimit="10" stroke-linecap="round" stroke-linejoin="round"/>
<path d="M267.989 174.826H272.148V168.745C272.148 167.78 271.304 166.989 270.252 166.989H269.885C268.833 166.989 267.989 167.78 267.989 168.745V174.826Z" fill="white" stroke="#18273C" stroke-width="0.133333"/>
<path d="M267.923 174.893H272.214V168.745C272.214 167.738 271.336 166.923 270.252 166.923H269.885C268.801 166.923 267.923 167.738 267.923 168.745V174.893Z" stroke="#18273C" stroke-width="3.33333" stroke-miterlimit="10" stroke-linecap="round" stroke-linejoin="round"/>
<path d="M260.019 174.826H263.564V168.745C263.564 167.77 262.836 166.989 261.949 166.989H261.634C260.747 166.989 260.019 167.77 260.019 168.745V174.826Z" fill="white" stroke="#18273C" stroke-width="0.133333"/>
<path d="M259.952 174.893H263.631V168.745C263.631 167.738 262.878 166.923 261.949 166.923H261.634C260.705 166.923 259.952 167.738 259.952 168.745V174.893Z" stroke="#18273C" stroke-width="3.33333" stroke-miterlimit="10" stroke-linecap="round" stroke-linejoin="round"/>
<path d="M252.049 174.826H255.594V168.745C255.594 167.77 254.866 166.989 253.979 166.989H253.664C252.777 166.989 252.049 167.77 252.049 168.745V174.826Z" fill="white" stroke="#18273C" stroke-width="0.133333"/>
<path d="M251.982 174.893H255.661V168.745C255.661 167.738 254.908 166.923 253.979 166.923H253.664C252.735 166.923 251.982 167.738 251.982 168.745V174.893Z" stroke="#18273C" stroke-width="3.33333" stroke-miterlimit="10" stroke-linecap="round" stroke-linejoin="round"/>
<path d="M267.989 187.088H272.148V181.479C272.148 180.596 271.309 179.864 270.252 179.864H269.885C268.828 179.864 267.989 180.596 267.989 181.479V187.088Z" fill="white" stroke="#18273C" stroke-width="0.133333"/>
<path d="M267.923 187.155H272.214V181.479C272.214 180.55 271.336 179.797 270.252 179.797H269.885C268.801 179.797 267.923 180.55 267.923 181.479V187.155Z" stroke="#18273C" stroke-width="3.33333" stroke-miterlimit="10" stroke-linecap="round" stroke-linejoin="round"/>
<path d="M260.019 187.088H263.564V181.479C263.564 180.587 262.841 179.864 261.949 179.864H261.634C260.742 179.864 260.019 180.587 260.019 181.479V187.088Z" fill="white" stroke="#18273C" stroke-width="0.133333"/>
<path d="M259.952 187.155H263.631V181.479C263.631 180.55 262.878 179.797 261.949 179.797H261.634C260.705 179.797 259.952 180.55 259.952 181.479V187.155Z" stroke="#18273C" stroke-width="3.33333" stroke-miterlimit="10" stroke-linecap="round" stroke-linejoin="round"/>
<path d="M252.049 187.088H255.594V181.479C255.594 180.587 254.871 179.864 253.979 179.864H253.664C252.772 179.864 252.049 180.587 252.049 181.479V187.088Z" fill="white" stroke="#18273C" stroke-width="0.133333"/>
<path d="M251.982 187.155H255.661V181.479C255.661 180.55 254.908 179.797 253.979 179.797H253.664C252.735 179.797 251.982 180.55 251.982 181.479V187.155Z" stroke="#18273C" stroke-width="3.33333" stroke-miterlimit="10" stroke-linecap="round" stroke-linejoin="round"/>
<path d="M239.787 110.451H243.332V104.37C243.332 103.395 242.604 102.614 241.717 102.614H241.402C240.515 102.614 239.787 103.395 239.787 104.37V110.451Z" fill="white" stroke="#18273C" stroke-width="0.133333"/>
<path d="M239.72 110.518H243.399V104.37C243.399 103.363 242.646 102.548 241.717 102.548H241.402C240.473 102.548 239.72 103.363 239.72 104.37V110.518Z" stroke="#18273C" stroke-width="3.33333" stroke-miterlimit="10" stroke-linecap="round" stroke-linejoin="round"/>
<path d="M231.817 110.451H235.362V104.37C235.362 103.395 234.634 102.614 233.747 102.614H233.432C232.545 102.614 231.817 103.395 231.817 104.37V110.451Z" fill="white" stroke="#18273C" stroke-width="0.133333"/>
<path d="M231.75 110.518H235.429V104.37C235.429 103.363 234.676 102.548 233.747 102.548H233.432C232.503 102.548 231.75 103.363 231.75 104.37V110.518Z" stroke="#18273C" stroke-width="3.33333" stroke-miterlimit="10" stroke-linecap="round" stroke-linejoin="round"/>
<path d="M239.787 123.326H243.332V117.245C243.332 116.27 242.604 115.489 241.717 115.489H241.402C240.515 115.489 239.787 116.27 239.787 117.245V123.326Z" fill="white" stroke="#18273C" stroke-width="0.133333"/>
<path d="M239.72 123.393H243.399V117.245C243.399 116.238 242.646 115.423 241.717 115.423H241.402C240.473 115.423 239.72 116.238 239.72 117.245V123.393Z" stroke="#18273C" stroke-width="3.33333" stroke-miterlimit="10" stroke-linecap="round" stroke-linejoin="round"/>
<path d="M231.817 123.326H235.362V117.245C235.362 116.27 234.634 115.489 233.747 115.489H233.432C232.545 115.489 231.817 116.27 231.817 117.245V123.326Z" fill="white" stroke="#18273C" stroke-width="0.133333"/>
<path d="M231.75 123.393H235.429V117.245C235.429 116.238 234.676 115.423 233.747 115.423H233.432C232.503 115.423 231.75 116.238 231.75 117.245V123.393Z" stroke="#18273C" stroke-width="3.33333" stroke-miterlimit="10" stroke-linecap="round" stroke-linejoin="round"/>
<path d="M239.787 136.201H243.332V130.119C243.332 129.145 242.604 128.364 241.717 128.364H241.402C240.515 128.364 239.787 129.145 239.787 130.119V136.201Z" fill="white" stroke="#18273C" stroke-width="0.133333"/>
<path d="M239.72 136.268H243.399V130.119C243.399 129.113 242.646 128.297 241.717 128.297H241.402C240.473 128.297 239.72 129.113 239.72 130.119V136.268Z" stroke="#18273C" stroke-width="3.33333" stroke-miterlimit="10" stroke-linecap="round" stroke-linejoin="round"/>
<path d="M231.817 136.201H235.362V130.119C235.362 129.145 234.634 128.364 233.747 128.364H233.432C232.545 128.364 231.817 129.145 231.817 130.119V136.201Z" fill="white" stroke="#18273C" stroke-width="0.133333"/>
<path d="M231.75 136.268H235.429V130.119C235.429 129.113 234.676 128.297 233.747 128.297H233.432C232.503 128.297 231.75 129.113 231.75 130.119V136.268Z" stroke="#18273C" stroke-width="3.33333" stroke-miterlimit="10" stroke-linecap="round" stroke-linejoin="round"/>
<path d="M239.787 149.076H243.332V142.994C243.332 142.02 242.604 141.239 241.717 141.239H241.402C240.515 141.239 239.787 142.02 239.787 142.994V149.076Z" fill="white" stroke="#18273C" stroke-width="0.133333"/>
<path d="M239.72 149.143H243.399V142.994C243.399 141.988 242.646 141.172 241.717 141.172H241.402C240.473 141.172 239.72 141.988 239.72 142.994V149.143Z" stroke="#18273C" stroke-width="3.33333" stroke-miterlimit="10" stroke-linecap="round" stroke-linejoin="round"/>
<path d="M231.817 149.076H235.362V142.994C235.362 142.02 234.634 141.239 233.747 141.239H233.432C232.545 141.239 231.817 142.02 231.817 142.994V149.076Z" fill="white" stroke="#18273C" stroke-width="0.133333"/>
<path d="M231.75 149.143H235.429V142.994C235.429 141.988 234.676 141.172 233.747 141.172H233.432C232.503 141.172 231.75 141.988 231.75 142.994V149.143Z" stroke="#18273C" stroke-width="3.33333" stroke-miterlimit="10" stroke-linecap="round" stroke-linejoin="round"/>
<path d="M239.787 161.951H243.332V155.87C243.332 154.895 242.604 154.114 241.717 154.114H241.402C240.515 154.114 239.787 154.895 239.787 155.87V161.951Z" fill="white" stroke="#18273C" stroke-width="0.133333"/>
<path d="M239.72 162.018H243.399V155.87C243.399 154.863 242.646 154.047 241.717 154.047H241.402C240.473 154.047 239.72 154.863 239.72 155.87V162.018Z" stroke="#18273C" stroke-width="3.33333" stroke-miterlimit="10" stroke-linecap="round" stroke-linejoin="round"/>
<path d="M231.817 161.951H235.362V155.87C235.362 154.895 234.634 154.114 233.747 154.114H233.432C232.545 154.114 231.817 154.895 231.817 155.87V161.951Z" fill="white" stroke="#18273C" stroke-width="0.133333"/>
<path d="M231.75 162.018H235.429V155.87C235.429 154.863 234.676 154.047 233.747 154.047H233.432C232.503 154.047 231.75 154.863 231.75 155.87V162.018Z" stroke="#18273C" stroke-width="3.33333" stroke-miterlimit="10" stroke-linecap="round" stroke-linejoin="round"/>
<path d="M239.787 174.826H243.332V168.745C243.332 167.77 242.604 166.989 241.717 166.989H241.402C240.515 166.989 239.787 167.77 239.787 168.745V174.826Z" fill="white" stroke="#18273C" stroke-width="0.133333"/>
<path d="M239.72 174.893H243.399V168.745C243.399 167.739 242.646 166.923 241.717 166.923H241.402C240.473 166.923 239.72 167.739 239.72 168.745V174.893Z" stroke="#18273C" stroke-width="3.33333" stroke-miterlimit="10" stroke-linecap="round" stroke-linejoin="round"/>
<path d="M231.817 174.826H235.362V168.745C235.362 167.77 234.634 166.989 233.747 166.989H233.432C232.545 166.989 231.817 167.77 231.817 168.745V174.826Z" fill="white" stroke="#18273C" stroke-width="0.133333"/>
<path d="M231.75 174.893H235.429V168.745C235.429 167.739 234.676 166.923 233.747 166.923H233.432C232.503 166.923 231.75 167.739 231.75 168.745V174.893Z" stroke="#18273C" stroke-width="3.33333" stroke-miterlimit="10" stroke-linecap="round" stroke-linejoin="round"/>
<path d="M239.787 187.701H243.332V181.62C243.332 180.645 242.604 179.864 241.717 179.864H241.402C240.515 179.864 239.787 180.645 239.787 181.62V187.701Z" fill="white" stroke="#18273C" stroke-width="0.133333"/>
<path d="M239.72 187.768H243.399V181.62C243.399 180.613 242.646 179.798 241.717 179.798H241.402C240.473 179.798 239.72 180.613 239.72 181.62V187.768Z" stroke="#18273C" stroke-width="3.33333" stroke-miterlimit="10" stroke-linecap="round" stroke-linejoin="round"/>
<path d="M231.817 187.701H235.362V181.62C235.362 180.645 234.634 179.864 233.747 179.864H233.432C232.545 179.864 231.817 180.645 231.817 181.62V187.701Z" fill="white" stroke="#18273C" stroke-width="0.133333"/>
<path d="M231.75 187.768H235.429V181.62C235.429 180.613 234.676 179.798 233.747 179.798H233.432C232.503 179.798 231.75 180.613 231.75 181.62V187.768Z" stroke="#18273C" stroke-width="3.33333" stroke-miterlimit="10" stroke-linecap="round" stroke-linejoin="round"/>
<path d="M266.017 199.963V192.126H257.567V199.963H266.017Z" fill="white" stroke="#18273C" stroke-width="0.133333"/>
<path d="M257.5 192.059H266.083V200.03H257.5V192.059Z" stroke="#18273C" stroke-width="3.33333" stroke-miterlimit="10" stroke-linecap="round" stroke-linejoin="round"/>
<path d="M262.471 92.6714H266.63V88.4108C266.63 87.4564 265.786 86.6738 264.734 86.6738H264.367C263.315 86.6738 262.471 87.4564 262.471 88.4108V92.6714Z" fill="white" stroke="#18273C" stroke-width="0.133333"/>
<path d="M262.405 92.738H266.696V88.4108C266.696 87.4144 265.818 86.6071 264.734 86.6071H264.367C263.283 86.6071 262.405 87.4144 262.405 88.4108V92.738Z" stroke="#18273C" stroke-width="3.33333" stroke-miterlimit="10" stroke-linecap="round" stroke-linejoin="round"/>
<path d="M254.501 92.6714H258.047V88.4108C258.047 87.4468 257.319 86.6738 256.431 86.6738H256.117C255.229 86.6738 254.501 87.4468 254.501 88.4102V92.6714Z" fill="white" stroke="#18273C" stroke-width="0.133333"/>
<path d="M254.435 92.738H258.113V88.4108C258.113 87.4144 257.36 86.6071 256.431 86.6071H256.117C255.188 86.6071 254.435 87.4144 254.435 88.4102V92.738Z" stroke="#18273C" stroke-width="3.33333" stroke-miterlimit="10" stroke-linecap="round" stroke-linejoin="round"/>
<path d="M237.948 92.6714H241.493V88.4108C241.493 87.4468 240.765 86.6738 239.878 86.6738H239.563C238.675 86.6738 237.948 87.4468 237.948 88.4102V92.6714Z" fill="white" stroke="#18273C" stroke-width="0.133333"/>
<path d="M237.881 92.738H241.559V88.4108C241.559 87.4144 240.806 86.6071 239.878 86.6071H239.563C238.634 86.6071 237.881 87.4144 237.881 88.4102V92.738Z" stroke="#18273C" stroke-width="3.33333" stroke-miterlimit="10" stroke-linecap="round" stroke-linejoin="round"/>
<path d="M172.213 199.963V31.495H141.079V199.963H172.213Z" fill="#85B8E6" stroke="#18273C" stroke-width="0.133333"/>
<path d="M168.668 31.495V199.963H172.213V31.495H168.668Z" fill="white" stroke="#18273C" stroke-width="0.133333"/>
<path d="M141.012 31.4283H172.28V200.03H141.012V31.4283Z" stroke="#18273C" stroke-width="3.33333" stroke-miterlimit="10" stroke-linecap="round" stroke-linejoin="round"/>
<path d="M117.781 55.1992V199.963H140.945V31.5915L117.781 55.1992Z" fill="#85B8E6" stroke="#18273C" stroke-width="0.133333"/>
<path d="M141.012 31.4283L117.714 55.1719V200.03H141.012V31.4283Z" stroke="#18273C" stroke-width="3.33333" stroke-miterlimit="10" stroke-linecap="round" stroke-linejoin="round"/>
<path d="M121.459 58.2621V199.963H136.654V42.6283L121.459 58.2621Z" fill="white" stroke="#18273C" stroke-width="0.133333"/>
<path d="M136.72 42.464L121.393 58.2351V200.03H136.72V42.464Z" stroke="#18273C" stroke-width="3.33333" stroke-miterlimit="10" stroke-linecap="round" stroke-linejoin="round"/>
<path d="M133.042 46.1426V200.03" stroke="#18273C" stroke-width="3.33333" stroke-miterlimit="10" stroke-linecap="round" stroke-linejoin="round"/>
<path d="M129.363 50.4343V200.03" stroke="#18273C" stroke-width="3.33333" stroke-miterlimit="10" stroke-linecap="round" stroke-linejoin="round"/>
<path d="M125.684 54.1129V200.03" stroke="#18273C" stroke-width="3.33333" stroke-miterlimit="10" stroke-linecap="round" stroke-linejoin="round"/>
<path d="M146.596 199.963H166.082V37.626H146.596V199.963Z" fill="white" stroke="#18273C" stroke-width="0.133333"/>
<path d="M146.53 200.03H166.149V37.5593H146.53V200.03Z" stroke="#18273C" stroke-width="3.33333" stroke-miterlimit="10" stroke-linecap="round" stroke-linejoin="round"/>
<path d="M166.149 43.6904H146.53" stroke="#18273C" stroke-width="3.33333" stroke-miterlimit="10" stroke-linecap="round" stroke-linejoin="round"/>
<path d="M166.149 49.2083H146.53" stroke="#18273C" stroke-width="3.33333" stroke-miterlimit="10" stroke-linecap="round" stroke-linejoin="round"/>
<path d="M166.149 55.3394H146.53" stroke="#18273C" stroke-width="3.33333" stroke-miterlimit="10" stroke-linecap="round" stroke-linejoin="round"/>
<path d="M166.149 61.4702H146.53" stroke="#18273C" stroke-width="3.33333" stroke-miterlimit="10" stroke-linecap="round" stroke-linejoin="round"/>
<path d="M166.149 66.988H146.53" stroke="#18273C" stroke-width="3.33333" stroke-miterlimit="10" stroke-linecap="round" stroke-linejoin="round"/>
<path d="M166.149 73.1191H146.53" stroke="#18273C" stroke-width="3.33333" stroke-miterlimit="10" stroke-linecap="round" stroke-linejoin="round"/>
<path d="M166.149 78.6367H146.53" stroke="#18273C" stroke-width="3.33333" stroke-miterlimit="10" stroke-linecap="round" stroke-linejoin="round"/>
<path d="M166.149 84.7678H146.53" stroke="#18273C" stroke-width="3.33333" stroke-miterlimit="10" stroke-linecap="round" stroke-linejoin="round"/>
<path d="M166.149 90.2856H146.53" stroke="#18273C" stroke-width="3.33333" stroke-miterlimit="10" stroke-linecap="round" stroke-linejoin="round"/>
<path d="M166.149 96.4165H146.53" stroke="#18273C" stroke-width="3.33333" stroke-miterlimit="10" stroke-linecap="round" stroke-linejoin="round"/>
<path d="M166.149 101.934H146.53" stroke="#18273C" stroke-width="3.33333" stroke-miterlimit="10" stroke-linecap="round" stroke-linejoin="round"/>
<path d="M166.149 108.065H146.53" stroke="#18273C" stroke-width="3.33333" stroke-miterlimit="10" stroke-linecap="round" stroke-linejoin="round"/>
<path d="M166.149 114.196H146.53" stroke="#18273C" stroke-width="3.33333" stroke-miterlimit="10" stroke-linecap="round" stroke-linejoin="round"/>
<path d="M166.149 119.714H146.53" stroke="#18273C" stroke-width="3.33333" stroke-miterlimit="10" stroke-linecap="round" stroke-linejoin="round"/>
<path d="M166.149 125.845H146.53" stroke="#18273C" stroke-width="3.33333" stroke-miterlimit="10" stroke-linecap="round" stroke-linejoin="round"/>
<path d="M166.149 131.363H146.53" stroke="#18273C" stroke-width="3.33333" stroke-miterlimit="10" stroke-linecap="round" stroke-linejoin="round"/>
<path d="M166.149 137.494H146.53" stroke="#18273C" stroke-width="3.33333" stroke-miterlimit="10" stroke-linecap="round" stroke-linejoin="round"/>
<path d="M166.149 143.012H146.53" stroke="#18273C" stroke-width="3.33333" stroke-miterlimit="10" stroke-linecap="round" stroke-linejoin="round"/>
<path d="M166.149 149.143H146.53" stroke="#18273C" stroke-width="3.33333" stroke-miterlimit="10" stroke-linecap="round" stroke-linejoin="round"/>
<path d="M166.149 154.661H146.53" stroke="#18273C" stroke-width="3.33333" stroke-miterlimit="10" stroke-linecap="round" stroke-linejoin="round"/>
<path d="M166.149 160.792H146.53" stroke="#18273C" stroke-width="3.33333" stroke-miterlimit="10" stroke-linecap="round" stroke-linejoin="round"/>
<path d="M166.149 166.922H146.53" stroke="#18273C" stroke-width="3.33333" stroke-miterlimit="10" stroke-linecap="round" stroke-linejoin="round"/>
<path d="M166.149 172.44H146.53" stroke="#18273C" stroke-width="3.33333" stroke-miterlimit="10" stroke-linecap="round" stroke-linejoin="round"/>
<path d="M166.149 178.572H146.53" stroke="#18273C" stroke-width="3.33333" stroke-miterlimit="10" stroke-linecap="round" stroke-linejoin="round"/>
<path d="M166.149 184.089H146.53" stroke="#18273C" stroke-width="3.33333" stroke-miterlimit="10" stroke-linecap="round" stroke-linejoin="round"/>
<path d="M166.149 190.22H146.53" stroke="#18273C" stroke-width="3.33333" stroke-miterlimit="10" stroke-linecap="round" stroke-linejoin="round"/>
<path d="M166.149 195.738H146.53" stroke="#18273C" stroke-width="3.33333" stroke-miterlimit="10" stroke-linecap="round" stroke-linejoin="round"/>
<path d="M168.668 76.8644V199.35H202.868V76.8644H168.668Z" fill="#00A2E0" stroke="#18273C" stroke-width="0.133333"/>
<path d="M202.934 199.417H168.601V76.7977H202.934V199.417Z" stroke="#18273C" stroke-width="3.33333" stroke-miterlimit="10" stroke-linecap="round" stroke-linejoin="round"/>
<path d="M203.001 76.8644V199.35H221.874V76.8644H203.001Z" fill="#00A2E0" stroke="#18273C" stroke-width="0.133333"/>
<path d="M217.716 199.35H221.874V76.8644H217.716V199.35Z" fill="white" stroke="#18273C" stroke-width="0.133333"/>
<path d="M221.94 199.417H202.934V76.7977H221.94V199.417Z" stroke="#18273C" stroke-width="3.33333" stroke-miterlimit="10" stroke-linecap="round" stroke-linejoin="round"/>
<path d="M202.868 73.1857H166.216V76.7309H202.868V73.1857Z" fill="white" stroke="#18273C" stroke-width="0.133333"/>
<path d="M202.935 73.119H166.149V76.7976H202.935V73.119Z" stroke="#18273C" stroke-width="3.33333" stroke-miterlimit="10" stroke-linecap="round" stroke-linejoin="round"/>
<path d="M163.15 68.8941V73.0525H202.868V68.8941H163.15Z" fill="white" stroke="#18273C" stroke-width="0.133333"/>
<path d="M202.934 73.1191H163.083V68.8275H202.934V73.1191Z" stroke="#18273C" stroke-width="3.33333" stroke-miterlimit="10" stroke-linecap="round" stroke-linejoin="round"/>
<path d="M224.939 76.7309V73.1857H203.001V76.7309H224.939Z" fill="white" stroke="#18273C" stroke-width="0.133333"/>
<path d="M202.934 73.119H225.006V76.7976H202.934V73.119Z" stroke="#18273C" stroke-width="3.33333" stroke-miterlimit="10" stroke-linecap="round" stroke-linejoin="round"/>
<path d="M203.001 73.0525H226.778V68.8941H203.001V73.0525Z" fill="white" stroke="#18273C" stroke-width="0.133333"/>
<path d="M202.934 73.1191H226.845V68.8275H202.934V73.1191Z" stroke="#18273C" stroke-width="3.33333" stroke-miterlimit="10" stroke-linecap="round" stroke-linejoin="round"/>
<path d="M173.573 82.382V93.8974H178.344V82.382H173.573Z" fill="white" stroke="#18273C" stroke-width="0.133333"/>
<path d="M178.411 93.9641H173.506V82.3153H178.411V93.9641Z" stroke="#18273C" stroke-width="3.33333" stroke-miterlimit="10" stroke-linecap="round" stroke-linejoin="round"/>
<path d="M183.382 82.382V93.8974H188.154V82.382H183.382Z" fill="white" stroke="#18273C" stroke-width="0.133333"/>
<path d="M188.22 93.9641H183.316V82.3153H188.22V93.9641Z" stroke="#18273C" stroke-width="3.33333" stroke-miterlimit="10" stroke-linecap="round" stroke-linejoin="round"/>
<path d="M193.192 82.382V93.8974H197.963V82.382H193.192Z" fill="white" stroke="#18273C" stroke-width="0.133333"/>
<path d="M198.03 93.9641H193.125V82.3153H198.03V93.9641Z" stroke="#18273C" stroke-width="3.33333" stroke-miterlimit="10" stroke-linecap="round" stroke-linejoin="round"/>
<path d="M209.745 82.382V93.8974H214.517V82.382H209.745Z" fill="white" stroke="#18273C" stroke-width="0.133333"/>
<path d="M214.583 93.9641H209.679V82.3153H214.583V93.9641Z" stroke="#18273C" stroke-width="3.33333" stroke-miterlimit="10" stroke-linecap="round" stroke-linejoin="round"/>
<path d="M173.573 101.388V112.904H178.344V101.388H173.573Z" fill="white" stroke="#18273C" stroke-width="0.133333"/>
<path d="M178.411 112.97H173.506V101.321H178.411V112.97Z" stroke="#18273C" stroke-width="3.33333" stroke-miterlimit="10" stroke-linecap="round" stroke-linejoin="round"/>
<path d="M183.382 101.388V112.904H188.154V101.388H183.382Z" fill="white" stroke="#18273C" stroke-width="0.133333"/>
<path d="M188.22 112.97H183.316V101.321H188.22V112.97Z" stroke="#18273C" stroke-width="3.33333" stroke-miterlimit="10" stroke-linecap="round" stroke-linejoin="round"/>
<path d="M193.192 101.388V112.904H197.963V101.388H193.192Z" fill="white" stroke="#18273C" stroke-width="0.133333"/>
<path d="M198.03 112.97H193.125V101.321H198.03V112.97Z" stroke="#18273C" stroke-width="3.33333" stroke-miterlimit="10" stroke-linecap="round" stroke-linejoin="round"/>
<path d="M209.745 101.388V112.904H214.517V101.388H209.745Z" fill="white" stroke="#18273C" stroke-width="0.133333"/>
<path d="M214.583 112.97H209.679V101.321H214.583V112.97Z" stroke="#18273C" stroke-width="3.33333" stroke-miterlimit="10" stroke-linecap="round" stroke-linejoin="round"/>
<path d="M173.573 121.007V132.522H178.344V121.007H173.573Z" fill="white" stroke="#18273C" stroke-width="0.133333"/>
<path d="M178.411 132.589H173.506V120.94H178.411V132.589Z" stroke="#18273C" stroke-width="3.33333" stroke-miterlimit="10" stroke-linecap="round" stroke-linejoin="round"/>
<path d="M183.382 121.007V132.522H188.154V121.007H183.382Z" fill="white" stroke="#18273C" stroke-width="0.133333"/>
<path d="M188.22 132.589H183.316V120.94H188.22V132.589Z" stroke="#18273C" stroke-width="3.33333" stroke-miterlimit="10" stroke-linecap="round" stroke-linejoin="round"/>
<path d="M193.192 121.007V132.522H197.963V121.007H193.192Z" fill="white" stroke="#18273C" stroke-width="0.133333"/>
<path d="M198.03 132.589H193.125V120.94H198.03V132.589Z" stroke="#18273C" stroke-width="3.33333" stroke-miterlimit="10" stroke-linecap="round" stroke-linejoin="round"/>
<path d="M209.745 121.007V132.522H214.517V121.007H209.745Z" fill="white" stroke="#18273C" stroke-width="0.133333"/>
<path d="M214.583 132.589H209.679V120.94H214.583V132.589Z" stroke="#18273C" stroke-width="3.33333" stroke-miterlimit="10" stroke-linecap="round" stroke-linejoin="round"/>
<path d="M173.573 140.013V151.528H178.344V140.013H173.573Z" fill="white" stroke="#18273C" stroke-width="0.133333"/>
<path d="M178.411 151.595H173.506V139.946H178.411V151.595Z" stroke="#18273C" stroke-width="3.33333" stroke-miterlimit="10" stroke-linecap="round" stroke-linejoin="round"/>
<path d="M183.382 140.013V151.528H188.154V140.013H183.382Z" fill="white" stroke="#18273C" stroke-width="0.133333"/>
<path d="M188.22 151.595H183.316V139.946H188.22V151.595Z" stroke="#18273C" stroke-width="3.33333" stroke-miterlimit="10" stroke-linecap="round" stroke-linejoin="round"/>
<path d="M193.192 140.013V151.528H197.963V140.013H193.192Z" fill="white" stroke="#18273C" stroke-width="0.133333"/>
<path d="M198.03 151.595H193.125V139.946H198.03V151.595Z" stroke="#18273C" stroke-width="3.33333" stroke-miterlimit="10" stroke-linecap="round" stroke-linejoin="round"/>
<path d="M209.745 140.013V151.528H214.517V140.013H209.745Z" fill="white" stroke="#18273C" stroke-width="0.133333"/>
<path d="M214.583 151.595H209.679V139.946H214.583V151.595Z" stroke="#18273C" stroke-width="3.33333" stroke-miterlimit="10" stroke-linecap="round" stroke-linejoin="round"/>
<path d="M173.573 159.632V170.534H178.344V159.632H173.573Z" fill="white" stroke="#18273C" stroke-width="0.133333"/>
<path d="M178.411 170.601H173.506V159.565H178.411V170.601Z" stroke="#18273C" stroke-width="3.33333" stroke-miterlimit="10" stroke-linecap="round" stroke-linejoin="round"/>
<path d="M183.382 159.632V170.534H188.154V159.632H183.382Z" fill="white" stroke="#18273C" stroke-width="0.133333"/>
<path d="M188.22 170.601H183.316V159.565H188.22V170.601Z" stroke="#18273C" stroke-width="3.33333" stroke-miterlimit="10" stroke-linecap="round" stroke-linejoin="round"/>
<path d="M193.192 159.632V170.534H197.963V159.632H193.192Z" fill="white" stroke="#18273C" stroke-width="0.133333"/>
<path d="M198.03 170.601H193.125V159.565H198.03V170.601Z" stroke="#18273C" stroke-width="3.33333" stroke-miterlimit="10" stroke-linecap="round" stroke-linejoin="round"/>
<path d="M209.745 159.632V170.534H214.517V159.632H209.745Z" fill="white" stroke="#18273C" stroke-width="0.133333"/>
<path d="M214.583 170.601H209.679V159.565H214.583V170.601Z" stroke="#18273C" stroke-width="3.33333" stroke-miterlimit="10" stroke-linecap="round" stroke-linejoin="round"/>
<path d="M173.573 178.638V190.154H178.344V178.638H173.573Z" fill="white" stroke="#18273C" stroke-width="0.133333"/>
<path d="M178.411 190.22H173.506V178.571H178.411V190.22Z" stroke="#18273C" stroke-width="3.33333" stroke-miterlimit="10" stroke-linecap="round" stroke-linejoin="round"/>
<path d="M193.192 178.638V190.154H197.963V178.638H193.192Z" fill="white" stroke="#18273C" stroke-width="0.133333"/>
<path d="M198.03 190.22H193.125V178.571H198.03V190.22Z" stroke="#18273C" stroke-width="3.33333" stroke-miterlimit="10" stroke-linecap="round" stroke-linejoin="round"/>
<path d="M209.745 178.638V190.154H214.517V178.638H209.745Z" fill="white" stroke="#18273C" stroke-width="0.133333"/>
<path d="M214.583 190.22H209.679V178.571H214.583V190.22Z" stroke="#18273C" stroke-width="3.33333" stroke-miterlimit="10" stroke-linecap="round" stroke-linejoin="round"/>
<path d="M182.769 178.638V199.963H188.767V178.638H182.769Z" fill="#17282F" stroke="#18273C" stroke-width="0.133333"/>
<path d="M168.601 97.6428H221.94" stroke="#18273C" stroke-width="3.33333" stroke-miterlimit="10" stroke-linecap="round" stroke-linejoin="round"/>
<path d="M168.601 117.262H221.94" stroke="#18273C" stroke-width="3.33333" stroke-miterlimit="10" stroke-linecap="round" stroke-linejoin="round"/>
<path d="M168.601 136.268H221.94" stroke="#18273C" stroke-width="3.33333" stroke-miterlimit="10" stroke-linecap="round" stroke-linejoin="round"/>
<path d="M168.601 155.274H221.94" stroke="#18273C" stroke-width="3.33333" stroke-miterlimit="10" stroke-linecap="round" stroke-linejoin="round"/>
<path d="M168.601 174.893H221.94" stroke="#18273C" stroke-width="3.33333" stroke-miterlimit="10" stroke-linecap="round" stroke-linejoin="round"/>
<path d="M111.517 56.6319H79.7691V199.963H111.517V56.6319Z" fill="#00A2E0" stroke="#18273C" stroke-width="0.133333"/>
<path d="M111.583 56.5652H79.7024V200.03H111.583V56.5652Z" stroke="#18273C" stroke-width="3.33333" stroke-miterlimit="10" stroke-linecap="round" stroke-linejoin="round"/>
<path d="M126.844 199.963V56.6319H111.65V199.963H126.844Z" fill="#00A2E0" stroke="#18273C" stroke-width="0.133333"/>
<path d="M123.299 199.35H126.844V56.6322H123.299V199.35Z" fill="white" stroke="#18273C" stroke-width="0.133333"/>
<path d="M111.583 56.5652H126.911V200.03H111.583V56.5652Z" stroke="#18273C" stroke-width="3.33333" stroke-miterlimit="10" stroke-linecap="round" stroke-linejoin="round"/>
<path d="M83.4476 62.1498V66.3081H107.225V62.1498H83.4476Z" fill="white" stroke="#18273C" stroke-width="0.133333"/>
<path d="M107.292 66.3748H83.381V62.0831H107.292V66.3748Z" stroke="#18273C" stroke-width="3.33333" stroke-miterlimit="10" stroke-linecap="round" stroke-linejoin="round"/>
<path d="M83.4476 70.7333V74.8916H107.225V70.7333H83.4476Z" fill="white" stroke="#18273C" stroke-width="0.133333"/>
<path d="M107.292 74.9583H83.381V70.6666H107.292V74.9583Z" stroke="#18273C" stroke-width="3.33333" stroke-miterlimit="10" stroke-linecap="round" stroke-linejoin="round"/>
<path d="M83.4476 79.3163V82.8616H107.225V79.3163H83.4476Z" fill="white" stroke="#18273C" stroke-width="0.133333"/>
<path d="M107.292 82.9282H83.381V79.2497H107.292V82.9282Z" stroke="#18273C" stroke-width="3.33333" stroke-miterlimit="10" stroke-linecap="round" stroke-linejoin="round"/>
<path d="M83.4476 87.8998V91.4451H107.225V87.8998H83.4476Z" fill="white" stroke="#18273C" stroke-width="0.133333"/>
<path d="M107.292 91.5117H83.381V87.8331H107.292V91.5117Z" stroke="#18273C" stroke-width="3.33333" stroke-miterlimit="10" stroke-linecap="round" stroke-linejoin="round"/>
<path d="M83.4476 96.4833V100.029H107.225V96.4833H83.4476Z" fill="white" stroke="#18273C" stroke-width="0.133333"/>
<path d="M107.292 100.095H83.381V96.4166H107.292V100.095Z" stroke="#18273C" stroke-width="3.33333" stroke-miterlimit="10" stroke-linecap="round" stroke-linejoin="round"/>
<path d="M83.4476 104.454V108.612H107.225V104.454H83.4476Z" fill="white" stroke="#18273C" stroke-width="0.133333"/>
<path d="M107.292 108.679H83.381V104.387H107.292V108.679Z" stroke="#18273C" stroke-width="3.33333" stroke-miterlimit="10" stroke-linecap="round" stroke-linejoin="round"/>
<path d="M83.4476 113.037V117.195H107.225V113.037H83.4476Z" fill="white" stroke="#18273C" stroke-width="0.133333"/>
<path d="M107.292 117.262H83.381V112.97H107.292V117.262Z" stroke="#18273C" stroke-width="3.33333" stroke-miterlimit="10" stroke-linecap="round" stroke-linejoin="round"/>
<path d="M83.4476 121.62V125.779H107.225V121.62H83.4476Z" fill="white" stroke="#18273C" stroke-width="0.133333"/>
<path d="M107.292 125.845H83.381V121.554H107.292V125.845Z" stroke="#18273C" stroke-width="3.33333" stroke-miterlimit="10" stroke-linecap="round" stroke-linejoin="round"/>
<path d="M83.4476 130.203V133.749H107.225V130.203H83.4476Z" fill="white" stroke="#18273C" stroke-width="0.133333"/>
<path d="M107.292 133.815H83.381V130.137H107.292V133.815Z" stroke="#18273C" stroke-width="3.33333" stroke-miterlimit="10" stroke-linecap="round" stroke-linejoin="round"/>
<path d="M83.4476 138.787V142.332H107.225V138.787H83.4476Z" fill="white" stroke="#18273C" stroke-width="0.133333"/>
<path d="M107.292 142.399H83.381V138.72H107.292V142.399Z" stroke="#18273C" stroke-width="3.33333" stroke-miterlimit="10" stroke-linecap="round" stroke-linejoin="round"/>
<path d="M83.4476 147.37V150.916H107.225V147.37H83.4476Z" fill="white" stroke="#18273C" stroke-width="0.133333"/>
<path d="M107.292 150.982H83.381V147.304H107.292V150.982Z" stroke="#18273C" stroke-width="3.33333" stroke-miterlimit="10" stroke-linecap="round" stroke-linejoin="round"/>
<path d="M83.4476 155.34V159.499H107.225V155.34H83.4476Z" fill="white" stroke="#18273C" stroke-width="0.133333"/>
<path d="M107.292 159.565H83.381V155.274H107.292V159.565Z" stroke="#18273C" stroke-width="3.33333" stroke-miterlimit="10" stroke-linecap="round" stroke-linejoin="round"/>
<path d="M115.942 62.1498V66.3081H126.844V62.1498H115.942Z" fill="#17282F" stroke="#18273C" stroke-width="0.133333"/>
<path d="M126.911 66.3748H115.875V62.0831H126.911V66.3748Z" stroke="#18273C" stroke-width="3.33333" stroke-miterlimit="10" stroke-linecap="round" stroke-linejoin="round"/>
<path d="M115.942 70.7333V74.8916H126.844V70.7333H115.942Z" fill="#17282F" stroke="#18273C" stroke-width="0.133333"/>
<path d="M126.911 74.9583H115.875V70.6666H126.911V74.9583Z" stroke="#18273C" stroke-width="3.33333" stroke-miterlimit="10" stroke-linecap="round" stroke-linejoin="round"/>
<path d="M115.942 79.3163V82.8616H126.844V79.3163H115.942Z" fill="#17282F" stroke="#18273C" stroke-width="0.133333"/>
<path d="M126.911 82.9282H115.875V79.2497H126.911V82.9282Z" stroke="#18273C" stroke-width="3.33333" stroke-miterlimit="10" stroke-linecap="round" stroke-linejoin="round"/>
<path d="M115.942 87.8998V91.4451H126.844V87.8998H115.942Z" fill="#17282F" stroke="#18273C" stroke-width="0.133333"/>
<path d="M126.911 91.5117H115.875V87.8331H126.911V91.5117Z" stroke="#18273C" stroke-width="3.33333" stroke-miterlimit="10" stroke-linecap="round" stroke-linejoin="round"/>
<path d="M115.942 96.4833V100.029H126.844V96.4833H115.942Z" fill="#17282F" stroke="#18273C" stroke-width="0.133333"/>
<path d="M126.911 100.095H115.875V96.4166H126.911V100.095Z" stroke="#18273C" stroke-width="3.33333" stroke-miterlimit="10" stroke-linecap="round" stroke-linejoin="round"/>
<path d="M115.942 104.454V108.612H126.844V104.454H115.942Z" fill="#17282F" stroke="#18273C" stroke-width="0.133333"/>
<path d="M126.911 108.679H115.875V104.387H126.911V108.679Z" stroke="#18273C" stroke-width="3.33333" stroke-miterlimit="10" stroke-linecap="round" stroke-linejoin="round"/>
<path d="M115.942 113.037V117.195H126.844V113.037H115.942Z" fill="#17282F" stroke="#18273C" stroke-width="0.133333"/>
<path d="M126.911 117.262H115.875V112.97H126.911V117.262Z" stroke="#18273C" stroke-width="3.33333" stroke-miterlimit="10" stroke-linecap="round" stroke-linejoin="round"/>
<path d="M115.942 121.62V125.779H126.844V121.62H115.942Z" fill="#17282F" stroke="#18273C" stroke-width="0.133333"/>
<path d="M126.911 125.845H115.875V121.554H126.911V125.845Z" stroke="#18273C" stroke-width="3.33333" stroke-miterlimit="10" stroke-linecap="round" stroke-linejoin="round"/>
<path d="M115.942 130.203V133.749H126.844V130.203H115.942Z" fill="#17282F" stroke="#18273C" stroke-width="0.133333"/>
<path d="M126.911 133.815H115.875V130.137H126.911V133.815Z" stroke="#18273C" stroke-width="3.33333" stroke-miterlimit="10" stroke-linecap="round" stroke-linejoin="round"/>
<path d="M115.942 138.787V142.332H126.844V138.787H115.942Z" fill="#17282F" stroke="#18273C" stroke-width="0.133333"/>
<path d="M126.911 142.399H115.875V138.72H126.911V142.399Z" stroke="#18273C" stroke-width="3.33333" stroke-miterlimit="10" stroke-linecap="round" stroke-linejoin="round"/>
<path d="M115.942 147.37V150.916H126.844V147.37H115.942Z" fill="#17282F" stroke="#18273C" stroke-width="0.133333"/>
<path d="M126.911 150.982H115.875V147.304H126.911V150.982Z" stroke="#18273C" stroke-width="3.33333" stroke-miterlimit="10" stroke-linecap="round" stroke-linejoin="round"/>
<path d="M115.942 155.34V159.499H126.844V155.34H115.942Z" fill="#17282F" stroke="#18273C" stroke-width="0.133333"/>
<path d="M126.911 159.565H115.875V155.274H126.911V159.565Z" stroke="#18273C" stroke-width="3.33333" stroke-miterlimit="10" stroke-linecap="round" stroke-linejoin="round"/>
<path d="M83.4476 163.924V168.082H107.225V163.924H83.4476Z" fill="white" stroke="#18273C" stroke-width="0.133333"/>
<path d="M107.292 168.149H83.381V163.857H107.292V168.149Z" stroke="#18273C" stroke-width="3.33333" stroke-miterlimit="10" stroke-linecap="round" stroke-linejoin="round"/>
<path d="M115.942 163.924V168.082H126.844V163.924H115.942Z" fill="#17282F" stroke="#18273C" stroke-width="0.133333"/>
<path d="M126.911 168.149H115.875V163.857H126.911V168.149Z" stroke="#18273C" stroke-width="3.33333" stroke-miterlimit="10" stroke-linecap="round" stroke-linejoin="round"/>
<path d="M83.4476 172.507V176.666H107.225V172.507H83.4476Z" fill="white" stroke="#18273C" stroke-width="0.133333"/>
<path d="M107.292 176.732H83.381V172.441H107.292V176.732Z" stroke="#18273C" stroke-width="3.33333" stroke-miterlimit="10" stroke-linecap="round" stroke-linejoin="round"/>
<path d="M115.942 172.507V176.666H126.844V172.507H115.942Z" fill="#17282F" stroke="#18273C" stroke-width="0.133333"/>
<path d="M126.911 176.732H115.875V172.441H126.911V176.732Z" stroke="#18273C" stroke-width="3.33333" stroke-miterlimit="10" stroke-linecap="round" stroke-linejoin="round"/>
<path d="M83.4476 181.09V184.635H107.225V181.09H83.4476Z" fill="white" stroke="#18273C" stroke-width="0.133333"/>
<path d="M107.292 184.702H83.381V181.024H107.292V184.702Z" stroke="#18273C" stroke-width="3.33333" stroke-miterlimit="10" stroke-linecap="round" stroke-linejoin="round"/>
<path d="M115.942 181.09V184.635H126.844V181.09H115.942Z" fill="#17282F" stroke="#18273C" stroke-width="0.133333"/>
<path d="M126.911 184.702H115.875V181.024H126.911V184.702Z" stroke="#18273C" stroke-width="3.33333" stroke-miterlimit="10" stroke-linecap="round" stroke-linejoin="round"/>
<path d="M34.4 96.4831V199.963H64.9215V96.4831H34.4Z" fill="#85B8E6" stroke="#18273C" stroke-width="0.133333"/>
<path d="M64.9881 200.03H34.3334V96.4164H64.9881V200.03Z" stroke="#18273C" stroke-width="3.33333" stroke-miterlimit="10" stroke-linecap="round" stroke-linejoin="round"/>
<path d="M65.0548 96.4831V199.963H85.7667V96.4831H65.0548Z" fill="#85B8E6" stroke="#18273C" stroke-width="0.133333"/>
<path d="M81.6084 199.963H85.7667V96.4831H81.6084V199.963Z" fill="white" stroke="#18273C" stroke-width="0.133333"/>
<path d="M85.8334 200.03H64.9882V96.4164H85.8334V200.03Z" stroke="#18273C" stroke-width="3.33333" stroke-miterlimit="10" stroke-linecap="round" stroke-linejoin="round"/>
<path d="M64.9215 91.5784H31.9476V96.3498H64.9215V91.5784Z" fill="white" stroke="#18273C" stroke-width="0.133333"/>
<path d="M64.9881 91.5117H31.881V96.4165H64.9881V91.5117Z" stroke="#18273C" stroke-width="3.33333" stroke-miterlimit="10" stroke-linecap="round" stroke-linejoin="round"/>
<path d="M87.606 96.3498V91.5784H65.0548V96.3498H87.606Z" fill="white" stroke="#18273C" stroke-width="0.133333"/>
<path d="M64.9882 91.5117H87.6727V96.4165H64.9882V91.5117Z" stroke="#18273C" stroke-width="3.33333" stroke-miterlimit="10" stroke-linecap="round" stroke-linejoin="round"/>
<path d="M54.4987 184.769H44.8225V199.963H54.4987V184.769Z" fill="#17282F" stroke="#18273C" stroke-width="0.133333"/>
<path d="M54.5654 184.702H44.7559V200.03H54.5654V184.702Z" stroke="#18273C" stroke-width="3.33333" stroke-miterlimit="10" stroke-linecap="round" stroke-linejoin="round"/>
<path d="M45.3024 76.8641H39.3048V91.4451H45.3024V76.8641Z" fill="#00A2E0" stroke="#18273C" stroke-width="0.133333"/>
<path d="M45.3691 76.7974H39.2382V91.5117H45.3691V76.7974Z" stroke="#18273C" stroke-width="3.33333" stroke-miterlimit="10" stroke-linecap="round" stroke-linejoin="round"/>
<path d="M53.2727 81.1558H48.5012V91.4451H53.2727V81.1558Z" fill="#00A2E0" stroke="#18273C" stroke-width="0.133333"/>
<path d="M53.3393 81.0891H48.4346V91.5117H53.3393V81.0891Z" stroke="#18273C" stroke-width="3.33333" stroke-miterlimit="10" stroke-linecap="round" stroke-linejoin="round"/>
<path d="M39.9177 102.614V113.516H45.3023V102.614H39.9177Z" fill="white" stroke="#18273C" stroke-width="0.133333"/>
<path d="M45.3689 113.583H39.8511V102.547H45.3689V113.583Z" stroke="#18273C" stroke-width="3.33333" stroke-miterlimit="10" stroke-linecap="round" stroke-linejoin="round"/>
<path d="M38.6918 113.65V115.969H47.1418V113.65H38.6918Z" fill="white" stroke="#18273C" stroke-width="0.133333"/>
<path d="M47.2085 116.035H38.6251V113.583H47.2085V116.035Z" stroke="#18273C" stroke-width="3.33333" stroke-miterlimit="10" stroke-linecap="round" stroke-linejoin="round"/>
<path d="M39.8511 108.065H45.3689" stroke="#18273C" stroke-width="3.33333" stroke-miterlimit="10" stroke-linecap="round" stroke-linejoin="round"/>
<path d="M54.0189 102.614V113.516H59.4035V102.614H54.0189Z" fill="white" stroke="#18273C" stroke-width="0.133333"/>
<path d="M59.4701 113.583H53.9523V102.547H59.4701V113.583Z" stroke="#18273C" stroke-width="3.33333" stroke-miterlimit="10" stroke-linecap="round" stroke-linejoin="round"/>
<path d="M52.7927 113.65V115.969H61.2427V113.65H52.7927Z" fill="white" stroke="#18273C" stroke-width="0.133333"/>
<path d="M61.3094 116.035H52.7261V113.583H61.3094V116.035Z" stroke="#18273C" stroke-width="3.33333" stroke-miterlimit="10" stroke-linecap="round" stroke-linejoin="round"/>
<path d="M53.9523 108.065H59.4701" stroke="#18273C" stroke-width="3.33333" stroke-miterlimit="10" stroke-linecap="round" stroke-linejoin="round"/>
<path d="M39.9177 122.846V133.749H45.3023V122.846H39.9177Z" fill="white" stroke="#18273C" stroke-width="0.133333"/>
<path d="M45.3689 133.815H39.8511V122.779H45.3689V133.815Z" stroke="#18273C" stroke-width="3.33333" stroke-miterlimit="10" stroke-linecap="round" stroke-linejoin="round"/>
<path d="M38.6918 133.882V136.201H47.1418V133.882H38.6918Z" fill="white" stroke="#18273C" stroke-width="0.133333"/>
<path d="M47.2085 136.268H38.6251V133.815H47.2085V136.268Z" stroke="#18273C" stroke-width="3.33333" stroke-miterlimit="10" stroke-linecap="round" stroke-linejoin="round"/>
<path d="M39.8511 128.298H45.3689" stroke="#18273C" stroke-width="3.33333" stroke-miterlimit="10" stroke-linecap="round" stroke-linejoin="round"/>
<path d="M54.0189 122.846V133.749H59.4035V122.846H54.0189Z" fill="white" stroke="#18273C" stroke-width="0.133333"/>
<path d="M59.4701 133.815H53.9523V122.779H59.4701V133.815Z" stroke="#18273C" stroke-width="3.33333" stroke-miterlimit="10" stroke-linecap="round" stroke-linejoin="round"/>
<path d="M52.7927 133.882V136.201H61.2427V133.882H52.7927Z" fill="white" stroke="#18273C" stroke-width="0.133333"/>
<path d="M61.3094 136.268H52.7261V133.815H61.3094V136.268Z" stroke="#18273C" stroke-width="3.33333" stroke-miterlimit="10" stroke-linecap="round" stroke-linejoin="round"/>
<path d="M53.9523 128.298H59.4701" stroke="#18273C" stroke-width="3.33333" stroke-miterlimit="10" stroke-linecap="round" stroke-linejoin="round"/>
<path d="M39.9177 143.078V153.981H45.3023V143.078H39.9177Z" fill="white" stroke="#18273C" stroke-width="0.133333"/>
<path d="M45.3689 154.047H39.8511V143.012H45.3689V154.047Z" stroke="#18273C" stroke-width="3.33333" stroke-miterlimit="10" stroke-linecap="round" stroke-linejoin="round"/>
<path d="M38.6918 154.114V156.433H47.1418V154.114H38.6918Z" fill="white" stroke="#18273C" stroke-width="0.133333"/>
<path d="M47.2085 156.5H38.6251V154.048H47.2085V156.5Z" stroke="#18273C" stroke-width="3.33333" stroke-miterlimit="10" stroke-linecap="round" stroke-linejoin="round"/>
<path d="M39.8511 148.53H45.3689" stroke="#18273C" stroke-width="3.33333" stroke-miterlimit="10" stroke-linecap="round" stroke-linejoin="round"/>
<path d="M54.0189 143.078V153.981H59.4035V143.078H54.0189Z" fill="white" stroke="#18273C" stroke-width="0.133333"/>
<path d="M59.4701 154.047H53.9523V143.012H59.4701V154.047Z" stroke="#18273C" stroke-width="3.33333" stroke-miterlimit="10" stroke-linecap="round" stroke-linejoin="round"/>
<path d="M52.7927 154.114V156.433H61.2427V154.114H52.7927Z" fill="white" stroke="#18273C" stroke-width="0.133333"/>
<path d="M61.3094 156.5H52.7261V154.048H61.3094V156.5Z" stroke="#18273C" stroke-width="3.33333" stroke-miterlimit="10" stroke-linecap="round" stroke-linejoin="round"/>
<path d="M53.9523 148.53H59.4701" stroke="#18273C" stroke-width="3.33333" stroke-miterlimit="10" stroke-linecap="round" stroke-linejoin="round"/>
<path d="M39.9177 163.311V174.213H45.3023V163.311H39.9177Z" fill="white" stroke="#18273C" stroke-width="0.133333"/>
<path d="M45.3689 174.28H39.8511V163.244H45.3689V174.28Z" stroke="#18273C" stroke-width="3.33333" stroke-miterlimit="10" stroke-linecap="round" stroke-linejoin="round"/>
<path d="M38.6918 174.346V176.666H47.1418V174.346H38.6918Z" fill="white" stroke="#18273C" stroke-width="0.133333"/>
<path d="M47.2085 176.732H38.6251V174.28H47.2085V176.732Z" stroke="#18273C" stroke-width="3.33333" stroke-miterlimit="10" stroke-linecap="round" stroke-linejoin="round"/>
<path d="M39.8511 168.762H45.3689" stroke="#18273C" stroke-width="3.33333" stroke-miterlimit="10" stroke-linecap="round" stroke-linejoin="round"/>
<path d="M73.638 102.614V113.516H79.6356V102.614H73.638Z" fill="white" stroke="#18273C" stroke-width="0.133333"/>
<path d="M79.7022 113.583H73.5713V102.547H79.7022V113.583Z" stroke="#18273C" stroke-width="3.33333" stroke-miterlimit="10" stroke-linecap="round" stroke-linejoin="round"/>
<path d="M72.4118 113.65V115.969H80.8618V113.65H72.4118Z" fill="white" stroke="#18273C" stroke-width="0.133333"/>
<path d="M80.9284 116.035H72.3451V113.583H80.9284V116.035Z" stroke="#18273C" stroke-width="3.33333" stroke-miterlimit="10" stroke-linecap="round" stroke-linejoin="round"/>
<path d="M73.5713 108.065H79.7022" stroke="#18273C" stroke-width="3.33333" stroke-miterlimit="10" stroke-linecap="round" stroke-linejoin="round"/>
<path d="M73.638 122.846V133.749H79.6356V122.846H73.638Z" fill="white" stroke="#18273C" stroke-width="0.133333"/>
<path d="M79.7022 133.815H73.5713V122.779H79.7022V133.815Z" stroke="#18273C" stroke-width="3.33333" stroke-miterlimit="10" stroke-linecap="round" stroke-linejoin="round"/>
<path d="M72.4118 133.882V136.201H80.8618V133.882H72.4118Z" fill="white" stroke="#18273C" stroke-width="0.133333"/>
<path d="M80.9284 136.268H72.3451V133.815H80.9284V136.268Z" stroke="#18273C" stroke-width="3.33333" stroke-miterlimit="10" stroke-linecap="round" stroke-linejoin="round"/>
<path d="M73.5713 128.298H79.7022" stroke="#18273C" stroke-width="3.33333" stroke-miterlimit="10" stroke-linecap="round" stroke-linejoin="round"/>
<path d="M73.638 143.078V153.981H79.6356V143.078H73.638Z" fill="white" stroke="#18273C" stroke-width="0.133333"/>
<path d="M79.7022 154.047H73.5713V143.012H79.7022V154.047Z" stroke="#18273C" stroke-width="3.33333" stroke-miterlimit="10" stroke-linecap="round" stroke-linejoin="round"/>
<path d="M72.4118 154.114V156.433H80.8618V154.114H72.4118Z" fill="white" stroke="#18273C" stroke-width="0.133333"/>
<path d="M80.9284 156.5H72.3451V154.048H80.9284V156.5Z" stroke="#18273C" stroke-width="3.33333" stroke-miterlimit="10" stroke-linecap="round" stroke-linejoin="round"/>
<path d="M73.5713 148.53H79.7022" stroke="#18273C" stroke-width="3.33333" stroke-miterlimit="10" stroke-linecap="round" stroke-linejoin="round"/>
<path d="M73.638 163.311V174.213H79.6356V163.311H73.638Z" fill="white" stroke="#18273C" stroke-width="0.133333"/>
<path d="M79.7022 174.28H73.5713V163.244H79.7022V174.28Z" stroke="#18273C" stroke-width="3.33333" stroke-miterlimit="10" stroke-linecap="round" stroke-linejoin="round"/>
<path d="M72.4118 174.346V176.666H80.8618V174.346H72.4118Z" fill="white" stroke="#18273C" stroke-width="0.133333"/>
<path d="M80.9284 176.732H72.3451V174.28H80.9284V176.732Z" stroke="#18273C" stroke-width="3.33333" stroke-miterlimit="10" stroke-linecap="round" stroke-linejoin="round"/>
<path d="M73.5713 168.762H79.7022" stroke="#18273C" stroke-width="3.33333" stroke-miterlimit="10" stroke-linecap="round" stroke-linejoin="round"/>
<path d="M73.638 183.543V194.445H79.6356V183.543H73.638Z" fill="white" stroke="#18273C" stroke-width="0.133333"/>
<path d="M79.7022 194.512H73.5713V183.476H79.7022V194.512Z" stroke="#18273C" stroke-width="3.33333" stroke-miterlimit="10" stroke-linecap="round" stroke-linejoin="round"/>
<path d="M72.4118 194.579V196.898H80.8618V194.579H72.4118Z" fill="white" stroke="#18273C" stroke-width="0.133333"/>
<path d="M80.9284 196.964H72.3451V194.512H80.9284V196.964Z" stroke="#18273C" stroke-width="3.33333" stroke-miterlimit="10" stroke-linecap="round" stroke-linejoin="round"/>
<path d="M73.5713 188.994H79.7022" stroke="#18273C" stroke-width="3.33333" stroke-miterlimit="10" stroke-linecap="round" stroke-linejoin="round"/>
<path d="M54.0189 163.311V174.213H59.4035V163.311H54.0189Z" fill="white" stroke="#18273C" stroke-width="0.133333"/>
<path d="M59.4701 174.28H53.9523V163.244H59.4701V174.28Z" stroke="#18273C" stroke-width="3.33333" stroke-miterlimit="10" stroke-linecap="round" stroke-linejoin="round"/>
<path d="M52.7927 174.346V176.666H61.2427V174.346H52.7927Z" fill="white" stroke="#18273C" stroke-width="0.133333"/>
<path d="M61.3094 176.732H52.7261V174.28H61.3094V176.732Z" stroke="#18273C" stroke-width="3.33333" stroke-miterlimit="10" stroke-linecap="round" stroke-linejoin="round"/>
<path d="M53.9523 168.762H59.4701" stroke="#18273C" stroke-width="3.33333" stroke-miterlimit="10" stroke-linecap="round" stroke-linejoin="round"/>
<mask id="path-577-inside-1_64_13051" fill="white">
<path d="M0 207.387V103.116H7.58623L14.2166 91.5117L21.1987 103.116H27.3732V191.252H32.1249V155.232L45.8088 145.682L59.4986 155.232V178.275H64.4147V125.56H70.5235V108.866H86.5147V125.56H91.7878V176.139H98.6162V159.406L121.864 149.746L143.827 161.537V199.946H151.056V166.549H168.64V144.126H172.799V139.573H189.367V144.126H193.53V176.687H239.702V199.946H265.004V160.927H269.882V156.094H294.668V160.927H298.293V137.181L326.364 128.696V197.798H337.703V122.512H358.374V190.429L365.801 190.418V119.13L389.104 98.9809L412 119.102V207.387"/>
</mask>
<path d="M0 207.387V103.116H7.58623L14.2166 91.5117L21.1987 103.116H27.3732V191.252H32.1249V155.232L45.8088 145.682L59.4986 155.232V178.275H64.4147V125.56H70.5235V108.866H86.5147V125.56H91.7878V176.139H98.6162V159.406L121.864 149.746L143.827 161.537V199.946H151.056V166.549H168.64V144.126H172.799V139.573H189.367V144.126H193.53V176.687H239.702V199.946H265.004V160.927H269.882V156.094H294.668V160.927H298.293V137.181L326.364 128.696V197.798H337.703V122.512H358.374V190.429L365.801 190.418V119.13L389.104 98.9809L412 119.102V207.387" fill="white"/>
<path d="M0 103.116H-0.133333V102.982H0V103.116ZM7.58623 103.116L7.702 103.182L7.66361 103.249H7.58623V103.116ZM14.2166 91.5117L14.1009 91.4456L14.2137 91.2482L14.3309 91.443L14.2166 91.5117ZM21.1987 103.116V103.249H21.1234L21.0845 103.184L21.1987 103.116ZM27.3732 103.116V102.982H27.5065V103.116H27.3732ZM27.3732 191.252V191.385H27.2399V191.252H27.3732ZM32.1249 191.252H32.2582V191.385H32.1249V191.252ZM32.1249 155.232H31.9916V155.162L32.0486 155.123L32.1249 155.232ZM45.8088 145.682L45.7325 145.573L45.8088 145.519L45.8851 145.573L45.8088 145.682ZM59.4986 155.232L59.5749 155.123L59.6319 155.162V155.232H59.4986ZM59.4986 178.275V178.409H59.3652V178.275H59.4986ZM64.4147 178.275H64.5481V178.409H64.4147V178.275ZM64.4147 125.56H64.2814V125.427H64.4147V125.56ZM70.5235 125.56H70.6568V125.694H70.5235V125.56ZM70.5235 108.866H70.3901V108.732H70.5235V108.866ZM86.5147 108.866V108.732H86.648V108.866H86.5147ZM86.5147 125.56V125.694H86.3814V125.56H86.5147ZM91.7878 125.56V125.427H91.9212V125.56H91.7878ZM91.7878 176.139V176.272H91.6545V176.139H91.7878ZM98.6162 176.139H98.7496V176.272H98.6162V176.139ZM98.6162 159.406H98.4829V159.317L98.5651 159.283L98.6162 159.406ZM121.864 149.746L121.813 149.623L121.872 149.598L121.927 149.628L121.864 149.746ZM143.827 161.537L143.89 161.419L143.96 161.457V161.537H143.827ZM143.827 199.946V200.079H143.693V199.946H143.827ZM151.056 199.946H151.189V200.079H151.056V199.946ZM151.056 166.549H150.922V166.415H151.056V166.549ZM168.64 166.549H168.774V166.682H168.64V166.549ZM168.64 144.126H168.507V143.993H168.64V144.126ZM172.799 144.126H172.932V144.259H172.799V144.126ZM172.799 139.573H172.665V139.44H172.799V139.573ZM189.367 139.573V139.44H189.5V139.573H189.367ZM189.367 144.126V144.259H189.233V144.126H189.367ZM193.53 144.126V143.993H193.664V144.126H193.53ZM193.53 176.687V176.82H193.397V176.687H193.53ZM239.702 176.687V176.553H239.835V176.687H239.702ZM239.702 199.946V200.079H239.568V199.946H239.702ZM265.004 199.946H265.137V200.079H265.004V199.946ZM265.004 160.927H264.871V160.794H265.004V160.927ZM269.882 160.927H270.016V161.061H269.882V160.927ZM269.882 156.094H269.749V155.961H269.882V156.094ZM294.668 156.094V155.961H294.801V156.094H294.668ZM294.668 160.927V161.061H294.534V160.927H294.668ZM298.293 160.927H298.427V161.061H298.293V160.927ZM298.293 137.181H298.16V137.082L298.255 137.053L298.293 137.181ZM326.364 128.696L326.326 128.569L326.497 128.517V128.696H326.364ZM326.364 197.798V197.932H326.231V197.798H326.364ZM337.703 197.798H337.836V197.932H337.703V197.798ZM337.703 122.512H337.569V122.379H337.703V122.512ZM358.374 122.512V122.379H358.508V122.512H358.374ZM358.374 190.429L358.374 190.562L358.241 190.562V190.429H358.374ZM365.801 190.418H365.935V190.551L365.802 190.551L365.801 190.418ZM365.801 119.13H365.668V119.069L365.714 119.029L365.801 119.13ZM389.104 98.9809L389.016 98.8801L389.104 98.8041L389.192 98.8808L389.104 98.9809ZM412 119.102L412.088 119.002L412.133 119.042V119.102H412ZM-0.133333 207.387V103.116H0.133333V207.387H-0.133333ZM0 102.982H7.58623V103.249H0V102.982ZM7.47047 103.049L14.1009 91.4456L14.3324 91.5779L7.702 103.182L7.47047 103.049ZM14.3309 91.443L21.313 103.047L21.0845 103.184L14.1024 91.5805L14.3309 91.443ZM21.1987 102.982H27.3732V103.249H21.1987V102.982ZM27.5065 103.116V191.252H27.2399V103.116H27.5065ZM27.3732 191.119H32.1249V191.385H27.3732V191.119ZM31.9916 191.252V155.232H32.2582V191.252H31.9916ZM32.0486 155.123L45.7325 145.573L45.8851 145.791L32.2012 155.341L32.0486 155.123ZM45.8851 145.573L59.5749 155.123L59.4223 155.341L45.7325 145.791L45.8851 145.573ZM59.6319 155.232V178.275H59.3652V155.232H59.6319ZM59.4986 178.142H64.4147V178.409H59.4986V178.142ZM64.2814 178.275V125.56H64.5481V178.275H64.2814ZM64.4147 125.427H70.5235V125.694H64.4147V125.427ZM70.3901 125.56V108.866H70.6568V125.56H70.3901ZM70.5235 108.732H86.5147V108.999H70.5235V108.732ZM86.648 108.866V125.56H86.3814V108.866H86.648ZM86.5147 125.427H91.7878V125.694H86.5147V125.427ZM91.9212 125.56V176.139H91.6545V125.56H91.9212ZM91.7878 176.006H98.6162V176.272H91.7878V176.006ZM98.4829 176.139V159.406H98.7496V176.139H98.4829ZM98.5651 159.283L121.813 149.623L121.916 149.869L98.6674 159.529L98.5651 159.283ZM121.927 149.628L143.89 161.419L143.763 161.654L121.801 149.863L121.927 149.628ZM143.96 161.537V199.946H143.693V161.537H143.96ZM143.827 199.812H151.056V200.079H143.827V199.812ZM150.922 199.946V166.549H151.189V199.946H150.922ZM151.056 166.415H168.64V166.682H151.056V166.415ZM168.507 166.549V144.126H168.774V166.549H168.507ZM168.64 143.993H172.799V144.259H168.64V143.993ZM172.665 144.126V139.573H172.932V144.126H172.665ZM172.799 139.44H189.367V139.707H172.799V139.44ZM189.5 139.573V144.126H189.233V139.573H189.5ZM189.367 143.993H193.53V144.259H189.367V143.993ZM193.664 144.126V176.687H193.397V144.126H193.664ZM193.53 176.553H239.702V176.82H193.53V176.553ZM239.835 176.687V199.946H239.568V176.687H239.835ZM239.702 199.812H265.004V200.079H239.702V199.812ZM264.871 199.946V160.927H265.137V199.946H264.871ZM265.004 160.794H269.882V161.061H265.004V160.794ZM269.749 160.927V156.094H270.016V160.927H269.749ZM269.882 155.961H294.668V156.228H269.882V155.961ZM294.801 156.094V160.927H294.534V156.094H294.801ZM294.668 160.794H298.293V161.061H294.668V160.794ZM298.16 160.927V137.181H298.427V160.927H298.16ZM298.255 137.053L326.326 128.569L326.403 128.824L298.332 137.308L298.255 137.053ZM326.497 128.696V197.798H326.231V128.696H326.497ZM326.364 197.665H337.703V197.932H326.364V197.665ZM337.569 197.798V122.512H337.836V197.798H337.569ZM337.703 122.379H358.374V122.646H337.703V122.379ZM358.508 122.512V190.429H358.241V122.512H358.508ZM358.374 190.296L365.801 190.284L365.802 190.551L358.374 190.562L358.374 190.296ZM365.668 190.418V119.13H365.935V190.418H365.668ZM365.714 119.029L389.016 98.8801L389.191 99.0818L365.889 119.231L365.714 119.029ZM389.192 98.8808L412.088 119.002L411.912 119.202L389.016 99.0811L389.192 98.8808ZM412.133 119.102V207.387H411.867V119.102H412.133Z" fill="#18273C" mask="url(#path-577-inside-1_64_13051)"/>
<path d="M0 207.387V103.116H7.58623L14.2166 91.5117L21.1987 103.116H27.3732V191.252H32.1249V155.232L45.8088 145.682L59.4986 155.232V178.275H64.4147V125.56H70.5235V108.866H86.5147V125.56H91.7878V176.139H98.6162V159.406L121.864 149.746L143.827 161.537V199.946H151.056V166.549H168.64V144.126H172.799V139.573H189.367V144.126H193.53V176.687H239.702V199.946H265.004V160.927H269.882V156.094H294.668V160.927H298.293V137.181L326.364 128.696V197.798H337.703V122.512H358.374V190.429L365.801 190.418V119.13L389.104 98.9809L412 119.102V207.387" stroke="#18273C" stroke-width="3.33333" stroke-miterlimit="10" stroke-linecap="round" stroke-linejoin="round"/>
</g>
</svg>
