<svg width="80" height="80" viewBox="0 0 80 80" fill="none" xmlns="http://www.w3.org/2000/svg">
<path d="M41.9706 22.1266L46.542 31.389L56.763 32.8741L49.3672 40.0834L50.793 50.5833L41.651 45.7771L32.8286 50.2637L34.5739 40.7225L27.1781 33.5132L37.3991 31.389L41.9706 22.1266Z" fill="#00ACE4"/>
<path d="M35.598 37.5977L30.5384 31.3199C29.7813 30.382 31.2013 29.2342 31.9598 30.1754L37.0203 36.4514C37.7766 37.3911 36.3567 38.5376 35.598 37.5977Z" fill="#00ACE4"/>
<path d="M41.64 37.8972L35.2478 30.2878C34.4725 29.3649 35.8708 28.1881 36.6471 29.1135L43.038 36.7228C43.814 37.6452 42.4181 38.8222 41.64 37.8972Z" fill="#18273C"/>
<path d="M54.3421 69.2861C53.1358 69.2861 53.1342 67.4602 54.3421 67.4602C55.5483 67.4602 55.55 69.2861 54.3421 69.2861Z" fill="#18273C"/>
<path d="M10.2438 27.5439C13.776 28.6196 17.1064 27.0192 18.2329 23.7634C14.2295 21.5917 10.9524 23.5769 10.2438 27.5439Z" fill="#00ACE4"/>
<path d="M10.9876 24.1479C11.6098 22.574 12.0491 20.1342 11.5983 18.4198C11.0956 16.3257 9.26974 14.7477 8.21915 14.2007C7.24843 15.7775 6.39273 18.4441 7.01635 20.552C7.60287 22.4002 9.41121 23.6971 10.9876 24.1479Z" fill="#00ACE4"/>
<path d="M15.8745 32.5572C14.4747 32.3218 12.2461 32.474 10.957 33.6769C9.57121 34.9552 9.15437 37.276 9.334 38.7612C10.467 38.7485 12.695 38.2755 14.0572 36.9588C15.2948 35.7545 15.8326 33.7127 15.8745 32.5572Z" fill="#00ACE4"/>
<path d="M7.29474 35.0712C8.29417 35.3156 9.07607 35.2881 9.07607 35.2881C9.2099 33.4951 8.91325 31.2979 7.94407 29.6545C6.88547 27.9379 4.77544 26.9235 3.45414 26.7147C3.03989 28.0481 2.27507 33.8727 7.29474 35.0712Z" fill="#00ACE4"/>
<path d="M11.8121 49.4122C12.9207 48.9701 14.7828 47.7273 15.6627 46.0771C16.435 44.568 16.3624 42.5917 16.1054 41.6003C12.7731 42.0652 10.5532 44.304 11.2529 47.626C11.4284 48.6848 11.8121 49.4122 11.8121 49.4122Z" fill="#00ACE4"/>
<path d="M10.4373 46.2356C9.51177 42.7891 7.81487 40.2259 4.38048 39.7401C3.3617 39.5914 2.58643 39.7028 2.58643 39.7028C2.64733 41.6678 3.51477 44.4474 5.17448 45.7181C6.71097 46.9316 8.9705 46.8136 10.4373 46.2356Z" fill="#00ACE4"/>
<path d="M18.1327 58.5096C18.1327 58.5096 18.6752 57.9645 19.2152 57.1016C21.1826 53.9831 20.2493 51.9208 19.8738 50.9061C19.7314 50.5586 19.2881 49.7914 19.1864 49.6473C17.8979 50.4162 16.3086 51.9597 16.0678 53.6729C15.7754 55.3741 16.8502 57.372 18.1327 58.5096Z" fill="#00ACE4"/>
<path d="M15.664 56.14C14.6229 54.7794 12.9796 53.2115 11.2625 52.5445C9.39616 51.8602 7.1225 52.369 5.95223 53.042C6.34456 54.1272 9.39508 59.8631 14.1911 57.2041C15.1008 56.6979 15.664 56.14 15.664 56.14Z" fill="#00ACE4"/>
<path d="M25.0124 55.7513C25.0124 55.7513 24.5563 56.3761 24.1401 57.3042C23.006 59.8591 23.4875 61.8782 25.7456 63.554C26.617 64.1287 27.3697 64.4059 27.3697 64.4059C27.8368 63.3226 28.3471 61.0051 27.7808 59.2276C27.368 57.795 26.2491 56.5956 25.0124 55.7513Z" fill="#00ACE4"/>
<path d="M18.8152 61.615C16.723 61.7432 14.8444 63.2587 14.1141 64.2325C14.964 65.0768 17.6463 67.058 20.173 66.6718C22.1173 66.3718 23.5817 64.6673 24.2166 63.168C22.4466 62.2408 20.8661 61.5356 18.8152 61.615Z" fill="#00ACE4"/>
<path d="M15.5364 17.5806C17.5623 16.6092 19.812 15.0902 19.706 10.1898C17.3851 10.0958 13.5139 11.5851 13.5571 16.3582C13.5681 17.3237 14.5819 18.0146 15.5364 17.5806Z" fill="#00ACE4"/>
<path d="M62.1163 23.7637C62.4339 24.6839 63.548 26.5231 65.0787 27.2615C66.7699 28.0693 68.9272 27.9039 70.1055 27.5443C69.8 25.8355 68.6819 23.9298 67.1057 23.2139C65.5317 22.545 63.4715 23.0284 62.1163 23.7637Z" fill="#00ACE4"/>
<path d="M69.361 24.1474C69.361 24.1474 70.1154 23.9312 70.9961 23.3895C73.044 22.1215 73.6755 20.4253 73.5272 18.3536C73.3975 16.9711 72.8228 15.3266 72.1303 14.2001C70.5239 15.035 68.359 17.233 68.5752 20.4397C68.6286 21.701 69.0278 23.3056 69.361 24.1474Z" fill="#00ACE4"/>
<path d="M71.0146 38.7609C71.1816 37.3792 70.8341 35.0075 69.3914 33.6758C68.1241 32.4933 65.9211 32.3145 64.4741 32.5569C64.4741 32.5569 64.4801 32.723 64.5199 32.9934C64.9903 36.2408 66.5636 37.8191 69.2922 38.5074C70.2568 38.7524 71.0146 38.7609 71.0146 38.7609Z" fill="#00ACE4"/>
<path d="M71.2717 35.2885C72.903 35.3434 74.9795 34.6746 76.1147 33.1566C77.3291 31.6569 77.3534 28.1972 76.8932 26.7146C76.8932 26.7146 76.1204 26.8374 75.1864 27.2802C72.0278 28.7801 71.0079 31.7533 71.2717 35.2885Z" fill="#00ACE4"/>
<path d="M68.5369 49.4126C69.2752 48.0123 69.5329 45.6693 68.6132 44.1181C67.7452 42.6152 65.6761 41.8006 64.2436 41.6006C64.1249 42.0575 63.9647 43.3018 64.1613 44.503C64.2622 45.0183 64.4165 45.5515 64.686 46.0771C65.4837 47.5732 67.2231 48.8879 68.5369 49.4126Z" fill="#00ACE4"/>
<path d="M72.6498 41.1957C71.614 42.1099 70.9907 43.3639 70.5495 44.3909C70.131 45.4205 69.9118 46.2361 69.9118 46.2361C74.505 48.0464 77.6166 44.405 77.7627 39.7036C76.579 39.5333 74.2416 39.7732 72.6498 41.1957Z" fill="#00ACE4"/>
<path d="M61.1623 49.6472C60.8376 50.104 59.718 52.0818 59.9494 53.899C60.1017 55.7042 61.3432 57.631 62.2158 58.5089C63.1965 57.6385 64.6148 55.6107 64.2811 53.6725C64.0375 51.9396 62.4191 50.3966 61.1623 49.6472Z" fill="#00ACE4"/>
<path d="M64.6847 56.1404C67.4964 58.9243 71.3353 58.6943 74.1054 53.6724C74.3071 53.2895 74.3964 53.0422 74.3964 53.0422C74.3964 53.0422 73.7122 52.6492 72.7084 52.4142C69.3288 51.6239 66.8405 53.3235 64.6847 56.1404Z" fill="#00ACE4"/>
<path d="M55.3354 55.7513C52.6755 57.5662 51.9414 59.8387 52.4805 62.6818C52.6704 63.693 52.9781 64.4059 52.9781 64.4059C56.6832 63.0386 58.1098 59.5514 55.3354 55.7513Z" fill="#00ACE4"/>
<path d="M61.5337 61.6146C60.2029 61.5628 58.8204 61.7595 56.1307 63.1675C58.1007 67.8143 62.8891 67.5592 66.234 64.2321C65.5101 63.2675 63.635 61.7426 61.5337 61.6146Z" fill="#00ACE4"/>
<path d="M64.8126 17.5808C65.7654 18.0135 66.7803 17.325 66.7914 16.3581C66.833 11.8126 63.2377 10.0845 60.6419 10.1896C60.6419 10.1896 60.6238 11.0183 60.7768 12.0707C61.2224 15.1752 62.4542 16.4491 64.8126 17.5808Z" fill="#00ACE4"/>
<path d="M11.3719 26.8038C14.1742 27.2048 15.789 26.3003 17.0054 24.1786C14.3455 23.1928 12.4255 23.8853 11.3719 26.8038ZM9.97664 28.3745C8.84671 28.0295 9.49856 26.3732 10.0292 25.317C11.7372 21.5907 15.3999 21.1432 18.6677 22.9173C19.061 23.1301 19.2415 23.5963 19.0949 24.0193C18.5651 25.5374 17.1741 27.3209 15.6644 28.0422C13.8089 28.928 11.4524 28.8204 9.97664 28.3745Z" fill="#18273C"/>
<path d="M68.9761 26.8031C67.9173 23.8609 65.9745 23.2006 63.3434 24.1788C64.5733 26.3166 66.1864 27.2074 68.9761 26.8031ZM63.0933 26.8726C62.2711 26.075 61.5158 24.7713 61.2531 24.0186C61.1064 23.5964 61.287 23.1302 61.6803 22.9174C66.2305 20.4474 70.2136 22.7649 71.0045 27.3414C71.0825 27.7949 70.8121 28.2399 70.3713 28.3738C70.3365 28.384 69.5279 28.6281 68.4403 28.6917C66.3848 28.8265 64.5598 28.3306 63.0933 26.8726Z" fill="#18273C"/>
<path d="M8.55846 15.4809C7.11914 18.5935 7.3141 21.3781 10.4216 22.8929C11.2854 19.8201 11.0616 17.4399 8.55846 15.4809ZM10.7361 24.9815C8.88565 24.45 6.83941 22.97 6.14603 20.7839C5.46112 18.4698 6.25961 15.631 7.4404 13.678C7.69215 13.2694 8.21516 13.1253 8.63983 13.3465C9.84605 13.9823 11.8948 15.7191 12.484 18.1528C12.9798 20.0507 12.5382 22.6487 11.8355 24.4398C11.66 24.884 11.1769 25.1095 10.7361 24.9815Z" fill="#18273C"/>
<path d="M71.7902 15.4808C69.2812 17.4389 69.0659 19.8302 69.9271 22.8936C73.0397 21.3712 73.2262 18.5909 71.7902 15.4808ZM68.5123 24.4406C68.1487 23.5124 67.7223 21.8289 67.6638 20.4354C67.4384 17.1439 69.4931 14.5137 71.708 13.3464C72.1335 13.1277 72.6565 13.2701 72.9074 13.6779C74.9079 16.9863 75.5097 21.6255 71.4766 24.1227C70.4984 24.7245 69.6482 24.9712 69.6126 24.9822C69.1727 25.1085 68.6887 24.8856 68.5123 24.4406Z" fill="#18273C"/>
<path d="M10.2276 37.7066C13.1613 37.2116 14.2972 35.7799 14.8236 33.3454C11.9297 33.2937 10.3819 34.6872 10.2276 37.7066ZM8.42803 38.8272C8.2246 37.2209 8.64843 34.5202 10.3378 32.9614C11.8153 31.5831 14.1972 31.3314 16.0264 31.6128C16.4765 31.6882 16.8012 32.0909 16.7876 32.5477C16.7732 33.0038 16.4748 35.8502 14.6922 37.5718C13.308 38.9086 11.0015 39.6096 9.3452 39.6308C8.88068 39.6358 8.48398 39.2909 8.42803 38.8272Z" fill="#18273C"/>
<path d="M70.1213 37.7067C69.9569 34.6102 68.3489 33.2988 65.5253 33.3455C66.0619 35.8062 67.196 37.2057 70.1213 37.7067ZM71.0147 39.6308H71.0037C69.7356 39.6147 67.2486 39.1095 65.6558 37.5719C64.7421 36.6895 64.1928 35.557 63.8715 34.316C63.5774 33.1386 63.2222 31.7985 64.3225 31.6129C66.1653 31.3331 68.5336 31.5832 70.0145 32.9657C71.6098 34.4372 72.1447 37.0607 71.9209 38.8281C71.8649 39.2867 71.475 39.6308 71.0147 39.6308Z" fill="#18273C"/>
<path d="M4.17439 27.8135C3.77938 31.2855 4.71265 33.7793 8.17787 34.2675C8.0965 31.1041 7.12593 28.8764 4.17439 27.8135ZM2.41211 27.1998C2.50027 26.625 2.64183 25.6146 3.59714 25.7689C4.92033 25.9766 7.41244 27.0056 8.72122 29.1316C9.75451 30.7557 10.1427 33.4266 9.98677 35.3127C9.95202 35.7772 9.57312 36.1417 9.10775 36.1569C4.46768 36.1569 1.58056 33.0757 2.41211 27.1998Z" fill="#18273C"/>
<path d="M72.1719 34.2675C75.6439 33.7827 76.5687 31.2821 76.1745 27.8143C73.2094 28.8773 72.2499 31.1321 72.1719 34.2675ZM71.2412 36.157C70.7758 36.1417 70.396 35.7772 70.3621 35.3127C70.2053 33.4072 70.5986 30.7489 71.6277 29.1316C72.8153 27.204 75.1446 26.0207 76.7518 25.7689C77.6528 25.6282 77.8275 26.4861 77.9351 27.1896C78.7794 33.1266 75.8668 36.157 71.2412 36.157Z" fill="#18273C"/>
<path d="M15.3439 42.668C12.6738 43.4495 11.4642 45.1423 12.3051 48.0947C14.4318 46.835 15.5914 45.1482 15.3439 42.668ZM10.2707 45.7526C10.5089 42.762 13.1909 41.0464 15.9797 40.6531C16.4425 40.5929 16.8705 40.8836 16.9892 41.3287C17.0901 41.7059 17.1825 42.5934 17.1944 43.0113C17.202 45.5864 16.3882 47.5081 13.8614 49.2636C12.9654 49.8891 12.183 50.2036 12.1499 50.2172C10.6199 50.8216 10.1156 47.2563 10.2707 45.7526Z" fill="#18273C"/>
<path d="M68.0453 48.0945C68.8777 45.176 67.7164 43.4629 65.0056 42.6669C64.792 44.8878 65.6345 46.6746 68.0453 48.0945ZM68.1987 50.2161C66.9425 49.7075 64.8945 48.364 63.8799 46.4627C63.1823 45.0675 63.0382 43.6731 63.2331 42.0829C63.2899 41.6124 63.3611 40.5198 64.3698 40.6529C67.0883 41.036 69.8338 42.6974 70.0805 45.7727C70.2288 47.2103 69.8372 48.8607 69.3439 49.794C69.1286 50.2026 68.6369 50.3899 68.1987 50.2161Z" fill="#18273C"/>
<path d="M3.59639 40.5393C4.12533 43.9969 5.82658 46.2737 9.28332 45.5676C8.24409 42.5754 6.79969 40.6766 3.59639 40.5393ZM1.67391 39.6883C1.6595 39.2238 1.99602 38.8228 2.45545 38.7567C6.20718 38.2651 9.82667 40.2689 11.3194 45.9558C11.4398 46.4043 11.205 46.8713 10.7727 47.0417C10.7379 47.0553 9.91059 47.3782 8.77049 47.4893C3.75236 47.9733 1.77478 43.1798 1.67391 39.6883Z" fill="#18273C"/>
<path d="M71.0656 45.5676C74.5359 46.2746 76.2295 43.9774 76.7525 40.5393C73.5611 40.6767 72.1082 42.5602 71.0656 45.5676ZM69.5771 47.0417C69.1448 46.8713 68.9091 46.4043 69.0295 45.9559C69.5084 44.1317 70.5553 41.7837 72.0438 40.469C73.6721 39.017 76.1668 38.5067 77.8935 38.7567C78.3529 38.8228 78.6894 39.2238 78.675 39.6883C78.6131 41.8354 77.6603 44.9217 75.7302 46.4009C73.9629 47.7936 71.3699 47.7639 69.5771 47.0417Z" fill="#18273C"/>
<path d="M18.8999 50.9316C16.5739 52.8032 16.5053 54.5197 17.7217 56.5939C17.8318 56.7812 17.9598 56.9457 18.0878 57.094C19.5161 55.1461 20.0213 53.0592 18.8999 50.9316ZM17.5267 59.1488C14.031 56.0726 14.2708 51.4359 18.7176 48.8201C19.1262 48.5768 19.6543 48.687 19.9306 49.0752C20.1087 49.3287 20.5842 50.1577 20.7749 50.6646C21.5675 52.7998 21.6819 54.8596 19.9874 57.545C19.4009 58.4808 18.805 59.0852 18.7795 59.1106C18.4379 59.4531 17.8869 59.4666 17.5267 59.1488Z" fill="#18273C"/>
<path d="M61.4497 50.9317C60.335 53.0644 60.8199 55.1318 62.2618 57.0941C62.8797 56.3719 63.5799 54.9385 63.3815 53.784C63.2179 52.6278 62.355 51.6615 61.4497 50.9317ZM61.5692 59.1099C60.6266 58.1512 59.2263 56.0719 59.0407 53.951C58.8211 52.1735 59.6874 50.1137 60.4181 49.0745C60.6953 48.6862 61.2225 48.5769 61.6311 48.8193C66.3178 51.6878 66.1364 56.2321 62.8221 59.1489C62.4618 59.4667 61.9108 59.4532 61.5692 59.1099Z" fill="#18273C"/>
<path d="M7.19305 53.4508C9.0172 56.5931 11.4144 58.0443 14.3651 55.9752C12.3248 53.5585 10.0751 52.4413 7.19305 53.4508ZM5.44433 54.0688C5.13833 53.4898 4.695 52.6685 5.49773 52.2065C6.68869 51.5216 9.26133 50.7951 11.5763 51.6428C13.5395 52.4608 15.1152 53.8611 16.3901 55.542C16.6665 55.9065 16.6326 56.4227 16.307 56.7448C16.2799 56.7711 15.6425 57.3984 14.6346 57.9578C10.8397 60.0634 7.56008 57.901 5.44433 54.0688Z" fill="#18273C"/>
<path d="M65.9839 55.9752C68.9448 58.0537 71.3377 56.5779 73.1551 53.4518C70.2739 52.4422 68.0302 53.5569 65.9839 55.9752ZM64.0419 56.7457C63.7164 56.4236 63.6825 55.9074 63.9589 55.5429C65.6042 53.3721 67.2215 52.2896 68.7727 51.6437C71.0283 50.8172 73.5925 51.4835 74.8513 52.2074C75.6481 52.666 75.2141 53.4848 74.9114 54.0553C71.8116 59.6803 67.269 59.9194 64.0419 56.7457Z" fill="#18273C"/>
<path d="M26.8281 63.0972C27.4663 60.6857 27.1536 58.647 25.259 57.0543C23.8791 59.6337 24.263 61.6893 26.8281 63.0972ZM27.0544 65.2189C23.284 63.8661 20.8555 59.899 24.2749 55.1691C24.5657 54.7716 25.12 54.6766 25.5269 54.9538C28.4572 56.9645 29.3803 59.5642 28.7641 62.809C28.559 63.9051 28.2224 64.6917 28.2089 64.7247C28.0139 65.1749 27.5019 65.3859 27.0544 65.2189Z" fill="#18273C"/>
<path d="M53.5208 63.0972C56.0367 61.7121 56.4978 59.6811 55.089 57.0534C53.1928 58.6478 52.8808 60.6941 53.5208 63.0972ZM52.14 64.7238C51.5025 63.204 51.1041 60.7856 51.6933 58.9199C52.1807 57.239 53.3971 55.9311 54.8211 54.9537C55.2297 54.6757 55.7824 54.7715 56.0731 55.169C59.24 59.5489 57.4921 63.7126 53.2945 65.2188C52.8461 65.3858 52.3341 65.1748 52.14 64.7238Z" fill="#18273C"/>
<path d="M15.4408 64.1042C18.2982 66.2641 21.0378 66.5879 22.9747 63.5032C20.0902 62.0631 17.6794 62.0351 15.4408 64.1042ZM13.4708 64.8358C13.1487 64.5153 13.1114 64.005 13.3844 63.6414C14.5414 62.0987 16.9911 60.6593 18.7797 60.6593C21.0234 60.5653 22.9434 61.4265 24.6412 62.3148C25.0625 62.5361 25.2439 63.043 25.0583 63.4803C24.2844 65.3096 22.5704 67.1829 20.3122 67.5305C17.9668 67.8907 15.1661 66.4972 13.4708 64.8358Z" fill="#18273C"/>
<path d="M57.3743 63.5023C59.2977 66.5598 62.0144 66.2894 64.9083 64.1033C62.6823 62.0468 60.2538 62.0596 57.3743 63.5023ZM55.2908 63.4794C55.1051 63.042 55.2865 62.5351 55.707 62.3147C57.4684 61.3925 59.3316 60.5702 61.5694 60.6584C63.3639 60.6584 65.8119 62.1036 66.9639 63.6404C67.2377 64.0049 67.2004 64.5152 66.8774 64.8356C65.5635 66.1495 63.4147 67.3422 61.3803 67.5761C58.5314 67.7829 56.308 65.8842 55.2908 63.4794Z" fill="#18273C"/>
<path d="M24.864 69.1587C23.7459 68.7069 24.4266 67.0141 25.5481 67.4651C32.8667 70.4217 42.107 71.0388 50.7531 68.5653C51.9144 68.2314 52.4145 69.9894 51.2558 70.3208C50.7709 70.4599 50.2861 70.5887 49.7995 70.7099C41.0398 72.8799 31.9597 72.0255 24.864 69.1587Z" fill="#18273C"/>
<path d="M8.34567 36.3367C8.31346 29.1443 10.0308 23.3039 13.2265 17.3153C13.463 16.8694 14.0165 16.7007 14.4607 16.9389C15.972 17.7442 13.5104 19.3089 11.6032 25.8817C10.642 29.0341 10.158 33.1215 10.1715 36.3375C9.93503 76.7462 75.2266 76.5139 69.7948 30.737C69.0175 25.7359 67.3349 21.2255 65.5328 18.2129C64.9149 17.1762 66.4822 16.2387 67.101 17.2771C69.9771 22.0969 72.0352 29.1045 72.003 36.346C72.2488 78.0753 8.1007 78.0872 8.34567 36.3367Z" fill="#18273C"/>
<path d="M18.7535 11.1392C16.1037 11.5808 14.4703 13.2668 14.4703 16.3048C14.4737 16.6362 14.8339 16.8524 15.134 16.7176C17.4193 15.6224 18.4839 14.4357 18.7535 11.1392ZM12.6444 16.3251C12.5826 10.9747 17.0099 9.0819 19.7436 9.23448C20.2259 9.25397 20.609 9.64474 20.62 10.1271C20.6421 11.9826 20.2505 14.3781 19.0943 15.9445C18.2059 17.1796 17.0048 17.8221 15.8859 18.3815C14.3771 19.058 12.6631 17.9662 12.6444 16.3251Z" fill="#18273C"/>
<path d="M61.5947 11.1392C61.8592 14.4357 62.9383 15.6267 65.2066 16.7142C65.5194 16.8549 65.8745 16.632 65.8779 16.3048C65.8779 13.2642 64.2479 11.5766 61.5947 11.1392ZM64.4666 18.3832C63.3282 17.895 62.0304 17.0244 61.254 15.9445C60.0638 14.3314 59.707 11.8766 59.7282 10.1271C59.7392 9.64475 60.1232 9.25398 60.6055 9.23448C63.6215 9.07767 67.8386 11.2901 67.7046 16.2963C67.6809 17.1686 67.2698 17.8212 66.6476 18.2196C65.9839 18.6435 65.1667 18.6986 64.4666 18.3832Z" fill="#18273C"/>
<path d="M49.53 48.8228C47.7991 38.7314 47.6965 39.0442 48.1738 38.578L55.0296 31.8959C44.9026 30.4244 45.1646 30.6202 44.8679 30.02L40.6313 21.435C36.093 30.6312 36.3617 30.4244 35.7073 30.5193L26.233 31.8959C33.5771 39.0552 33.4618 38.734 33.3516 39.3866L31.7326 48.8228L40.2058 44.3675C40.7907 44.0598 40.4558 44.0521 49.53 48.8228ZM40.6313 46.2077C30.1254 51.7311 30.6171 51.6904 29.983 51.231C29.3498 50.7698 29.4702 51.2072 31.4698 39.5511L23.6332 31.9129C23.0907 31.3839 23.3934 30.4634 24.1384 30.3549L34.969 28.7808C40.2227 18.1359 39.8498 18.4589 40.6313 18.4589C41.4137 18.4589 41.0433 18.1435 46.2937 28.7808C58.0371 30.4879 57.6183 30.2328 57.8608 30.9762C58.1024 31.7204 58.2897 31.2686 49.7928 39.5511C51.7975 51.2386 51.9128 50.7707 51.2796 51.231C50.6455 51.6904 51.0999 51.7107 40.6313 46.2077Z" fill="#18273C"/>
<path d="M39.013 11.5351V8.74973C39.013 7.54352 40.8389 7.54182 40.8389 8.74973V11.5351C40.8389 12.7413 39.013 12.743 39.013 11.5351Z" fill="#18273C"/>
<path d="M30.2594 14.9423L28.8285 12.3424C28.2461 11.2861 29.8452 10.4031 30.4284 11.4609L31.859 14.0619C32.4413 15.1183 30.8422 16.0013 30.2594 14.9423Z" fill="#18273C"/>
<path d="M24.3501 21.9264L21.8538 20.5854C20.7856 20.0125 21.6591 18.4043 22.7171 18.9765L25.2134 20.3175C26.2809 20.89 25.4097 22.4975 24.3501 21.9264Z" fill="#18273C"/>
<path d="M55.741 18.8304L57.8728 17.7047C58.9387 17.1419 59.7939 18.756 58.7265 19.3197L56.5947 20.4453C55.5277 21.0078 54.6733 19.3951 55.741 18.8304Z" fill="#18273C"/>
<path d="M48.4073 12.9181L49.6221 10.7266C50.2097 9.66835 51.8045 10.5592 51.219 11.6118L50.0046 13.8026C49.4193 14.8602 47.8217 13.9726 48.4073 12.9181Z" fill="#18273C"/>
</svg>
