<svg width="242" height="60" viewBox="0 0 242 60" fill="none" xmlns="http://www.w3.org/2000/svg">
<path d="M92.1788 17.4231C91.6238 17.8212 91.1621 18.273 90.7987 18.7788L79.6107 34.5541H86.0003L94.1876 22.978L99.0891 30.1241L102.129 34.5541H108.637L97.7336 18.7788C97.3505 18.2239 96.8888 17.7571 96.3388 17.384C95.7936 17.0107 95.1109 16.8242 94.2907 16.8242C93.4411 16.8242 92.7338 17.0205 92.1788 17.4231Z" fill="white"/>
<path d="M110.567 17.1091V34.5541H125.979L129.471 30.07H115.965V17.1091H110.567Z" fill="white"/>
<path d="M129.839 17.1091L126.342 21.647H134.529V34.5541H139.932V21.647H146.165L149.656 17.1091H129.839Z" fill="white"/>
<path d="M151.38 34.5541H156.778V17.1089H151.38V34.5541Z" fill="white"/>
<path d="M170.103 17.1091C168.59 17.1091 167.19 17.3153 165.903 17.723C164.617 18.1304 163.507 18.715 162.578 19.4714C161.65 20.2276 160.918 21.1313 160.388 22.1824C159.857 23.2334 159.592 24.3925 159.592 25.6644C159.592 26.9317 159.857 28.1103 160.388 29.1957C160.918 30.2811 161.65 31.2243 162.578 32.0148C163.507 32.8057 164.617 33.4246 165.903 33.8763C167.19 34.3282 168.59 34.5541 170.103 34.5541H178.864L182.332 30.07H170.103C169.371 30.07 168.693 29.9718 168.069 29.7703C167.441 29.569 166.9 29.289 166.439 28.9206C165.977 28.5574 165.624 28.1201 165.368 27.6045C165.117 27.0936 164.99 26.5241 164.99 25.9002C164.99 25.2716 165.122 24.697 165.383 24.1764C165.643 23.6557 165.997 23.2089 166.453 22.8356C166.905 22.4623 167.441 22.1676 168.069 21.9613C168.693 21.7502 169.371 21.647 170.103 21.647H178.864L182.332 17.1091H170.103Z" fill="white"/>
<path d="M186.845 18.9851C184.724 20.429 183.663 22.7079 183.663 25.8217C183.663 28.9502 184.719 31.2341 186.831 32.678C188.943 34.1219 192.14 34.8438 196.418 34.8438C200.676 34.8438 203.863 34.1219 205.985 32.678C208.107 31.2341 209.168 28.9502 209.168 25.8217C209.168 22.7079 208.102 20.429 205.975 18.9851C203.844 17.5461 200.656 16.8241 196.418 16.8241C192.155 16.8241 188.967 17.5461 186.845 18.9851ZM192.975 30.1339C192.032 30.0209 191.276 29.7998 190.691 29.4708C190.107 29.1419 189.689 28.6851 189.424 28.1005C189.164 27.5211 189.036 26.7596 189.036 25.8217C189.036 24.8787 189.164 24.1222 189.424 23.5379C189.689 22.9534 190.107 22.5016 190.691 22.1824C191.276 21.8582 192.032 21.6422 192.975 21.5292C193.913 21.4162 195.057 21.3623 196.418 21.3623C197.773 21.3623 198.918 21.4162 199.856 21.5292C200.799 21.6422 201.555 21.8582 202.139 22.1824C202.724 22.5016 203.141 22.9534 203.407 23.5379C203.667 24.1222 203.795 24.8787 203.795 25.8217C203.795 26.7596 203.667 27.5211 203.407 28.1005C203.141 28.6851 202.724 29.1419 202.139 29.4708C201.555 29.7998 200.799 30.0209 199.856 30.1339C198.918 30.2469 197.773 30.3057 196.418 30.3057C195.057 30.3057 193.913 30.2469 192.975 30.1339Z" fill="white"/>
<path d="M232.781 17.3299C232.305 17.6688 231.907 18.1157 231.598 18.6756L228.803 23.6311C228.42 24.3089 228.086 24.8984 227.801 25.4041C227.516 25.9052 227.261 26.3619 227.045 26.7696C226.829 27.1822 226.637 27.5456 226.47 27.8648C226.303 28.189 226.156 28.5083 226.013 28.8176C225.856 28.5083 225.699 28.184 225.532 27.8549C225.365 27.526 225.173 27.1577 224.957 26.7596C224.741 26.357 224.491 25.9002 224.201 25.3895C223.916 24.8787 223.582 24.2795 223.199 23.6016L220.409 18.6756C220.095 18.1011 219.697 17.6491 219.221 17.3201C218.744 16.9861 218.155 16.8241 217.463 16.8241C216.785 16.8241 216.166 17.0205 215.611 17.4085C215.051 17.8014 214.653 18.4055 214.408 19.2208L209.899 34.5541H215.194L216.834 28.4787C217.094 27.4866 217.32 26.6173 217.512 25.8609C217.703 25.1046 217.87 24.3777 218.008 23.6802C218.145 23.9751 218.293 24.2795 218.44 24.5938C218.587 24.9082 218.759 25.252 218.961 25.6253C219.162 25.9984 219.383 26.4209 219.624 26.8874C219.869 27.3589 220.149 27.8894 220.459 28.4787L222.806 32.8891C223.032 33.3214 223.263 33.6652 223.499 33.9155C223.735 34.171 223.97 34.3625 224.216 34.505C224.456 34.6424 224.722 34.7358 224.997 34.7801C225.277 34.8193 225.581 34.8438 225.91 34.8438C226.239 34.8438 226.544 34.8193 226.824 34.7801C227.099 34.7358 227.364 34.6424 227.605 34.505C227.85 34.3625 228.086 34.171 228.322 33.9155C228.557 33.6652 228.788 33.3214 229.014 32.8891L231.362 28.5083C231.951 27.3737 232.427 26.4406 232.796 25.7038C233.159 24.9623 233.488 24.2893 233.788 23.6802C233.926 24.3925 234.088 25.1242 234.279 25.8708C234.471 26.6173 234.706 27.4866 234.986 28.4787L236.627 34.5541H242L237.594 19.2208C237.349 18.4055 236.956 17.8014 236.406 17.4085C235.861 17.0205 235.247 16.8241 234.569 16.8241C233.857 16.8241 233.258 16.9911 232.781 17.3299Z" fill="white"/>
<path d="M79.6107 39.3673V43.1048H83.2107L83.9523 42.1422H80.7747V41.6364H83.0683L83.7361 40.7867H80.7747V40.3396H83.1909L83.9425 39.3673H79.6107Z" fill="#00A2E0"/>
<path d="M96.6434 39.3673V43.1048H99.9437L100.695 42.1422H97.7976V39.3673H96.6434Z" fill="#00A2E0"/>
<path d="M113.371 39.3673V43.1048H116.971L117.713 42.1422H114.535V41.6364H116.829L117.497 40.7867H114.535V40.3396H116.952L117.703 39.3673H113.371Z" fill="#00A2E0"/>
<path d="M134.967 39.3673L133.213 41.8475L131.534 39.3673H130.114L132.452 42.7463C132.536 42.8641 132.634 42.9673 132.752 43.0459C132.87 43.1244 133.017 43.1637 133.189 43.1637C133.37 43.1637 133.518 43.1244 133.636 43.036C133.759 42.9525 133.857 42.8543 133.94 42.7463L136.332 39.3673H134.967Z" fill="#00A2E0"/>
<path d="M150 39.4311C149.878 39.5195 149.779 39.6128 149.701 39.721L147.304 43.1048H148.674L150.428 40.6245L152.132 43.1048H153.527L151.189 39.721C151.105 39.603 151.007 39.5048 150.889 39.4262C150.771 39.3427 150.624 39.3034 150.452 39.3034C150.27 39.3034 150.118 39.3475 150 39.4311Z" fill="#00A2E0"/>
<path d="M166.969 39.3673L166.232 40.3396H168.737C168.89 40.3396 169.037 40.3594 169.169 40.4085C169.307 40.4527 169.42 40.5165 169.523 40.6C169.621 40.6787 169.7 40.7719 169.759 40.8849C169.813 40.9979 169.842 41.1206 169.842 41.2482C169.842 41.381 169.813 41.5037 169.759 41.6167C169.7 41.7248 169.626 41.8182 169.528 41.8967C169.43 41.9751 169.317 42.0342 169.179 42.0783C169.042 42.1226 168.894 42.1422 168.737 42.1422H167.391V40.7719H166.232V43.1048H168.737C169.057 43.1048 169.356 43.0557 169.636 42.9575C169.911 42.8593 170.147 42.7267 170.348 42.5596C170.545 42.3878 170.702 42.1865 170.815 41.9555C170.928 41.7248 170.987 41.4694 170.987 41.1991C170.987 40.9292 170.933 40.6835 170.82 40.4577C170.707 40.2316 170.55 40.0402 170.353 39.8781C170.152 39.716 169.916 39.5883 169.641 39.4998C169.366 39.4114 169.061 39.3673 168.737 39.3673H166.969Z" fill="#00A2E0"/>
<path d="M184.429 39.77C183.977 40.0794 183.751 40.5657 183.751 41.2336C183.751 41.9016 183.977 42.3927 184.429 42.7021C184.881 43.0116 185.564 43.1637 186.482 43.1637C187.395 43.1637 188.078 43.0116 188.53 42.7021C188.987 42.3927 189.213 41.9016 189.213 41.2336C189.213 40.5657 188.987 40.0794 188.53 39.77C188.073 39.4607 187.391 39.3034 186.482 39.3034C185.568 39.3034 184.886 39.4607 184.429 39.77ZM185.745 42.1569C185.544 42.1324 185.382 42.0833 185.254 42.0145C185.131 41.9457 185.038 41.8475 184.984 41.7198C184.93 41.597 184.901 41.4348 184.901 41.2336C184.901 41.0322 184.93 40.8701 184.984 40.7424C185.038 40.6196 185.131 40.5214 185.254 40.4527C185.382 40.384 185.544 40.3349 185.745 40.3152C185.947 40.2906 186.192 40.2759 186.482 40.2759C186.772 40.2759 187.017 40.2906 187.219 40.3152C187.42 40.3349 187.582 40.384 187.71 40.4527C187.833 40.5214 187.921 40.6196 187.98 40.7424C188.034 40.8701 188.064 41.0322 188.064 41.2336C188.064 41.4348 188.034 41.597 187.98 41.7198C187.921 41.8475 187.833 41.9457 187.71 42.0145C187.582 42.0833 187.42 42.1324 187.219 42.1569C187.017 42.1815 186.772 42.1913 186.482 42.1913C186.192 42.1913 185.947 42.1815 185.745 42.1569Z" fill="#00A2E0"/>
<path d="M202.837 39.3673L202.08 40.3396H205.332C205.533 40.3396 205.69 40.3742 205.803 40.4479C205.916 40.5215 205.97 40.6295 205.97 40.7719C205.97 40.9047 205.911 41.0077 205.788 41.0814C205.666 41.155 205.513 41.1944 205.332 41.1944H202.08V43.1048H203.239V42.1128H205.017L205.847 43.1048H207.395L206.707 42.378C206.579 42.2452 206.476 42.1471 206.398 42.0684C206.319 41.9949 206.245 41.9359 206.182 41.8868C206.334 41.8573 206.471 41.8032 206.594 41.7297C206.717 41.6609 206.82 41.5725 206.903 41.4644C206.987 41.3614 207.051 41.2434 207.095 41.1157C207.139 40.9831 207.159 40.8456 207.159 40.7032C207.159 40.4331 207.1 40.2121 206.982 40.0402C206.859 39.8683 206.707 39.7356 206.52 39.6326C206.334 39.5342 206.127 39.4656 205.897 39.4262C205.671 39.387 205.45 39.3673 205.238 39.3673H202.837Z" fill="#00A2E0"/>
<path d="M220.1 39.3673V43.1048H223.7L224.447 42.1422H221.264V41.6364H223.563L224.226 40.7867H221.264V40.3396H223.686L224.432 39.3673H220.1Z" fill="#00A2E0"/>
<path d="M238.655 39.3673C238.37 39.3673 238.13 39.3918 237.923 39.4507C237.722 39.5048 237.555 39.5835 237.428 39.6865C237.3 39.7847 237.202 39.9077 237.143 40.05C237.079 40.1924 237.049 40.3545 237.049 40.5263C237.049 40.6885 237.079 40.836 237.133 40.9683C237.192 41.1009 237.275 41.2139 237.393 41.3024C237.506 41.3957 237.653 41.4694 237.825 41.5233C238.002 41.5725 238.208 41.6019 238.454 41.6019H240.487C240.625 41.6019 240.723 41.6216 240.787 41.6609C240.851 41.705 240.885 41.7739 240.885 41.8671C240.885 41.9653 240.851 42.0342 240.787 42.0783C240.723 42.1226 240.625 42.1422 240.487 42.1422H237.658L236.917 43.1048H240.399C240.679 43.1048 240.924 43.0753 241.126 43.0214C241.327 42.9623 241.494 42.8838 241.627 42.7808C241.754 42.6776 241.853 42.5451 241.912 42.3927C241.97 42.2404 242 42.0684 242 41.8819C242 41.5381 241.882 41.2828 241.641 41.1108C241.406 40.9438 241.057 40.8554 240.6 40.8554H238.562C238.429 40.8554 238.331 40.836 238.267 40.7965C238.199 40.7621 238.169 40.6934 238.169 40.595C238.169 40.4968 238.199 40.4331 238.267 40.3938C238.331 40.3545 238.429 40.3396 238.562 40.3396H241.155L241.902 39.3673H238.655Z" fill="#00A2E0"/>
<path d="M6.7937 28.7206L14.4995 17.8533C15.0538 17.0094 15.7095 16.1031 16.4825 15.1695C17.4145 14.0437 18.3428 13.0889 19.2048 12.2887C19.2048 12.2887 20.1811 11.3243 21.2201 10.4948C25.4854 7.08977 30.8879 5.05146 36.7576 5.05146C46.3976 5.05146 54.7758 10.5439 58.9237 18.5636L60.5281 16.2963C61.064 15.5384 61.5999 14.7805 62.136 14.0226C56.8212 5.60316 47.4314 -7.62939e-06 36.7576 -7.62939e-06C20.6451 -7.62939e-06 7.45963 12.7701 6.7937 28.7206Z" fill="white"/>
<path d="M18.9528 17.4936C18.1158 18.0937 17.4197 18.7748 16.8716 19.5377L0 43.3269H9.63565L21.9819 25.8703L29.3734 36.6465L33.958 43.3269H43.7714L27.3293 19.5377C26.7516 18.701 26.0554 17.9971 25.2259 17.4344C24.404 16.8715 23.3745 16.5901 22.1375 16.5901C20.8562 16.5901 19.7898 16.8863 18.9528 17.4936Z" fill="#00A2E0"/>
<path d="M63.8844 16.5901L51.538 34.0468L44.1465 23.2706L39.562 16.5901H29.7487L46.1907 40.3794C46.7684 41.2161 47.4646 41.9198 48.294 42.4826C49.1162 43.0456 50.1457 43.3269 51.3826 43.3269C52.6639 43.3269 53.7304 43.0308 54.5673 42.4234C55.4041 41.8234 56.1005 41.1421 56.6484 40.3794L73.52 16.5901H63.8844Z" fill="#00A2E0"/>
<path d="M63.6474 35.5403L61.6534 38.3514L59.0221 42.0615C57.5539 44.1711 56.1387 45.7877 55.0247 46.9465C53.393 48.6443 52.2136 49.5617 51.8848 49.8139C51.2991 50.263 50.3591 50.9411 49.1355 51.6434C45.486 53.738 41.259 54.9364 36.7576 54.9364C27.1048 54.9364 18.7171 49.4248 14.5756 41.3829L11.3601 45.9303C16.6717 54.3686 26.0709 59.9879 36.7576 59.9879C52.8954 59.9879 66.0935 47.1829 66.7278 31.1972L63.6474 35.5403Z" fill="white"/>
</svg>
