<svg width="80" height="80" viewBox="0 0 80 80" fill="none" xmlns="http://www.w3.org/2000/svg">
<g clip-path="url(#clip0_149_1599)">
<path d="M11.3535 67.6548C10.2628 67.6548 9.37925 66.7709 9.37925 65.6798C9.37925 64.5878 10.2628 63.7039 11.3535 63.7039C12.4442 63.7039 13.3277 64.5878 13.3277 65.6798C13.3277 66.7709 12.4442 67.6548 11.3535 67.6548ZM24.5875 54.3167H8.88524C8.88524 57.0426 6.67362 59.2551 3.94873 59.2551V71.1069C6.67362 71.1069 8.88524 73.3139 8.88524 76.0453H24.5875C20.9745 74.6076 18.3486 70.2872 18.3486 65.181C18.3486 60.0748 20.9745 55.7535 24.5875 54.3167Z" fill="#00ACE4"/>
<path d="M43.9336 67.6548C42.8429 67.6548 41.9593 66.7709 41.9593 65.6798C41.9593 64.5878 42.8429 63.7039 43.9336 63.7039C45.0243 63.7039 45.9078 64.5878 45.9078 65.6798C45.9078 66.7709 45.0243 67.6548 43.9336 67.6548ZM46.4018 54.3167H30.6996C34.3126 55.7535 36.9385 60.0748 36.9385 65.181C36.9385 70.2872 34.3126 74.6076 30.6996 76.0453H46.4018C46.4018 73.3139 48.6134 71.1069 51.3383 71.1069V59.2551C48.6134 59.2551 46.4018 57.0426 46.4018 54.3167Z" fill="#00ACE4"/>
<path d="M47.6309 18.0242L47.7308 18.3102C47.9113 18.8246 47.64 19.3885 47.1258 19.5691C47.0177 19.6067 46.9077 19.6251 46.7996 19.6251C46.3917 19.6251 46.0104 19.3702 45.8674 18.9631L45.7877 18.7348C45.5586 18.7687 45.334 18.7898 45.1186 18.7898C43.9739 18.7898 43.0601 18.3689 42.7246 18.1911C42.2434 17.9343 42.0601 17.3365 42.3158 16.8551C42.5715 16.3738 43.17 16.1913 43.6512 16.4462C43.8639 16.559 44.9811 17.099 46.0984 16.614C46.6749 16.3646 47.5291 15.7393 47.5181 15.0415C47.5108 14.6042 47.1763 14.0916 46.7235 13.822C46.2011 13.514 45.6401 13.6102 44.7667 13.7945C43.818 13.9953 42.6366 14.2447 41.5193 13.4791C40.5946 12.8456 40.0355 11.7279 40.0969 10.6294C40.1656 9.38978 41.018 8.43804 41.995 7.89433L41.9446 7.75221C41.7641 7.23691 42.0363 6.67394 42.5505 6.49331C43.0646 6.3136 43.6283 6.58408 43.8089 7.09846L43.9033 7.37078C45.0004 7.35244 45.8693 7.79163 46.245 8.02544C46.7088 8.31335 46.8509 8.92216 46.5631 9.38611C46.2753 9.84914 45.6667 9.99126 45.2039 9.70428C45.0004 9.57683 44.2699 9.18256 43.4569 9.40995C42.7998 9.59333 42.1014 10.1407 42.0684 10.7385C42.0491 11.0851 42.237 11.5775 42.6348 11.8489C43.0353 12.123 43.5257 12.0369 44.3588 11.8617C45.3212 11.6582 46.52 11.4051 47.7298 12.123C48.783 12.7484 49.4749 13.8816 49.4924 15.0103C49.5125 16.3481 48.6143 17.3897 47.6309 18.0242ZM41.908 4.65494C37.3188 6.26134 34.9019 11.285 36.5077 15.875C38.1135 20.465 43.1343 22.8837 47.7225 21.2773C52.3117 19.6709 54.7295 14.6473 53.1228 10.0573C51.517 5.46731 46.4962 3.04854 41.908 4.65494Z" fill="#00ACE4"/>
<path d="M55.3678 4.49552C53.2221 1.90896 50.2021 0.314486 46.865 0.00457515C46.3206 -0.0476878 45.8412 0.353912 45.7908 0.896713C45.7404 1.43951 46.14 1.92088 46.6826 1.97131C49.4945 2.23263 52.0398 3.57771 53.849 5.75717C55.6583 7.93755 56.5098 10.6873 56.2495 13.5003C56.1991 14.0431 56.5978 14.5245 57.1413 14.5749C57.1724 14.5777 57.2027 14.5786 57.2329 14.5786C57.7379 14.5786 58.1678 14.1944 58.2155 13.6828C58.5252 10.3444 57.5143 7.08208 55.3678 4.49552Z" fill="#00ACE4"/>
<path d="M56.8092 15.2267C56.1969 15.2267 55.6983 15.7255 55.6983 16.338C55.6983 16.9505 56.1969 17.4493 56.8092 17.4493C57.4214 17.4493 57.92 16.9505 57.92 16.338C57.92 15.7255 57.4214 15.2267 56.8092 15.2267Z" fill="#00ACE4"/>
<path d="M18.7745 25.287C18.2777 25.5125 17.693 25.2925 17.4675 24.7955C17.3749 24.5901 17.012 23.9006 16.2586 23.654C15.6646 23.4578 14.8214 23.5192 14.4933 23.9575C14.3008 24.2133 14.1927 24.6882 14.3586 25.1018C14.5254 25.518 14.9552 25.7078 15.7004 26.0067C16.5821 26.3597 17.6783 26.7998 18.2667 28.0303C18.7791 29.1012 18.7259 30.3876 18.1311 31.3082C17.4437 32.3709 16.2054 32.7367 15.0936 32.7367C15.0771 32.7367 15.0606 32.734 15.0432 32.734L14.9791 32.9843C14.8636 33.429 14.4631 33.7251 14.024 33.7251C13.9425 33.7251 13.859 33.7151 13.7766 33.6931C13.2486 33.5574 12.9306 33.0182 13.0672 32.4901L13.1157 32.3021C11.8564 31.6951 11.1846 30.6132 10.9802 30.2327C10.7226 29.7522 10.9023 29.1535 11.3835 28.8949C11.8628 28.6364 12.4622 28.817 12.7198 29.2975C12.827 29.4983 13.42 30.5068 14.5492 30.7122C15.1074 30.814 16.1238 30.7755 16.473 30.2354C16.6921 29.8953 16.6976 29.3268 16.4859 28.883C16.2411 28.3732 15.749 28.1541 14.9653 27.8396C14.0964 27.4912 13.014 27.0566 12.5255 25.8362C12.1213 24.8258 12.2743 23.6228 12.915 22.7701C13.6308 21.8174 14.8123 21.5057 15.8828 21.5845L15.9103 21.4782C16.0459 20.951 16.5867 20.6346 17.1128 20.7694C17.6407 20.906 17.9578 21.4443 17.8213 21.9724L17.7608 22.2089C18.6361 22.7829 19.0907 23.5935 19.2657 23.9795C19.4912 24.4764 19.2712 25.0614 18.7745 25.287ZM17.5683 19.0044C13.0617 17.8399 8.46519 20.5512 7.30118 25.0596C6.13717 29.5679 8.84739 34.1662 13.3531 35.3306C17.8598 36.4951 22.4571 33.7838 23.6212 29.2755C24.7843 24.7671 22.0749 20.1689 17.5683 19.0044Z" fill="#00ACE4"/>
<path d="M4.4436 24.4746C4.88263 24.4746 5.28407 24.1785 5.39864 23.7338C6.79087 18.3406 12.3094 15.0856 17.7014 16.4784C18.2293 16.6141 18.7674 16.2968 18.9039 15.7687C19.0405 15.2406 18.7224 14.7024 18.1945 14.5657C11.7485 12.9016 5.15117 16.792 3.48673 23.2396C3.35017 23.7677 3.66821 24.3068 4.19614 24.4435C4.27862 24.4645 4.36203 24.4746 4.4436 24.4746Z" fill="#00ACE4"/>
<path d="M21.0173 17.6638C21.6296 17.6638 22.1282 17.165 22.1282 16.5525C22.1282 15.94 21.6296 15.4412 21.0173 15.4412C20.4051 15.4412 19.9065 15.94 19.9065 16.5525C19.9065 17.165 20.4051 17.6638 21.0173 17.6638Z" fill="#00ACE4"/>
<path d="M53.3126 78.025H1.97424V52.3465H53.3126V78.025ZM35.5619 22.1293C37.4023 23.8971 39.2932 25.7391 40.7844 27.2208C37.5856 27.9855 34.693 29.5369 32.3137 31.6549C31.8646 27.7535 32.4961 25.3641 35.5619 22.1293ZM66.1424 29.3095C66.0636 26.0499 64.8739 23.3488 61.5166 20.0406C61.1362 19.6647 60.5295 19.6601 60.1399 20.0259C58.767 21.3389 51.881 27.9369 51.1157 29.0821C50.815 29.5369 50.9378 30.1485 51.3925 30.4501C51.8416 30.7564 52.4584 30.6326 52.7599 30.1787C52.957 29.8826 53.9349 28.8648 55.3015 27.5023C55.5591 27.2401 55.8349 26.9641 56.1209 26.6826C57.5085 25.3045 59.1721 23.6899 60.8008 22.1293C62.8841 24.3216 63.8419 26.1343 64.0985 28.2872C64.1874 28.9785 64.1975 29.7047 64.1526 30.4895C64.0985 31.378 63.9748 32.3463 63.797 33.4181C63.709 33.9563 64.0738 34.4652 64.6118 34.5541C64.6658 34.5633 64.7208 34.5688 64.7749 34.5688C65.2488 34.5688 65.6685 34.2277 65.7474 33.7436C65.8757 32.9881 65.9747 32.2674 66.0434 31.5806C70.8617 34.7614 74.0448 40.2279 74.0448 46.4206C74.0448 48.865 73.5563 51.2453 72.604 53.4422L72.0706 54.5681V63.7829C72.0706 64.0103 71.8827 64.1983 71.6563 64.1983H67.5493C67.322 64.1983 67.1341 64.0103 67.1341 63.7829V60.2474C67.1341 59.7046 66.6905 59.2599 66.147 59.2599C65.6044 59.2599 65.1599 59.7046 65.1599 60.2474V69.5062C65.1599 69.8472 64.8831 70.1241 64.543 70.1241H59.8531C59.513 70.1241 59.2362 69.8472 59.2362 69.5062V63.2108C59.2362 62.667 58.7917 62.2224 58.2491 62.2224C57.7056 62.2224 57.262 62.667 57.262 63.2108V64.168C56.9357 64.1882 56.6048 64.1983 56.274 64.1983H55.2868V51.359C55.2868 50.8153 54.8432 50.3706 54.2997 50.3706H28.0829C27.7969 49.097 27.6439 47.7785 27.6439 46.4206C27.6439 37.6303 34.0505 30.3117 42.4424 28.8941C43.2471 28.7566 44.072 28.6723 44.9061 28.6475C45.0738 28.6429 45.2461 28.6429 45.4148 28.6429H48.7858C49.3339 28.6429 49.7729 28.1982 49.7729 27.6554C49.7729 27.1117 49.3339 26.667 48.7858 26.667H45.4148C44.6494 26.667 43.8942 26.7119 43.1536 26.7954C40.7743 24.3812 37.1759 20.9337 36.2227 20.0259C35.8378 19.6601 35.231 19.6647 34.8507 20.0406C30.1855 24.6324 29.7116 28.0552 30.5658 33.4181C27.5156 36.8941 25.6687 41.4428 25.6687 46.4206C25.6687 47.773 25.8071 49.097 26.0638 50.3706H0.987118C0.444524 50.3706 0 50.8153 0 51.359V79.0125C0 79.5562 0.444524 80 0.987118 80H54.2997C54.8432 80 55.2868 79.5562 55.2868 79.0125V66.1733H56.274C56.6048 66.1733 56.9311 66.1632 57.262 66.1439V69.5062C57.262 70.9338 58.4269 72.0991 59.8531 72.0991H64.543C65.9692 72.0991 67.1341 70.9338 67.1341 69.5062V66.1338C67.2697 66.1577 67.4072 66.1733 67.5493 66.1733H71.6563C72.9743 66.1733 74.0448 65.1014 74.0448 63.7829V55.0376C75.3436 52.3712 76.02 49.4427 76.02 46.4206C76.02 39.1212 72.0413 32.7313 66.1424 29.3095Z" fill="#18273C"/>
<path d="M49.3635 48.3954C49.3635 48.941 49.8052 49.3829 50.3506 49.3829C50.8959 49.3829 51.3377 48.941 51.3377 48.3954C51.3377 43.2214 47.1308 39.0128 41.9587 39.0128C36.7876 39.0128 32.5797 43.2214 32.5797 48.3954C32.5797 48.941 33.0224 49.3829 33.5668 49.3829C34.1122 49.3829 34.5549 48.941 34.5549 48.3954C34.5549 44.3107 37.8764 40.9878 41.9587 40.9878C46.0419 40.9878 49.3635 44.3107 49.3635 48.3954Z" fill="#18273C"/>
<path d="M35.7886 39.0129C35.7886 38.0602 35.0132 37.2845 34.0609 37.2845C33.1086 37.2845 32.3332 38.0602 32.3332 39.0129C32.3332 39.9655 33.1086 40.7412 34.0609 40.7412C35.0132 40.7412 35.7886 39.9655 35.7886 39.0129Z" fill="#18273C"/>
<path d="M52.572 39.0129C52.572 38.0602 51.7966 37.2845 50.8443 37.2845C49.892 37.2845 49.1167 38.0602 49.1167 39.0129C49.1167 39.9655 49.892 40.7412 50.8443 40.7412C51.7966 40.7412 52.572 39.9655 52.572 39.0129Z" fill="#18273C"/>
<path d="M38.5034 46.4204V47.4079C38.5034 47.9534 38.9452 48.3954 39.4905 48.3954C40.0359 48.3954 40.4777 47.9534 40.4777 47.4079V46.4204C40.4777 45.8748 40.0359 45.4329 39.4905 45.4329C38.9452 45.4329 38.5034 45.8748 38.5034 46.4204Z" fill="#18273C"/>
<path d="M43.4398 46.4204V47.4079C43.4398 47.9534 43.8816 48.3954 44.4269 48.3954C44.9723 48.3954 45.4141 47.9534 45.4141 47.4079V46.4204C45.4141 45.8748 44.9723 45.4329 44.4269 45.4329C43.8816 45.4329 43.4398 45.8748 43.4398 46.4204Z" fill="#18273C"/>
<path d="M3.9494 48.3955H23.6945C24.2398 48.3955 24.6816 47.9536 24.6816 47.408C24.6816 46.8625 24.2398 46.4205 23.6945 46.4205H3.9494C3.40405 46.4205 2.96228 46.8625 2.96228 47.408C2.96228 47.9536 3.40405 48.3955 3.9494 48.3955Z" fill="#18273C"/>
<path d="M6.91082 44.4447H23.6946C24.2399 44.4447 24.6817 44.0027 24.6817 43.4572C24.6817 42.9116 24.2399 42.4697 23.6946 42.4697H6.91082C6.36548 42.4697 5.92371 42.9116 5.92371 43.4572C5.92371 44.0027 6.36548 44.4447 6.91082 44.4447Z" fill="#18273C"/>
<path d="M78.4408 42.4695C78.5114 42.4695 78.5838 42.4622 78.6562 42.4457C79.1887 42.3274 79.5242 41.7993 79.405 41.2675C78.1539 35.6386 74.88 30.6572 70.1864 27.2408C69.7456 26.919 69.1278 27.0171 68.807 27.4581C68.4862 27.9 68.5834 28.5171 69.0242 28.838C73.3292 31.9711 76.3309 36.5381 77.4784 41.6966C77.5802 42.1568 77.988 42.4695 78.4408 42.4695Z" fill="#18273C"/>
<path d="M78.6525 43.3333C78.0402 43.3333 77.5416 43.8321 77.5416 44.4446C77.5416 45.0571 78.0402 45.5559 78.6525 45.5559C79.2647 45.5559 79.7633 45.0571 79.7633 44.4446C79.7633 43.8321 79.2647 43.3333 78.6525 43.3333Z" fill="#18273C"/>
</g>
<defs>
<clipPath id="clip0_149_1599">
<rect width="80" height="80" fill="white"/>
</clipPath>
</defs>
</svg>
