<svg width="80" height="80" viewBox="0 0 80 80" fill="none" xmlns="http://www.w3.org/2000/svg">
<path d="M78.2625 78.3468H15.5929C15.0291 78.3468 14.571 77.8887 14.571 77.3249C14.571 76.7601 15.0291 76.303 15.5929 76.303H78.2625C78.8263 76.303 79.2844 76.7601 79.2844 77.3249C79.2844 77.8887 78.8263 78.3468 78.2625 78.3468Z" fill="#18273C"/>
<path d="M29.5567 47.0116V34.1515C29.6157 34.1515 22.0776 31.5182 22.0776 24.6715C22.0776 17.8249 27.8586 14.3144 28.1948 14.3144V22.9763L31.03 26.5754H36.2586L39.0938 22.9763L42.3491 31.1792C40.2234 33.2639 37.6967 34.1515 37.731 34.1515V39.5182L29.5567 47.0116Z" fill="#00ACE4"/>
<path d="M9.51731 40.6126C7.79541 39.5821 7.23445 37.3507 8.26493 35.6288C9.29541 33.9059 11.5268 33.3459 13.2487 34.3764C14.9707 35.4069 15.5316 37.6383 14.5011 39.3602C13.4706 41.0821 11.2392 41.6431 9.51731 40.6126ZM17.4154 43.2431C17.2887 42.905 17.3364 42.5212 17.5592 42.2364C17.7554 41.9869 17.9373 41.7231 18.1049 41.4441C18.2716 41.1641 18.4183 40.8783 18.5459 40.5888C18.6916 40.2574 19.0068 40.0345 19.3649 39.985L21.1421 39.744C21.664 39.6736 22.0554 39.2326 22.064 38.706L22.0964 36.6145C22.1049 36.0879 21.7278 35.6345 21.2078 35.5469L19.4154 35.2469C19.0478 35.185 18.7554 34.925 18.6145 34.5812C18.3868 34.0221 18.0926 33.4888 17.7345 32.9936C17.5126 32.6859 17.4449 32.2936 17.5887 31.9421L18.2726 30.2745C18.4726 29.7869 18.2859 29.2269 17.8345 28.9564L16.0383 27.8821C15.5868 27.6117 15.0049 27.7117 14.6707 28.1183L13.523 29.5098C13.2811 29.8021 12.904 29.9279 12.5278 29.8774C11.9221 29.7964 11.3135 29.7888 10.7135 29.8517C10.3421 29.8907 9.97541 29.7555 9.74684 29.4612L8.63541 28.024C8.3135 27.6069 7.73541 27.4888 7.27541 27.745L5.44779 28.7621C4.98779 29.0183 4.78398 29.5717 4.96779 30.065L5.59541 31.745C5.72207 32.084 5.67445 32.4679 5.4516 32.7526C5.25541 33.0021 5.0735 33.2659 4.90588 33.545C4.73921 33.824 4.59255 34.1098 4.46493 34.4002C4.32017 34.7317 4.00398 34.9555 3.64588 35.0031L1.86874 35.244C1.34683 35.3155 0.955403 35.7564 0.946831 36.2831L0.91445 38.3745C0.905878 38.9012 1.28302 39.3545 1.80302 39.4421L3.5954 39.7421C3.96302 39.8031 4.2554 40.0631 4.39636 40.4088C4.62398 40.9669 4.91826 41.5002 5.27636 41.9964C5.49826 42.3031 5.56588 42.6955 5.42207 43.0469L4.73826 44.7155C4.53826 45.2022 4.72493 45.7621 5.17731 46.0326L6.97255 47.1069C7.42398 47.3774 8.00588 47.2774 8.34112 46.8707L9.48779 45.4793C9.72969 45.1869 10.1068 45.0612 10.483 45.1117C11.0887 45.1926 11.6973 45.1993 12.2973 45.1364C12.6687 45.0983 13.0354 45.2336 13.264 45.5279L14.3754 46.965C14.6973 47.3812 15.2754 47.5002 15.7354 47.2441L17.563 46.2269C18.024 45.9707 18.2278 45.4164 18.043 44.9231L17.4154 43.2431Z" fill="#00ACE4"/>
<path d="M28.8754 62.1641C28.2964 64.9974 25.864 67.1889 22.843 67.3289C19.2745 67.4936 16.2468 64.7346 16.0821 61.166C15.9164 57.5965 18.6754 54.5689 22.2449 54.4041C25.4735 54.2546 28.2516 56.5013 28.8754 59.5736V50.3574C28.8573 50.3708 28.8364 50.3765 28.8192 50.3917L27.6535 51.4451C27.4411 51.6365 27.1373 51.6727 26.8783 51.5527C26.3287 51.2965 25.7545 51.0889 25.1592 50.9336C24.8821 50.8603 24.6716 50.6384 24.6306 50.3546L24.4059 48.7984C24.3545 48.4393 24.0392 48.1784 23.6764 48.1955L20.2449 48.3546C19.883 48.3708 19.5925 48.6603 19.5745 49.0222L19.4945 50.5927C19.4802 50.8784 19.2906 51.1193 19.0221 51.2174C18.444 51.4279 17.8906 51.6879 17.3678 51.9927C17.1202 52.1374 16.8144 52.1289 16.5859 51.9574L15.3278 51.0165C15.0373 50.7993 14.6297 50.8374 14.3849 51.106L12.0706 53.6441C11.8268 53.9127 11.8259 54.3222 12.0687 54.5917L13.1221 55.7565C13.3144 55.9689 13.3506 56.2727 13.2306 56.5327C12.9744 57.0813 12.7668 57.6565 12.6106 58.2508C12.5383 58.5279 12.3154 58.7384 12.0325 58.7803L10.4763 59.0041C10.1173 59.0555 9.85635 59.3717 9.87254 59.7336L10.0316 63.1651C10.0487 63.527 10.3373 63.8174 10.7002 63.8355L12.2706 63.9155C12.5564 63.9298 12.7973 64.1194 12.8944 64.3879C13.1049 64.966 13.3649 65.5194 13.6706 66.0432C13.8144 66.2898 13.8068 66.5955 13.6354 66.8251L12.6935 68.0822C12.4764 68.3736 12.5154 68.7813 12.783 69.026L15.3221 71.3394C15.5897 71.5841 15.9992 71.5841 16.2687 71.3413L17.4345 70.2879C17.6468 70.0965 17.9506 70.0594 18.2097 70.1803C18.7592 70.4365 19.3335 70.6432 19.9287 70.7994C20.2049 70.8727 20.4164 71.0946 20.4573 71.3784L20.6811 72.9346C20.7335 73.2936 21.0487 73.5546 21.4116 73.5375L24.843 73.3784C25.2049 73.3613 25.4954 73.0727 25.5135 72.7108L25.5926 71.1403C25.6078 70.8546 25.7973 70.6136 26.0659 70.5155C26.644 70.3051 27.1973 70.0451 27.7202 69.7403C27.9678 69.5955 28.2735 69.6041 28.5021 69.7755L28.8754 70.0546V62.1641Z" fill="#00ACE4"/>
<path d="M38.4126 66.7659H42.1679C42.725 66.7659 43.1812 66.3097 43.1812 65.7535V60.6601C43.1812 59.8811 43.7441 59.1649 44.5203 59.1011C45.3888 59.0297 46.1127 59.6973 46.1127 60.5344C46.1127 60.5344 47.8755 66.0849 49.4974 66.0849H65.6431C66.027 66.0849 66.3412 65.7706 66.3412 65.3868V38.8373C66.3412 38.8335 62.2546 38.8373 62.2546 38.8373L58.8479 55.1859H46.5869L43.1812 38.8373H38.4126C38.4088 38.8373 38.4088 66.7659 38.4126 66.7659Z" fill="#00ACE4"/>
<path d="M38.7527 64.0421C38.1889 64.0421 37.7308 63.5849 37.7308 63.0202V38.4973C37.7308 37.9335 38.1889 37.4754 38.7527 37.4754H42.8404C43.4042 37.4754 43.8613 37.9335 43.8613 38.4973C43.8613 39.0621 43.4042 39.5192 42.8404 39.5192H39.7746V63.0202C39.7746 63.5849 39.3166 64.0421 38.7527 64.0421Z" fill="#18273C"/>
<path d="M65.2804 67.4478H49.6518C49.087 67.4478 48.6299 66.9907 48.6299 66.4259C48.6299 65.8621 49.087 65.404 49.6518 65.404H65.2804C65.4889 65.404 65.6594 65.2345 65.6594 65.0249V39.5192H63.2756C62.7108 39.5192 62.2537 39.0611 62.2537 38.4973C62.2537 37.9335 62.7108 37.4754 63.2756 37.4754H66.6813C67.2451 37.4754 67.7032 37.9335 67.7032 38.4973V65.0249C67.7032 66.3611 66.6166 67.4478 65.2804 67.4478Z" fill="#18273C"/>
<path d="M29.2166 74.2602C28.6528 74.2602 28.1947 73.8021 28.1947 73.2383V52.3087C28.1947 47.5821 30.4757 43.0916 34.2947 40.2983C34.7509 39.9649 35.389 40.064 35.7233 40.5202C36.0566 40.9754 35.9566 41.6144 35.5014 41.9478C32.2061 44.3583 30.2385 48.2316 30.2385 52.3087V73.2383C30.2385 73.8021 29.7804 74.2602 29.2166 74.2602Z" fill="#18273C"/>
<path d="M69.9072 78.0059C69.3433 78.0059 68.8853 77.5487 68.8853 76.984C68.8853 76.4201 69.3433 75.962 69.9072 75.962C72.8243 75.962 75.1967 73.5887 75.1967 70.6716V52.3087C75.1967 48.2182 73.3148 44.4687 70.0319 42.0192C69.5795 41.682 69.4862 41.0411 69.8243 40.5887C70.1605 40.1363 70.8014 40.0439 71.2538 40.382C75.0586 43.2201 77.2405 47.5677 77.2405 52.3087V70.6716C77.2405 74.7154 73.951 78.0059 69.9072 78.0059Z" fill="#18273C"/>
<path d="M49.6518 78.3469C49.088 78.3469 48.6299 77.8888 48.6299 77.325V66.4259C48.6299 65.8621 49.088 65.404 49.6518 65.404C50.2156 65.404 50.6737 65.8621 50.6737 66.4259V77.325C50.6737 77.8888 50.2156 78.3469 49.6518 78.3469Z" fill="#18273C"/>
<path d="M45.9268 78.0058C45.363 78.0058 44.9049 77.5487 44.9049 76.9839C44.9049 76.4201 45.363 75.962 45.9268 75.962C47.1525 75.962 48.1754 75.4325 48.8173 74.9877C49.2811 74.6668 49.9182 74.7811 50.2382 75.2449C50.5611 75.7077 50.4449 76.3449 49.9811 76.6658C49.1001 77.2772 47.6811 78.0058 45.9268 78.0058Z" fill="#18273C"/>
<path d="M39.5423 77.9346C38.648 77.9346 37.8137 77.4841 37.3127 76.7298L36.5784 75.625C35.9946 74.7441 35.687 73.7184 35.687 72.6574V68.1946C35.687 67.0317 36.6337 66.085 37.7975 66.085H42.5118L42.4994 60.8231C42.4994 59.4879 43.4946 58.3565 44.7651 58.2498C45.4556 58.186 46.1461 58.4241 46.6546 58.8907C47.1394 59.3355 47.4289 59.9584 47.4594 60.6146C47.9851 63.1298 48.9223 65.6793 49.4689 66.0908C49.9813 66.145 50.3813 66.5793 50.3813 67.1069C50.3813 67.6708 49.9242 68.1289 49.3594 68.1289C47.3356 68.1289 46.1108 64.2174 45.4394 60.9374C45.4251 60.8708 45.4184 60.8012 45.4184 60.7327C45.4184 60.5565 45.328 60.4469 45.2727 60.3965C45.2089 60.3384 45.0927 60.2727 44.9394 60.285C44.728 60.3031 44.5423 60.5536 44.5423 60.8231V66.0974C44.5423 67.2174 43.6318 68.1289 42.5118 68.1289H37.7975C37.7603 68.1289 37.7308 68.1574 37.7308 68.1946V72.6574C37.7308 73.3155 37.9213 73.9517 38.2813 74.4955L39.0137 75.5993C39.1356 75.7822 39.3337 75.8908 39.5423 75.8908C40.1061 75.8908 40.5642 76.3489 40.5642 76.9127C40.5642 77.4774 40.1061 77.9346 39.5423 77.9346Z" fill="#18273C"/>
<path d="M38.7527 70.8534H36.7089C36.1451 70.8534 35.687 70.3962 35.687 69.8315C35.687 69.2677 36.1451 68.8096 36.7089 68.8096H38.7527C39.3165 68.8096 39.7746 69.2677 39.7746 69.8315C39.7746 70.3962 39.3165 70.8534 38.7527 70.8534Z" fill="#18273C"/>
<path d="M38.7527 73.5784H36.7089C36.1451 73.5784 35.687 73.1212 35.687 72.5565C35.687 71.9927 36.1451 71.5346 36.7089 71.5346H38.7527C39.3165 71.5346 39.7746 71.9927 39.7746 72.5565C39.7746 73.1212 39.3165 73.5784 38.7527 73.5784Z" fill="#18273C"/>
<path d="M11.9478 77.484C11.9478 78.0812 11.462 78.5659 10.8639 78.5659C10.2668 78.5659 9.78013 78.0812 9.78013 77.484C9.78013 76.885 10.2668 76.4002 10.8639 76.4002C11.462 76.4002 11.9478 76.885 11.9478 77.484Z" fill="#18273C"/>
<path d="M64.727 25.0621C64.6613 25.0621 64.5937 25.0564 64.527 25.0421C63.9727 24.9345 63.6166 24.3888 63.7261 23.8355C63.8861 23.0183 64.4194 22.6421 64.8099 22.3688C65.2213 22.0793 65.6108 21.805 65.8737 20.7126C66.3689 18.6535 65.9461 18.125 65.9413 18.1212C65.4899 17.7812 65.4013 17.144 65.7404 16.6916C66.0794 16.2412 66.7223 16.1516 67.1727 16.4907C67.8756 17.0183 68.5651 18.2612 67.8604 21.1897C67.4175 23.0336 66.5204 23.664 65.9851 24.0402C65.887 24.1097 65.7518 24.205 65.7204 24.244C65.6251 24.7297 65.2032 25.0621 64.727 25.0621Z" fill="#18273C"/>
<path d="M40.1777 25.0544C39.6996 25.0544 39.272 24.7173 39.1768 24.2287L39.1749 24.2211C39.1549 24.2049 39.0206 24.1097 38.9215 24.0411C38.3872 23.6649 37.4901 23.0335 37.0472 21.1906C36.4129 18.5525 37.0653 17.3249 37.7253 16.7611C38.1558 16.3935 38.7996 16.443 39.1663 16.8725C39.5329 17.3011 39.4834 17.9459 39.0549 18.3135C38.8834 18.4601 38.6587 19.1497 39.0339 20.7125C39.2968 21.8059 39.6863 22.0792 40.0977 22.3697C40.4872 22.643 41.0215 23.0192 41.1815 23.8363C41.2901 24.3897 40.9291 24.9268 40.3749 25.0354C40.3091 25.0487 40.2425 25.0544 40.1777 25.0544Z" fill="#18273C"/>
<path d="M55.6145 12.1229C55.6612 12.1229 55.7088 12.1257 55.7554 12.1333C56.0383 12.1724 56.2916 12.3276 56.4545 12.5629C57.7373 14.4143 59.2802 16.0105 61.0402 17.3048C62.0745 18.0657 63.1802 18.7181 64.3364 19.2514C65.424 16.9667 65.6212 14.2648 64.8478 11.8552C62.9964 6.09715 59.1126 3.41524 52.6259 3.41524H52.4573C50.7069 3.43143 46.6097 3.46667 43.4507 6.24001C41.1069 8.29524 40.2688 11.0124 40.0688 11.7972C39.4049 14.3924 39.7926 16.7181 40.303 18.3295L40.4345 18.12C40.6135 17.8362 40.9221 17.6572 41.2583 17.6438C43.9078 17.5391 46.5021 16.9705 48.9678 15.9562C51.1173 15.0724 53.1345 13.861 54.965 12.3562C55.1497 12.2038 55.3792 12.1229 55.6145 12.1229ZM64.7935 21.5829C64.6659 21.5829 64.5373 21.5591 64.4126 21.5086C62.7916 20.8562 61.2497 19.9962 59.8297 18.9505C58.1716 17.7314 56.6897 16.2724 55.4135 14.6038C53.6564 15.9324 51.7535 17.02 49.745 17.8467C47.225 18.8819 44.5821 19.4905 41.8811 19.6581L40.9697 21.1057C40.7735 21.4172 40.4392 21.6057 40.0554 21.5819C39.6878 21.5648 39.3583 21.3495 39.1926 21.02C38.4764 19.5972 36.9364 15.7981 38.0888 11.2895C38.3269 10.3619 39.3183 7.14572 42.1021 4.70286C45.8335 1.42952 50.6335 1.38857 52.4411 1.37238L52.6259 1.37143C60.0269 1.37143 64.6612 4.59619 66.7926 11.2305C67.8345 14.4724 67.4154 18.1553 65.6726 21.0838C65.4831 21.4019 65.145 21.5829 64.7935 21.5829Z" fill="#18273C"/>
<path d="M52.5549 38.8373H52.353C45.9501 38.8373 40.4044 32.8782 39.1682 24.6677C39.0844 24.1096 39.4682 23.5887 40.0263 23.5049C40.5873 23.4201 41.1054 23.8049 41.1892 24.363C42.2739 31.5658 46.9692 36.7934 52.353 36.7934H52.5549C57.9397 36.7934 62.634 31.5658 63.7178 24.363C63.8016 23.8049 64.3159 23.4201 64.8806 23.5049C65.4378 23.5887 65.8225 24.1096 65.7387 24.6677C64.5035 32.8782 58.9587 38.8373 52.5549 38.8373Z" fill="#18273C"/>
<path d="M55.2747 14.4287C54.9871 14.4287 54.7004 14.3078 54.4985 14.0716C54.1309 13.644 54.1804 12.9992 54.609 12.6316C56.2538 11.2211 56.9824 10.1802 57.5252 9.26587C57.8128 8.78015 58.4404 8.62015 58.9252 8.90777C59.41 9.19634 59.5709 9.82301 59.2824 10.3087C58.6509 11.3735 57.8081 12.5792 55.9395 14.183C55.7462 14.3478 55.51 14.4287 55.2747 14.4287Z" fill="#18273C"/>
<path d="M41.2987 19.002C41.1101 19.002 40.9187 18.9496 40.7482 18.8401C40.2729 18.5363 40.1348 17.9039 40.4396 17.4296L42.9244 13.5487C43.2291 13.0734 43.8615 12.9353 44.3358 13.2401C44.811 13.5439 44.9491 14.1763 44.6444 14.6506L42.1596 18.5306C41.9644 18.8353 41.6358 19.002 41.2987 19.002Z" fill="#18273C"/>
<path d="M49.6521 23.8516H46.9273C46.3635 23.8516 45.9054 23.3945 45.9054 22.8297C45.9054 22.2659 46.3635 21.8078 46.9273 21.8078H49.6521C50.2159 21.8078 50.674 22.2659 50.674 22.8297C50.674 23.3945 50.2159 23.8516 49.6521 23.8516Z" fill="#18273C"/>
<path d="M58.5079 23.8516H55.7831C55.2193 23.8516 54.7612 23.3945 54.7612 22.8297C54.7612 22.2659 55.2193 21.8078 55.7831 21.8078H58.5079C59.0717 21.8078 59.5298 22.2659 59.5298 22.8297C59.5298 23.3945 59.0717 23.8516 58.5079 23.8516Z" fill="#18273C"/>
<path d="M52.8281 33.6839C51.4823 33.6839 50.1157 33.1877 48.8747 32.2468C48.4252 31.9058 48.3366 31.2649 48.6776 30.8154C49.0185 30.3668 49.6585 30.2782 50.109 30.6182C51.9004 31.9754 53.7557 31.9754 55.5481 30.6182C55.9966 30.2754 56.6376 30.3658 56.9795 30.8154C57.3204 31.2649 57.2319 31.9058 56.7814 32.2468C55.5404 33.1877 54.1728 33.6839 52.8281 33.6839Z" fill="#18273C"/>
</svg>
