<svg width="80" height="80" viewBox="0 0 80 80" fill="none" xmlns="http://www.w3.org/2000/svg">
<g clip-path="url(#clip0_149_796)">
<path d="M38.6025 7.5163C36.3358 7.5163 34.4987 9.35344 34.4987 11.6201C34.4987 13.8858 36.3358 15.723 38.6025 15.723C40.8692 15.723 42.7063 13.8858 42.7063 11.6201C42.7063 9.35344 40.8692 7.5163 38.6025 7.5163Z" fill="#00ACE4"/>
<path d="M52.9655 37.8612V67.0164H48.8617C48.2874 67.0164 47.816 66.545 47.816 65.9698V60.3478C47.816 59.4964 47.1284 58.8098 46.2769 58.8098C45.4255 58.8098 44.7379 59.4964 44.7379 60.3478C44.7379 60.3478 43.3636 67.0164 41.6607 67.0164H24.2407V37.8612H28.3445V54.1936C28.3445 55.045 29.0322 55.7317 29.8836 55.7317H47.3236C48.175 55.7317 48.8617 55.045 48.8617 54.1936V37.8612H52.9655Z" fill="#00ACE4"/>
<path d="M10.2441 32.8581L14.3222 39.1343C14.3222 39.1343 14.3241 39.1352 14.3241 39.1371L14.7765 39.8324C14.9727 40.1352 15.3022 40.299 15.6374 40.299C15.8289 40.299 16.0231 40.2457 16.1955 40.1333C16.6708 39.8248 16.806 39.1895 16.4965 38.7143L12.4184 32.4381L11.9641 31.74C11.2279 30.6067 10.087 29.8695 8.83457 29.719C6.71362 29.4647 4.83171 28.2943 3.67171 26.5095C2.63266 24.9105 2.28123 23.0181 2.65742 21.1828L4.58219 24.1447C4.91552 24.6562 5.47743 24.9866 6.08505 25.0266L10.0517 25.2933C10.9098 25.3505 11.7165 24.8276 12.0127 24.019L13.3793 20.2866C13.5898 19.7133 13.5165 19.0657 13.1841 18.5543L11.2603 15.5933C13.0889 15.9952 14.6755 17.0847 15.7146 18.6838C16.8746 20.4686 17.1793 22.6638 16.5508 24.7047C16.1793 25.9105 16.3889 27.2524 17.126 28.3857L21.7765 35.5428C22.0851 36.0181 22.7203 36.1533 23.1955 35.8438C23.6708 35.5352 23.806 34.9 23.4974 34.4248L18.846 27.2676C18.4422 26.6457 18.3193 25.9314 18.5117 25.3095C19.3203 22.6847 18.9279 19.8619 17.4355 17.5657C15.8403 15.1114 13.2451 13.5904 10.3155 13.3924C9.72791 13.3533 9.1841 13.6419 8.88695 14.1466C8.58981 14.6524 8.60314 15.2705 8.92219 15.7609L11.4355 19.6295L10.1127 23.2419L6.27457 22.9828L3.76028 19.1143C3.44123 18.6247 2.88219 18.3638 2.29933 18.4276C1.71742 18.4943 1.23076 18.8762 1.0298 19.4257C0.0202786 22.1838 0.35647 25.1733 1.95171 27.6276C3.44314 29.9238 5.86314 31.4286 8.58981 31.7562C9.23648 31.8343 9.83933 32.2352 10.2441 32.8581Z" fill="#18273C"/>
<path d="M72.8518 31.303L56.9556 20.9734L64.4622 16.5668L77.0937 24.7744L72.8518 31.303ZM79.5165 24.2601C79.4603 23.9934 79.3003 23.7611 79.0718 23.6125L65.0489 14.501C64.7222 14.2887 64.3051 14.2791 63.9698 14.4763L54.4851 20.0449C54.1784 20.2249 53.987 20.5506 53.9794 20.9068C53.9708 21.262 54.1479 21.5963 54.446 21.7896L59.7003 25.2039L55.6079 31.5011C55.6079 31.5011 55.6079 31.502 55.607 31.503L53.8203 34.2534C53.5108 34.7287 53.646 35.3639 54.1213 35.6725C54.2937 35.7849 54.4879 35.8382 54.6794 35.8382C55.0146 35.8382 55.3441 35.6734 55.5403 35.3715L60.1908 28.2134L61.4203 26.322L66.5822 29.6753L64.7879 32.4363C64.7879 32.4363 64.787 32.4382 64.786 32.4382L60.7089 38.7144C60.3994 39.1896 60.5346 39.8249 61.0098 40.1334C61.1822 40.2458 61.3765 40.2992 61.5679 40.2992C61.9032 40.2992 62.2327 40.1354 62.4289 39.8325L64.7813 36.2125C64.7813 36.2115 64.7822 36.2106 64.7832 36.2096L68.3022 30.7934L72.5937 33.582C72.767 33.6944 72.9603 33.7477 73.1518 33.7477C73.487 33.7477 73.8165 33.5839 74.0127 33.2811L79.3727 25.0315C79.5213 24.8039 79.5727 24.5258 79.5165 24.2601Z" fill="#18273C"/>
<path d="M48.8614 18.8012C48.8614 18.2345 48.4023 17.7755 47.8357 17.7755C47.269 17.7755 46.81 18.2345 46.81 18.8012V23.9307C46.81 28.4555 43.1281 32.1374 38.6023 32.1374C34.0776 32.1374 30.3957 28.4555 30.3957 23.9307V18.8012C30.3957 18.2345 29.9366 17.7755 29.37 17.7755C28.8033 17.7755 28.3442 18.2345 28.3442 18.8012V23.9307C28.3442 25.6145 28.7595 27.2002 29.4814 28.604C29.4119 28.7421 29.37 28.8955 29.37 29.0602V34.1888C29.37 34.7555 29.829 35.2155 30.3957 35.2155C30.9623 35.2155 31.4214 34.7555 31.4214 34.1888V31.244C33.2738 33.0631 35.8081 34.1888 38.6023 34.1888C41.3976 34.1888 43.9319 33.0631 45.7843 31.244V34.1888C45.7843 34.7555 46.2433 35.2155 46.81 35.2155C47.3766 35.2155 47.8357 34.7555 47.8357 34.1888V29.0602C47.8357 28.8955 47.7928 28.7421 47.7243 28.604C48.4462 27.2002 48.8614 25.6145 48.8614 23.9307V18.8012Z" fill="#18273C"/>
<path d="M29.1225 12.8924C29.1225 7.66481 33.3758 3.41243 38.6035 3.41243C43.8301 3.41243 48.0835 7.66481 48.0835 12.8924V14.6972H42.6968C43.3435 13.8382 43.732 12.7743 43.732 11.6191C43.732 8.79053 41.4311 6.48957 38.6035 6.48957C35.7749 6.48957 33.4739 8.79053 33.4739 11.6191C33.4739 12.7743 33.8625 13.8382 34.5092 14.6972H29.1225V12.8924ZM35.5254 11.6191C35.5254 9.92196 36.9063 8.54196 38.6035 8.54196C40.2997 8.54196 41.6806 9.92196 41.6806 11.6191C41.6806 13.3162 40.2997 14.6972 38.6035 14.6972C36.9063 14.6972 35.5254 13.3162 35.5254 11.6191ZM25.2663 16.7486H51.9397C52.5063 16.7486 52.9654 16.2896 52.9654 15.7229C52.9654 15.1562 52.5063 14.6972 51.9397 14.6972H50.1359V12.8924C50.1359 6.53338 44.9625 1.36005 38.6035 1.36005C32.2444 1.36005 27.0711 6.53338 27.0711 12.8924V14.6972H25.2663C24.7006 14.6972 24.2406 15.1562 24.2406 15.7229C24.2406 16.2896 24.7006 16.7486 25.2663 16.7486Z" fill="#18273C"/>
<path d="M51.9396 65.983L48.8624 65.9706V60.3487C48.8624 58.9344 47.711 57.7839 46.2976 57.7839C44.9224 57.7839 43.7976 58.8706 43.7348 60.2297C43.1729 62.904 42.17 65.5954 41.5891 65.9954C41.5672 65.9973 41.5472 66.003 41.5262 66.0068C41.4967 66.0106 41.4672 66.0154 41.4386 66.023C41.4034 66.0316 41.3691 66.043 41.3348 66.0554C41.3072 66.0649 41.2805 66.0744 41.2548 66.0868C41.2214 66.102 41.19 66.1201 41.1586 66.1382C41.1348 66.1525 41.11 66.1659 41.0872 66.1821C41.0576 66.204 41.031 66.2278 41.0034 66.2516C40.9824 66.2706 40.9614 66.2878 40.9424 66.3068C40.9167 66.3344 40.8938 66.364 40.871 66.3935C40.8691 66.3963 40.8662 66.3992 40.8634 66.403C40.6767 66.1544 40.3814 65.9906 40.0462 65.9906H25.9938C25.5929 65.9906 25.2671 65.6649 25.2671 65.264V38.6544C26.2557 38.4201 27.2852 38.2925 28.3443 38.2925V54.1935C28.3443 55.6078 29.4948 56.7582 30.9091 56.7582H46.2976C47.711 56.7582 48.8624 55.6078 48.8624 54.1935V38.2925C49.9215 38.2925 50.951 38.4201 51.9396 38.6544V65.983ZM52.6348 75.9163C52.4957 76.1259 52.2624 76.2497 52.011 76.2497H45.7024C44.4348 76.2497 43.3767 75.7078 42.7072 75.2459V67.6878C44.2081 66.6325 45.1824 63.3735 45.7634 60.5554C45.7776 60.4878 45.7843 60.4182 45.7843 60.3487C45.7843 60.0659 46.0138 59.8354 46.2976 59.8354C46.5805 59.8354 46.81 60.0659 46.81 60.3487V65.9706C46.81 67.1135 47.7396 68.043 48.8824 68.043H53.8891C53.9481 68.043 53.991 68.0859 53.991 68.1459V69.0687H52.9653C52.3986 69.0687 51.9396 69.5278 51.9396 70.0944C51.9396 70.6611 52.3986 71.1202 52.9653 71.1202H53.991V72.1459H52.9653C52.3986 72.1459 51.9396 72.6059 51.9396 73.1716C51.9396 73.7382 52.3986 74.1982 52.9653 74.1982H53.7043C53.6205 74.3944 53.5253 74.5859 53.4053 74.7659L52.6348 75.9163ZM15.0081 70.7306V51.6287C15.0081 46.0916 18.4005 41.3335 23.2148 39.3192V65.264C23.2148 66.7963 24.4614 68.043 25.9938 68.043H40.0462C40.2748 68.043 40.4843 67.9649 40.6548 67.8382V76.2497H20.5271C17.4843 76.2497 15.0081 73.7735 15.0081 70.7306ZM38.6034 41.3696C41.51 41.3696 44.3329 40.5925 46.81 39.1401V54.1935C46.81 54.4763 46.5805 54.7068 46.2976 54.7068H30.9091C30.6262 54.7068 30.3967 54.4763 30.3967 54.1935V39.1392C32.8853 40.5954 35.7034 41.3696 38.6034 41.3696ZM62.1986 51.6287V72.1459C62.1986 72.7125 62.6577 73.1716 63.2243 73.1716C63.791 73.1716 64.25 72.7125 64.25 72.1459V51.6287C64.25 44.6525 59.5815 38.7487 53.2053 36.8687C53.1929 36.8658 53.1805 36.8611 53.1672 36.8582C51.8005 36.4592 50.3567 36.2411 48.8624 36.2411H47.8053C47.7938 36.2411 47.7824 36.2439 47.771 36.2439C47.7348 36.2458 47.6996 36.2496 47.6643 36.2544C47.6329 36.2592 47.6005 36.263 47.57 36.2706C47.5376 36.2782 47.5062 36.2896 47.4738 36.3001C47.4424 36.3116 47.41 36.322 47.3795 36.3354C47.351 36.3487 47.3234 36.3649 47.2967 36.3811C47.2643 36.3992 47.2338 36.4173 47.2043 36.4382C47.1948 36.4449 47.1853 36.4496 47.1757 36.4563C46.9481 36.6335 46.6948 36.8077 46.3824 37.003C44.0653 38.5182 41.3757 39.3182 38.6034 39.3182C35.831 39.3182 33.1414 38.5182 30.8043 36.9896C30.5119 36.8087 30.2595 36.6344 30.031 36.4563C30.0214 36.4496 30.0119 36.4449 30.0024 36.4392C29.9729 36.4173 29.9414 36.3992 29.9091 36.3801C29.8824 36.3649 29.8557 36.3487 29.8272 36.3363C29.7967 36.322 29.7643 36.3106 29.731 36.3001C29.6995 36.2887 29.6691 36.2782 29.6367 36.2706C29.6062 36.263 29.5738 36.2592 29.5424 36.2544C29.5062 36.2496 29.471 36.2449 29.4357 36.2439C29.4243 36.2439 29.4129 36.2411 29.4014 36.2411H28.3443C26.85 36.2411 25.4062 36.4592 24.0386 36.8582C24.0262 36.8611 24.0138 36.8658 24.0005 36.8687C17.6252 38.7487 12.9567 44.6525 12.9567 51.6287V70.7306C12.9567 74.9049 16.3529 78.3011 20.5271 78.3011H41.6805C42.1415 78.3011 42.5262 77.9963 42.6557 77.5792C43.4862 77.9782 44.5186 78.3011 45.7024 78.3011H52.011C52.95 78.3011 53.8224 77.8354 54.3405 77.0563L55.111 75.9059C55.6081 75.1611 55.911 74.3144 56.0072 73.4287C56.0281 73.3459 56.0434 73.2611 56.0434 73.1716C56.0434 73.1402 56.0367 73.1106 56.0338 73.0792C56.0377 72.9944 56.0434 72.9087 56.0434 72.823V68.1459C56.0434 66.9925 55.131 66.0563 53.991 66.0011V39.3192C58.8062 41.3335 62.1986 46.0916 62.1986 51.6287Z" fill="#18273C"/>
<path d="M38.6025 -0.691429C43.9463 -0.691429 48.8149 2.46762 51.0063 7.3562C51.1768 7.7362 51.5511 7.96286 51.9425 7.96286C52.0835 7.96286 52.2254 7.93334 52.3625 7.87239C52.8787 7.64001 53.1101 7.03334 52.8787 6.5162C50.3568 0.89143 44.753 -2.74286 38.6025 -2.74286C38.0358 -2.74286 37.5768 -2.28381 37.5768 -1.71714C37.5768 -1.15048 38.0358 -0.691429 38.6025 -0.691429Z" fill="#00ACE4"/>
<path d="M51.8113 9.53621C51.8113 10.1724 52.3294 10.6905 52.9656 10.6905C53.6018 10.6905 54.1199 10.1724 54.1199 9.53621C54.1199 8.90002 53.6018 8.38193 52.9656 8.38193C52.3294 8.38193 51.8113 8.90002 51.8113 9.53621Z" fill="#00ACE4"/>
<path d="M63.2234 74.0696C62.5872 74.0696 62.0691 74.5877 62.0691 75.2239C62.0691 75.8601 62.5872 76.3782 63.2234 76.3782C63.8596 76.3782 64.3777 75.8601 64.3777 75.2239C64.3777 74.5877 63.8596 74.0696 63.2234 74.0696Z" fill="#00ACE4"/>
<path d="M20.527 80.3525C15.2212 80.3525 10.9041 76.0353 10.9041 70.7296V59.8353C10.9041 59.2686 10.445 58.8096 9.87838 58.8096C9.31171 58.8096 8.85266 59.2686 8.85266 59.8353V70.7296C8.85266 77.1667 14.0898 82.4039 20.527 82.4039C21.0936 82.4039 21.5527 81.9448 21.5527 81.3782C21.5527 80.8115 21.0936 80.3525 20.527 80.3525Z" fill="#00ACE4"/>
</g>
<defs>
<clipPath id="clip0_149_796">
<rect width="80" height="80" fill="white"/>
</clipPath>
</defs>
</svg>
