<svg width="80" height="80" viewBox="0 0 80 80" fill="none" xmlns="http://www.w3.org/2000/svg">
<path d="M55.3365 13.5213H17.6141C15.2098 13.5213 13.2607 11.5722 13.2607 9.16795C13.2607 6.76277 15.2098 4.81461 17.6141 4.81461H55.3365L53.0942 7.10344L53.6248 11.2464L55.3365 13.5213Z" fill="#00ACE4"/>
<path d="M56.6864 14.8541H15.5749C9.30135 14.8541 6.19062 7.23738 10.5961 2.83191C12.9845 0.444417 16.0785 0.771127 15.5768 0.771127C25.3446 0.776712 51.432 0.787882 58.6243 0.787882C59.9498 0.787882 59.9516 2.79282 58.6243 2.79282C48.2887 2.79282 15.3934 2.77607 15.5731 2.77607C12.7918 2.77607 10.5384 5.02673 10.5384 7.81261C10.5384 10.5892 12.7974 12.8492 15.5749 12.8492H56.6864C57.2402 12.8492 57.6889 13.2978 57.6889 13.8516C57.6889 14.4055 57.2402 14.8541 56.6864 14.8541Z" fill="#18273C"/>
<path d="M71.6815 64.3297C71.6815 65.8162 73.9313 65.8153 73.9313 64.3297C73.9313 62.8432 71.6815 62.8432 71.6815 64.3297Z" fill="#18273C"/>
<path d="M55.356 54.1944C53.0151 54.1944 51.1088 56.1006 51.1088 58.4416C51.1088 60.7826 53.0151 62.6888 55.356 62.6888C57.697 62.6888 59.6033 60.7826 59.6033 58.4416C59.6033 56.1006 57.697 54.1944 55.356 54.1944Z" fill="#00ACE4"/>
<path d="M55.3561 64.5773C51.9726 64.5773 49.2212 61.8259 49.2212 58.4425C49.2212 55.0581 51.9726 52.3066 55.3561 52.3066C58.7395 52.3066 61.4909 55.0581 61.4909 58.4425C61.4909 61.8259 58.7395 64.5773 55.3561 64.5773ZM63.535 57.3804C64.2098 56.337 63.7565 54.9361 62.5958 54.4921C61.8782 54.2185 61.3867 53.5437 61.3495 52.7739C61.2834 51.5331 60.0938 50.6694 58.8949 50.9905C58.1959 51.1841 57.3824 50.9607 56.8705 50.3343C56.0923 49.3672 54.6198 49.3672 53.8407 50.3343C53.3548 50.9337 52.5618 51.1934 51.8162 50.9905C50.6639 50.6703 49.4306 51.4987 49.3626 52.7739C49.3245 53.5437 48.834 54.2185 48.1163 54.4921C46.9556 54.9361 46.5023 56.337 47.1771 57.3804C47.5979 58.0227 47.5979 58.8567 47.1771 59.5036C46.5023 60.547 46.9556 61.9441 48.1163 62.3872C48.834 62.6655 49.3245 63.3366 49.3626 64.1101C49.4287 65.3462 50.6174 66.2146 51.8162 65.8888C52.6083 65.685 53.3772 65.9763 53.8407 66.5497C54.6198 67.5121 56.0923 67.5121 56.8705 66.5497C57.3573 65.9503 58.1494 65.6906 58.8949 65.8888C60.0882 66.2211 61.2834 65.3462 61.3495 64.1101C61.3867 63.3366 61.8782 62.6655 62.5958 62.3872C63.7565 61.9441 64.2098 60.547 63.535 59.5036C63.1143 58.8567 63.1143 58.0227 63.535 57.3804Z" fill="#00ACE4"/>
<path d="M58.4836 67.7133C58.4576 67.7068 58.4343 67.7152 58.4194 67.7338C56.8817 69.6354 53.9851 69.6326 52.4511 67.7338C52.4353 67.7152 52.4102 67.7068 52.3869 67.7133C51.8387 67.8604 51.2765 67.8818 50.7347 67.7887V79.5419L55.3115 74.9652L59.8882 79.5419H60.173V67.7841C59.6192 67.8855 59.044 67.8641 58.4836 67.7133Z" fill="#00ACE4"/>
<path d="M59.5866 24.1742H25.4943C24.9442 24.1742 24.4993 23.7293 24.4993 23.1802C24.4993 22.631 24.9442 22.1861 25.4943 22.1861H59.5866C60.1358 22.1861 60.5807 22.631 60.5807 23.1802C60.5807 23.7293 60.1358 24.1742 59.5866 24.1742Z" fill="#18273C"/>
<path d="M51.6785 30.2412H31.2372C30.6871 30.2412 30.2422 29.7963 30.2422 29.2471C30.2422 28.698 30.6871 28.2531 31.2372 28.2531H51.6785C52.2276 28.2531 52.6726 28.698 52.6726 29.2471C52.6726 29.7963 52.2276 30.2412 51.6785 30.2412Z" fill="#18273C"/>
<path d="M27.015 30.2412H25.4941C24.9449 30.2412 24.5 29.7963 24.5 29.2471C24.5 28.698 24.9449 28.2531 25.4941 28.2531H27.015C27.5642 28.2531 28.0091 28.698 28.0091 29.2471C28.0091 29.7963 27.5642 30.2412 27.015 30.2412Z" fill="#18273C"/>
<path d="M58.5839 37.2176H56.7418C56.1927 37.2176 55.7468 36.7727 55.7468 36.2235C55.7468 35.6744 56.1927 35.2294 56.7418 35.2294H58.5839C59.1331 35.2294 59.578 35.6744 59.578 36.2235C59.578 36.7727 59.1331 37.2176 58.5839 37.2176Z" fill="#18273C"/>
<path d="M52.2797 37.2176H25.4941C24.9449 37.2176 24.5 36.7727 24.5 36.2235C24.5 35.6744 24.9449 35.2294 25.4941 35.2294H52.2797C52.8288 35.2294 53.2738 35.6744 53.2738 36.2235C53.2738 36.7727 52.8288 37.2176 52.2797 37.2176Z" fill="#18273C"/>
<path d="M59.1603 44.1491H25.4934C24.9442 44.1491 24.4993 43.7033 24.4993 43.1551C24.4993 42.605 24.9442 42.16 25.4934 42.16H59.1603C59.7095 42.16 60.1544 42.605 60.1544 43.1551C60.1544 43.7033 59.7095 44.1491 59.1603 44.1491Z" fill="#18273C"/>
<path d="M26.6457 51.361H25.1416C23.817 51.361 23.8152 49.356 25.1416 49.356H26.6457C27.1995 49.356 27.6482 49.8047 27.6482 50.3585C27.6482 50.9123 27.1995 51.361 26.6457 51.361ZM33.1632 51.361H31.659C31.1052 51.361 30.6565 50.9123 30.6565 50.3585C30.6565 49.8047 31.1052 49.356 31.659 49.356H33.1632C33.7161 49.356 34.1656 49.8047 34.1656 50.3585C34.1656 50.9123 33.7161 51.361 33.1632 51.361ZM39.6797 51.361H38.1755C37.6226 51.361 37.173 50.9123 37.173 50.3585C37.173 49.8047 37.6226 49.356 38.1755 49.356H39.6797C40.2335 49.356 40.6822 49.8047 40.6822 50.3585C40.6822 50.9123 40.2335 51.361 39.6797 51.361Z" fill="#18273C"/>
<path d="M42.6947 57.7425H25.1417C23.8284 57.7425 23.8265 55.7544 25.1417 55.7544H42.6947C43.2439 55.7544 43.6888 56.1993 43.6888 56.7485C43.6888 57.2976 43.2439 57.7425 42.6947 57.7425Z" fill="#18273C"/>
<path d="M72.8205 60.2205C72.2666 60.2205 71.818 59.7718 71.818 59.218L71.8031 13.1221C71.8031 12.5683 72.2517 12.1187 72.8056 12.1187C73.3613 12.1187 73.809 12.5692 73.809 13.1212L73.8229 59.2171C73.8229 59.7709 73.3743 60.2205 72.8205 60.2205Z" fill="#18273C"/>
<path d="M67.9685 73.4572C66.4001 73.4572 65.5633 72.8652 64.8903 72.3905C64.3151 71.9837 63.8999 71.6905 62.9682 71.6905C62.4144 71.6905 61.9657 71.2419 61.9657 70.688C61.9657 70.1342 62.4144 69.6856 62.9682 69.6856C65.2403 69.6856 65.9384 70.9059 66.9651 71.2912C66.9651 71.2326 66.9455 12.9302 66.9511 12.8725C66.9744 12.5597 67.4677 5.16734 61.3198 2.94832C55.8588 1.36131 51.2085 7.72331 55.2417 11.7304C57.4625 13.9336 60.6021 12.879 61.3272 10.4217C61.734 9.04597 60.9447 7.59486 59.5689 7.18903C59.0375 7.03173 58.734 6.47418 58.8913 5.94362C59.5159 3.82327 64.4742 6.84743 63.2502 10.9895C62.7039 12.8408 61.2016 14.2882 59.3297 14.7685C54.3341 16.0446 49.9166 10.0652 52.4837 5.06588C54.3649 1.4004 58.6326 -0.0618839 61.9685 1.04949C69.306 3.67248 68.9951 12.2386 68.9532 12.9814L68.9709 72.4538C68.9709 72.72 68.8658 72.975 68.6777 73.164C68.4897 73.352 68.2347 73.4572 67.9685 73.4572Z" fill="#18273C"/>
<path d="M47.958 73.4572C46.3887 73.4572 45.551 72.8662 44.878 72.3905C44.3019 71.9838 43.8858 71.6906 42.9531 71.6906C42.0205 71.6906 41.6044 71.9838 41.0292 72.3905C39.0187 73.8109 36.9476 73.8593 34.8673 72.3905C34.2921 71.9838 33.8769 71.6906 32.9443 71.6906C32.0107 71.6906 31.5946 71.9838 31.0184 72.3905C29.02 73.8016 26.949 73.8686 24.8538 72.3905C24.2767 71.9838 23.8606 71.6906 22.9261 71.6906C20.8876 71.6906 20.7638 73.4572 17.9147 73.4572C17.2827 73.4572 16.713 73.1156 16.713 72.4371V14.2706C16.713 12.9461 18.718 12.9442 18.718 14.2706V71.3564C19.1526 71.2382 19.4626 71.0195 19.8433 70.7523C21.8501 69.3356 23.922 69.2798 26.0089 70.7523C26.586 71.1581 27.0021 71.4523 27.9366 71.4523C29.9722 71.4523 30.097 69.6856 32.9443 69.6856C35.7748 69.6856 35.9284 71.4523 37.9473 71.4523C39.983 71.4523 40.1058 69.6856 42.9531 69.6856C45.7809 69.6856 45.9429 71.4523 47.958 71.4523C48.5119 71.4523 48.9605 71.9009 48.9605 72.4547C48.9605 73.0086 48.5119 73.4572 47.958 73.4572Z" fill="#18273C"/>
<path d="M6.291 59.2189L6.27052 26.4632C6.26866 26.3236 6.27703 26.1756 6.29565 26.0304C6.30868 25.9177 6.33288 25.8023 6.36081 25.6878C6.35894 25.685 6.36825 25.6404 6.38035 25.5985C6.4362 25.3909 6.51625 25.1796 6.61957 24.973C6.63725 24.9255 6.65773 24.879 6.68286 24.8343L8.23078 22.0419C8.79577 21.0208 10.2711 20.9603 10.9003 21.9786L12.7489 24.6993L12.7675 24.7273C12.7777 24.744 12.788 24.7598 12.7963 24.7738C13.0858 25.2801 13.2394 25.8433 13.245 26.4092L13.2515 59.218C13.2515 60.5443 11.2466 60.5434 11.2466 59.218L11.24 26.4185C11.2382 26.2137 11.1805 25.9978 11.0744 25.8023L9.62325 23.6661L8.49885 25.6953C8.48302 25.7344 8.46441 25.7735 8.443 25.8116C8.39087 25.9066 8.35085 26.0024 8.32293 26.0974C8.31827 26.1207 8.31362 26.1421 8.30803 26.1635C8.30152 26.1951 8.29035 26.2351 8.28476 26.278C8.27732 26.3375 8.27453 26.3924 8.27546 26.4483L8.29593 59.218C8.29686 59.7709 7.84822 60.2204 7.2944 60.2204C6.73871 60.2204 6.291 59.7709 6.291 59.2189Z" fill="#18273C"/>
<path d="M9.62027 23.1439C9.06644 23.1439 8.6178 22.6952 8.6178 22.1414V19.9559C8.6178 18.6314 10.6227 18.6295 10.6227 19.9559V22.1414C10.6227 22.6952 10.1741 23.1439 9.62027 23.1439Z" fill="#18273C"/>
<path d="M11.9669 60.2203H7.29146C5.96693 60.2203 5.96507 58.2154 7.29146 58.2154H11.9669C12.5207 58.2154 12.9693 58.664 12.9693 59.2179C12.9693 59.7717 12.5207 60.2203 11.9669 60.2203Z" fill="#18273C"/>
<path d="M9.82252 71.9196C8.09217 71.9196 6.68945 70.5169 6.68945 68.7866V62.1444H12.9556V68.7866C12.9556 70.5169 11.5529 71.9196 9.82252 71.9196Z" fill="#00ACE4"/>
</svg>
