<svg width="24" height="24" viewBox="0 0 24 24" fill="none" xmlns="http://www.w3.org/2000/svg">
<path fill-rule="evenodd" clip-rule="evenodd" d="M11.9999 6.75C11.9999 6.75 14.1746 6.75 15.7122 8.28769C15.7122 8.28769 17.2499 9.82538 17.2499 12C17.2499 12 17.2499 14.1746 15.7122 15.7123C15.7122 15.7123 14.1746 17.25 11.9999 17.25C11.9999 17.25 9.82532 17.25 8.28763 15.7123C8.28763 15.7123 6.74994 14.1746 6.74994 12C6.74994 12 6.74994 9.82538 8.28763 8.28769C8.28763 8.28769 9.82532 6.75 11.9999 6.75ZM11.9999 8.25C11.9999 8.25 10.4466 8.25 9.34829 9.34835C9.34829 9.34835 8.24994 10.4467 8.24994 12C8.24994 12 8.24994 13.5533 9.34829 14.6517C9.34829 14.6517 10.4466 15.75 11.9999 15.75C11.9999 15.75 13.5532 15.75 14.6516 14.6517C14.6516 14.6517 15.7499 13.5533 15.7499 12C15.7499 12 15.7499 10.4467 14.6516 9.34835C14.6516 9.34835 13.5532 8.25 11.9999 8.25Z" fill="#828282"/>
<path fill-rule="evenodd" clip-rule="evenodd" d="M17.5986 3.43765L17.9271 5.73703C17.9271 5.73703 18.0994 5.90268 18.263 6.0728L20.5622 6.40126C20.7905 6.43387 20.9911 6.56965 21.1061 6.76947C21.1061 6.76947 21.783 7.94494 22.1365 9.2545C22.1967 9.47747 22.1508 9.71574 22.0121 9.9004L20.6153 11.76C20.6153 11.76 20.6229 12.0328 20.6184 12.2441L22.0121 14.0995C22.1506 14.2839 22.1966 14.5218 22.1367 14.7445C22.1367 14.7445 21.7846 16.0556 21.1056 17.2313C20.9905 17.4307 20.7901 17.5661 20.5622 17.5987L18.2575 17.9279C18.2575 17.9279 18.0719 18.1185 17.9275 18.26L17.5986 20.5623C17.566 20.7905 17.4302 20.9911 17.2304 21.1062C17.2304 21.1062 16.0549 21.783 14.7454 22.1365C14.5224 22.1967 14.2841 22.1508 14.0995 22.0121L12.2492 20.6223C12.2492 20.6223 11.9999 20.6324 11.7507 20.6223L9.90034 22.0121C9.71595 22.1506 9.47809 22.1966 9.25536 22.1368C9.25536 22.1368 7.94423 21.7846 6.76858 21.1057C6.5692 20.9906 6.43376 20.7902 6.4012 20.5623L6.07213 18.2588C6.07213 18.2588 5.90444 18.0954 5.74106 17.9277L3.43759 17.5987C3.20934 17.5661 3.00876 17.4303 2.89371 17.2305C2.89371 17.2305 2.21685 16.055 1.86333 14.7454C1.80314 14.5225 1.84903 14.2842 1.98773 14.0995L3.38452 12.24C3.38452 12.24 3.37692 11.9671 3.38145 11.7559L1.98773 9.9004C1.84923 9.71601 1.80326 9.47815 1.86308 9.25542C1.86308 9.25542 2.21524 7.94428 2.89418 6.76864C3.00933 6.56926 3.20967 6.43382 3.43759 6.40126L5.74106 6.07219C5.74106 6.07219 5.90444 5.9045 6.07213 5.74113L6.4012 3.43765C6.4338 3.2094 6.56959 3.00882 6.76941 2.89377C6.76941 2.89377 7.94489 2.21691 9.25444 1.86339C9.47741 1.8032 9.71568 1.84909 9.90034 1.9878L11.7507 3.37762C11.7507 3.37762 11.9999 3.36753 12.2492 3.37762L14.0995 1.9878C14.2839 1.84929 14.5217 1.80332 14.7445 1.86314C14.7445 1.86314 16.0556 2.2153 17.2312 2.89424C17.4306 3.00939 17.5661 3.20973 17.5986 3.43765ZM16.4793 6.20916L16.1666 4.01989C16.1666 4.01989 15.4612 3.64959 14.7009 3.41209L12.9285 4.74339C12.7804 4.85461 12.5964 4.90712 12.412 4.8908C12.412 4.8908 11.9999 4.85437 11.5878 4.8908C11.4034 4.90712 11.2194 4.85461 11.0714 4.74339L9.29937 3.4124C9.29937 3.4124 8.53901 3.65066 7.83318 4.0204L7.5205 6.20916C7.49654 6.37687 7.41651 6.53153 7.29343 6.64795C7.29343 6.64795 6.96169 6.96175 6.64788 7.29349C6.53147 7.41657 6.37681 7.4966 6.2091 7.52056L4.01983 7.83331C4.01983 7.83331 3.64953 8.53863 3.41203 9.29902L4.74333 11.0714C4.85452 11.2194 4.90703 11.4034 4.89076 11.5878C4.89076 11.5878 4.86699 11.8571 4.89293 12.445C4.90059 12.6187 4.84771 12.7896 4.74333 12.9285L3.41234 14.7005C3.41234 14.7005 3.6506 15.4609 4.02034 16.1667L6.2091 16.4794C6.37681 16.5033 6.53146 16.5834 6.64788 16.7064C6.64788 16.7064 6.9617 17.0382 7.29343 17.352C7.41651 17.4684 7.49654 17.6231 7.5205 17.7908L7.83325 19.98C7.83325 19.98 8.53857 20.3504 9.29895 20.5878L11.0714 19.2565C11.2194 19.1453 11.4034 19.0928 11.5878 19.1091C11.5878 19.1091 11.9999 19.1456 12.412 19.1091C12.5964 19.0928 12.7804 19.1453 12.9285 19.2565L14.7004 20.5875C14.7004 20.5875 15.4608 20.3493 16.1666 19.9795L16.4793 17.7908C16.5038 17.6195 16.5867 17.462 16.714 17.3449C16.714 17.3449 16.9311 17.1451 17.3555 16.7027C17.4716 16.5817 17.6248 16.5031 17.7907 16.4794L19.98 16.1666C19.98 16.1666 20.3503 15.4613 20.5878 14.7009L19.2565 12.9285C19.1453 12.7805 19.0928 12.5966 19.1091 12.4122C19.1091 12.4122 19.1328 12.1428 19.1069 11.5549C19.0992 11.3813 19.1521 11.2104 19.2565 11.0714L20.5875 9.29943C20.5875 9.29943 20.3492 8.53907 19.9795 7.83324L17.7907 7.52056C17.6193 7.49607 17.4617 7.41305 17.3445 7.28556C17.3445 7.28556 17.0469 6.9617 16.7137 6.65475C16.5865 6.53766 16.5038 6.38026 16.4793 6.20916Z" fill="#828282"/>
</svg>
