<svg width="80" height="80" viewBox="0 0 80 80" fill="none" xmlns="http://www.w3.org/2000/svg">
<path d="M63.3257 50.3456L61.2124 48.2427C60.9915 48.0198 60.7429 47.8465 60.4848 47.6951L50.4314 37.6417C51.8267 39.037 51.8267 41.3036 50.4314 42.6989C49.8543 43.276 49.1219 43.6132 48.3648 43.7084C47.3114 43.8427 46.5267 44.6265 46.3943 45.6798C46.2981 46.4398 45.9619 47.1751 45.3838 47.757C44.8019 48.3341 44.0667 48.6713 43.3067 48.7665C42.2543 48.8998 41.4705 49.6837 41.3362 50.737C41.24 51.4951 40.9038 52.2265 40.3267 52.8037C39.7448 53.3856 39.0124 53.7246 38.2543 53.8208C37.2191 53.9541 36.4076 54.7094 36.2933 55.7475C36.2876 55.7951 36.2819 55.8437 36.2743 55.8922L36.7876 59.9437L36.9105 60.057L37.2486 59.7179C37.9467 59.0208 38.8695 58.6722 39.7829 58.6722C40.4705 58.6722 41.1572 58.8665 41.7524 59.257C41.7629 59.2665 41.7829 59.277 41.7933 59.2875C41.9781 59.4103 42.1419 59.5541 42.3067 59.7179C42.46 59.8722 42.5933 60.036 42.7172 60.2103C43.3295 61.0903 43.4952 62.1932 43.2191 63.197C43.2191 63.197 43.2295 63.196 43.2295 63.1856L44.02 61.9856L44.3572 61.7732C44.3724 61.7903 44.3829 61.8094 44.3991 61.8256L46.5029 63.9294C46.6667 64.0827 46.8305 64.2265 47.0153 64.3389C48.4 65.2932 50.3286 65.1599 51.56 63.9294C52.2572 63.2313 52.5962 62.3179 52.5962 61.3951C52.5962 60.7189 52.4029 60.0551 52.02 59.4694C53.3981 60.3627 55.2724 60.217 56.4791 59.0103C57.1762 58.3132 57.5153 57.3998 57.5153 56.476C57.5153 55.7684 57.3095 55.0713 56.8886 54.4656C56.8057 54.3294 56.6962 54.2094 56.5867 54.0875L56.8114 53.9465L58.2676 55.4027C58.4324 55.557 58.5962 55.7008 58.781 55.8132C60.1657 56.7675 62.0943 56.6341 63.3257 55.4027C64.0229 54.7056 64.3619 53.7922 64.3619 52.8694C64.3619 52.1617 64.1562 51.4637 63.7362 50.8589C63.6229 50.6741 63.4895 50.5094 63.3257 50.3456Z" fill="#00ACE4"/>
<path d="M66.7981 28.7321L61.8019 33.7283C58.4305 37.0998 53.3943 37.835 49.2828 35.9588L64.1609 50.5141C71.0352 44.8855 70.3514 39.756 74.3381 36.8988L66.7981 28.7321Z" fill="#00ACE4"/>
<path d="M74.7901 31.684C75.6797 32.3064 76.9062 32.0915 77.5294 31.2024C78.1526 30.3134 77.9369 29.0864 77.0473 28.4639C76.1582 27.8407 74.9325 28.0562 74.3086 28.9447C73.6861 29.8343 73.9011 31.0608 74.7901 31.684Z" fill="#18273C"/>
<path d="M69.4267 41.8855C68.2819 44.1893 66.9714 46.7798 63.8781 49.5321L63.48 49.134C63.4772 49.1312 63.4733 49.1302 63.4705 49.1274L44.3895 30.0464C43.0219 28.6635 40.7695 28.6321 39.3705 29.9759C37.7286 31.5464 35.3638 33.8016 33.9771 35.1236L32.8552 36.1931C32.4333 36.5978 31.8648 36.8312 31.2905 36.7988C30.7009 36.7864 30.1562 36.5464 29.7514 36.1216L29.2905 35.6407C29.2371 35.5816 29.1809 35.5283 29.0924 35.3931C28.4343 34.5178 28.5381 33.2788 29.3305 32.514L39.6409 22.655C40.0905 22.2245 40.5724 21.8264 41.0819 21.4635C43.779 19.5083 47.4152 18.9502 50.8105 19.9721C54.6048 21.1216 57.5267 21.5083 59.5276 21.1302L73.1191 36.7236C71.3134 38.1159 70.3905 39.9464 69.4267 41.8855ZM62.5933 54.7531C61.6353 55.7083 59.94 55.7045 58.9924 54.7559L57.5714 53.3226C57.481 53.2131 57.4048 53.095 57.3029 52.9931L50.701 46.3921C50.6514 46.3426 50.5886 46.3178 50.5333 46.2807C50.4762 46.2426 50.4248 46.1931 50.3629 46.1674C50.3 46.1417 50.2314 46.1407 50.1648 46.1283C50.1019 46.1159 50.041 46.0921 49.9771 46.0921C49.9171 46.0912 49.86 46.115 49.8 46.1255C49.7295 46.1378 49.6581 46.1388 49.5914 46.1664C49.5324 46.1893 49.4848 46.2369 49.4305 46.2721C49.3705 46.3102 49.3048 46.3369 49.2533 46.3883L49.2495 46.3921C49.2057 46.4359 49.1857 46.4912 49.1514 46.5407C49.1076 46.6026 49.0533 46.6607 49.0257 46.7293C49.0038 46.7836 49.0048 46.8417 48.9924 46.8978C48.9762 46.9702 48.9495 47.0407 48.9495 47.115C48.9495 47.1874 48.9752 47.2569 48.9905 47.3274C49.0029 47.3855 49.0019 47.4455 49.0238 47.5007C49.0514 47.5683 49.1038 47.6245 49.1467 47.6864C49.181 47.7378 49.2019 47.794 49.2467 47.8398L56.121 54.7731C56.8276 55.7674 56.7419 57.1569 55.8514 58.0483C54.8581 59.0398 53.241 59.0398 52.2476 58.0483L52.1371 57.9379L45.5019 51.3017C45.101 50.9007 44.4524 50.9007 44.0514 51.3017C43.6505 51.7026 43.6505 52.3521 44.0514 52.7521L47.2486 55.9493L47.2495 55.9512L50.6867 59.3883C51.1648 59.8664 51.4276 60.5064 51.4276 61.1902C51.4276 61.8741 51.1648 62.514 50.6867 62.9921C49.6924 63.9855 48.0762 63.9855 47.0819 62.9921L43.1543 59.0645C43.1076 59.0179 43.0476 58.994 42.9943 58.9579C42.7867 58.755 42.5924 58.5902 42.3886 58.4512L42.3857 58.4483C42.3619 58.4312 42.3381 58.414 42.3143 58.3979C41.0981 57.6007 39.5419 57.4836 38.1952 57.9636C38.1209 56.895 37.6962 55.8474 36.8809 55.0321C36.0143 54.1664 34.86 53.6893 33.6286 53.6893C33.0933 53.6893 32.579 53.795 32.0905 53.9674C32.0162 52.855 31.5695 51.8169 30.7771 51.0264C29.9114 50.1598 28.7562 49.6826 27.5247 49.6826C26.2933 49.6826 25.1381 50.1598 24.2724 51.0264L24.0505 51.2474C23.8695 50.3836 23.4476 49.5902 22.8114 48.954C21.9457 48.0874 20.7905 47.6112 19.559 47.6112C18.3276 47.6112 17.1724 48.0874 16.3076 48.9531L16.0809 49.1798L15.759 48.9055C14.3809 47.7293 14.299 47.6578 13.6381 46.9978C11.6152 44.9855 10.36 42.755 9.49045 41.034C9.16759 40.3988 8.87521 39.7836 8.59521 39.1988C8.08664 38.1293 7.59902 37.1197 7.05902 36.2531L20.2524 21.1159C22.14 21.4816 24.8486 21.1607 28.2933 20.1607C28.5162 20.1054 28.7371 20.0397 28.9581 19.974C32.1676 19.0054 35.5828 19.4673 38.2257 21.1702C38.2238 21.1712 38.2229 21.1721 38.2219 21.174L27.9086 31.035C26.3695 32.5216 26.1724 34.9245 27.4038 36.5559C27.5067 36.7178 27.6343 36.8674 27.7886 37.0378L28.2676 37.5388C29.0476 38.3588 30.1048 38.8245 31.2438 38.8512C32.3971 38.855 33.4581 38.4578 34.2752 37.674L35.3924 36.6093C36.78 35.2864 39.1467 33.0302 40.7905 31.4578C41.3952 30.8731 42.3362 30.8883 42.9352 31.494L62.0257 50.5845C62.0286 50.5874 62.0324 50.5874 62.0353 50.5902L62.5933 51.1483C63.5867 52.1426 63.5867 53.7588 62.5933 54.7531ZM41.579 64.0417L39.48 66.1521C39.3676 66.2626 39.2638 66.3474 39.1048 66.4464C38.1314 67.1245 36.7009 66.9817 35.8705 66.1541C35.0057 65.2883 34.8838 63.9264 35.6124 62.8664C35.6733 62.7655 35.7733 62.6531 35.8552 62.5636L36.8809 61.5379C36.8838 61.535 36.8857 61.5321 36.8876 61.5293L37.9743 60.4436C38.4552 59.9626 39.0971 59.6979 39.7829 59.6979C40.2771 59.6979 40.7543 59.836 41.1638 60.0979C41.1828 60.1131 41.2029 60.1264 41.2229 60.1398C41.3524 60.2264 41.4657 60.3283 41.579 60.4417C41.6886 60.5521 41.7867 60.6712 41.8743 60.7969C42.5676 61.7921 42.4429 63.1855 41.579 64.0417ZM30.9448 64.5731C29.9867 65.5283 28.2971 65.5283 27.34 64.5731C26.3486 63.5807 26.3476 61.9683 27.3352 60.974L29.259 59.0493L31.8257 56.4836C32.3048 56.0045 32.9438 55.7407 33.6286 55.7407C34.3114 55.7407 34.9514 56.0045 35.4305 56.4836C36.4219 57.474 36.4238 59.0836 35.4371 60.0788L34.3943 61.1207C34.3895 61.1264 34.3848 61.1321 34.38 61.1379L30.9448 64.5731ZM25.779 59.6293C24.8209 60.5845 23.1295 60.5836 22.1752 59.6293C21.6962 59.1502 21.4333 58.5102 21.4333 57.8264C21.4333 57.2226 21.6486 56.6598 22.0266 56.2055C22.0981 56.1426 22.179 56.0921 22.2476 56.0245L22.8114 55.4607C22.9362 55.336 23.0343 55.1931 23.1428 55.0569L25.7228 52.4769C26.2019 51.9979 26.8409 51.734 27.5247 51.734C28.2086 51.734 28.8476 51.9979 29.3267 52.4769C29.8057 52.9559 30.0686 53.595 30.0686 54.2788C30.0686 54.9626 29.8057 55.6017 29.3267 56.0807L25.8895 59.5179C25.8876 59.5198 25.8867 59.5217 25.8847 59.5226L25.779 59.6293ZM17.1924 54.574C16.2 53.5798 16.2 51.9626 17.1914 50.9702L17.7571 50.4055C18.2362 49.9264 18.8752 49.6626 19.559 49.6626C20.2428 49.6626 20.8819 49.9264 21.3609 50.4055C21.84 50.8836 22.1028 51.5236 22.1028 52.2074C22.1028 52.7179 21.9562 53.2036 21.6819 53.6169L20.7247 54.574C20.6724 54.6264 20.6343 54.6893 20.5847 54.7436C19.6057 55.514 18.0847 55.4645 17.1924 54.574ZM78.6591 34.4226C78.2848 33.995 77.6362 33.9521 77.2115 34.3236L75.2448 36.0388L60.9 19.5816C60.8153 19.375 60.6714 19.2131 60.4933 19.1026L67.6334 12.8788C68.06 12.5054 68.1057 11.8578 67.7324 11.4312C67.3591 11.0035 66.7105 10.9597 66.2848 11.3321L58.3657 18.235C58.0772 18.4873 57.9791 18.8626 58.0505 19.2131C56.4152 19.2416 54.1391 18.8369 51.4038 18.0083C47.401 16.8045 43.0924 17.4731 39.8857 19.7959L39.8848 19.7969C36.6733 17.4731 32.3676 16.8035 28.3657 18.0093C28.1762 18.0664 27.9867 18.1226 27.7609 18.1807C25.2809 18.8988 23.2266 19.2445 21.6819 19.2045C21.6933 19.1321 21.7152 19.0607 21.7105 18.9854C21.6914 18.714 21.5666 18.4616 21.3609 18.2826L13.4419 11.3797C13.0162 11.0092 12.3676 11.0521 11.9943 11.4788C11.6209 11.9064 11.6666 12.554 12.0933 12.9264L19.2266 19.1445C19.0962 19.2388 18.979 19.3521 18.9009 19.5064C18.8933 19.5235 18.8952 19.5416 18.8876 19.5588L4.48187 36.0864L2.51425 34.3721C2.08949 34.0007 1.43996 34.0445 1.06663 34.4712C0.69425 34.8988 0.739008 35.5474 1.16568 35.9188L3.90664 38.3074C4.10187 38.4759 4.34187 38.5597 4.58092 38.5597C4.86664 38.5597 5.1514 38.4397 5.35425 38.2074L5.63997 37.8807C5.99997 38.5274 6.35425 39.2626 6.74283 40.0797C7.02949 40.6817 7.33044 41.3121 7.65997 41.9617C8.59806 43.8169 9.95997 46.2321 12.1895 48.4502C12.9047 49.1655 13.0485 49.2893 14.4266 50.4664L14.7619 50.7531C14.7905 50.7769 14.8257 50.7864 14.8552 50.8074C14.0485 52.515 14.3324 54.614 15.7419 56.0245C16.6085 56.8902 17.7638 57.3664 18.9943 57.3664C19.1428 57.3664 19.2847 57.3379 19.4305 57.3245C19.4124 57.4912 19.3809 57.6559 19.3809 57.8264C19.3809 59.0579 19.8581 60.2131 20.7247 61.0798C21.5905 61.9455 22.7457 62.4217 23.9781 62.4217C24.1838 62.4217 24.3828 62.3893 24.5838 62.3626C24.4686 63.6731 24.8895 65.0226 25.8895 66.0236C26.7562 66.8893 27.9105 67.3664 29.1419 67.3664C30.3733 67.3664 31.5286 66.8893 32.3952 66.0236L33.179 65.2398C33.3486 66.1112 33.7552 66.9398 34.42 67.6055C35.2838 68.4664 36.4409 68.9407 37.68 68.9407C38.6162 68.9407 39.5143 68.6607 40.2276 68.1636C40.4733 68.0121 40.7009 67.8302 40.9305 67.6026L43.0286 65.4941C43.7067 64.8207 44.119 63.9807 44.2867 63.0979L45.6314 64.4426C46.5276 65.3398 47.7057 65.7883 48.8838 65.7883C50.0619 65.7883 51.241 65.3398 52.1371 64.4426C53.1371 63.4426 53.5591 62.095 53.4438 60.7855C53.6448 60.8121 53.8467 60.8436 54.0495 60.8436C55.2276 60.8436 56.4057 60.395 57.3029 59.4988C58.0172 58.7845 58.4333 57.8893 58.5781 56.9598C59.2676 57.3388 60.0257 57.5493 60.7905 57.5493C61.9695 57.5493 63.1476 57.1007 64.0438 56.2036C65.3876 54.8607 65.7248 52.8864 65.0553 51.2264C68.58 48.1474 70.0733 45.195 71.2638 42.7988C72.2172 40.8817 72.9762 39.3636 74.4895 38.2521C74.6562 38.394 74.8543 38.495 75.0753 38.5102C75.0981 38.5112 75.1219 38.5121 75.1448 38.5121C75.3924 38.5121 75.6324 38.4236 75.8191 38.2597L78.56 35.8702C78.9867 35.4978 79.0324 34.8493 78.6591 34.4226Z" fill="#18273C"/>
<path d="M4.93537 31.7316C5.82496 31.1092 6.04067 29.8822 5.41614 28.9929C4.79294 28.1038 3.56801 27.8878 2.67818 28.5116C1.78859 29.134 1.57289 30.361 2.19663 31.2508C2.82061 32.1393 4.04554 32.3554 4.93537 31.7316Z" fill="#18273C"/>
</svg>
