<svg width="80" height="80" viewBox="0 0 80 80" fill="none" xmlns="http://www.w3.org/2000/svg">
<path d="M23.5625 18.0943C23.3713 23.2435 19.044 27.2624 13.8947 27.0731C8.74551 26.8819 4.7266 22.5547 4.91592 17.4054C5.10616 12.2561 9.43434 8.23723 14.5836 8.42654C19.7329 8.61678 23.7518 12.945 23.5625 18.0943Z" fill="#00ACE4"/>
<path d="M20.5406 61.5032C22.6166 61.0615 24.7629 60.6041 25.811 60.2124C26.0425 60.1347 26.1897 60.0624 26.2768 60.0134C26.8971 59.6254 29.3453 57.2939 31.5055 55.2374C32.7786 54.0254 33.7934 53.0634 34.6008 52.3171C31.399 54.0763 24.9657 58.0513 23.6601 58.4911C23.5082 58.5421 23.2962 58.5847 23.0342 58.6097C20.9425 58.8782 15.7305 58.531 12.574 58.6569L14.7481 62.9087C16.1564 62.4384 18.3805 61.9643 20.5406 61.5032Z" fill="#00ACE4"/>
<path d="M73.7037 52.7061C76.3936 60.3915 72.3445 68.8013 64.659 71.4912C56.9745 74.1809 48.5635 70.1311 45.873 62.4469C43.1848 54.7608 47.234 46.351 54.9194 43.6611C62.604 40.9715 71.0141 45.0215 73.7037 52.7061Z" fill="#00ACE4"/>
<path d="M42.3767 57.5717C42.2536 57.5949 42.1276 57.6097 41.9971 57.6097C40.8702 57.6097 39.9563 56.6967 39.9563 55.5699C39.9563 54.4421 40.8702 53.5291 41.9971 53.5291C42.3276 53.5291 42.6341 53.6143 42.91 53.7532C43.3008 52.1625 43.8915 50.6301 44.6712 49.1967C43.8082 49.355 42.9165 49.4476 41.9971 49.4476C41.6489 49.4476 41.3036 49.4338 40.9628 49.4097C38.9536 51.0458 36.4267 52.0745 34.6684 53.9847C33.3313 55.4384 32.1137 56.9458 30.7091 58.2745C32.8276 58.8939 34.8554 61.4125 34.8554 63.7319H43.1749C42.5554 61.6838 42.3026 59.6069 42.3767 57.5717Z" fill="#00ACE4"/>
<path d="M41.9972 24.9615C40.8703 24.9615 39.9564 24.0476 39.9564 22.9207C39.9564 21.7939 40.8703 20.8809 41.9972 20.8809C43.124 20.8809 44.0379 21.7939 44.0379 22.9207C44.0379 24.0476 43.124 24.9615 41.9972 24.9615ZM49.1389 14.7587H34.8555C34.8555 17.5763 32.5713 19.8605 29.7537 19.8605V36.193C31.0972 31.5041 36.0676 28.0226 41.9972 28.0226C47.9268 28.0226 52.8972 31.5041 54.2407 36.193V19.8605C51.4231 19.8605 49.1389 17.5763 49.1389 14.7587Z" fill="#00ACE4"/>
<path d="M14.0044 25.1198C13.9914 25.1198 13.9794 25.1198 13.9664 25.1189C13.4099 25.0985 12.9757 24.6309 12.997 24.0735L13.0229 23.3494C13.0433 22.7929 13.4923 22.3624 14.0683 22.3791C14.6247 22.3994 15.0599 22.8679 15.0386 23.4244L15.0118 24.1485C14.9914 24.692 14.5442 25.1198 14.0044 25.1198Z" fill="#18273C"/>
<path d="M14.0627 13.3142C14.0497 13.3142 14.0377 13.3142 14.0247 13.3133C13.4673 13.293 13.033 12.8244 13.0543 12.268L13.083 11.4967C13.1034 10.9411 13.571 10.5078 14.1284 10.5263C14.6849 10.5476 15.1192 11.0152 15.0988 11.5717L15.0692 12.343C15.0497 12.8865 14.6025 13.3142 14.0627 13.3142Z" fill="#18273C"/>
<path d="M14.0027 23.9013C11.9193 23.9013 10.5592 22.5068 10.1851 22.0698C9.82212 21.6466 9.87119 21.0105 10.2953 20.6485C10.7184 20.2864 11.3545 20.3346 11.7166 20.7577C11.8842 20.9531 12.7786 21.9216 14.0962 21.8827C14.7721 21.8587 15.874 21.5661 16.1397 20.855C16.3064 20.4105 16.1721 19.7605 15.8203 19.3096C15.4166 18.7911 14.8184 18.6689 13.8777 18.5114C12.8703 18.3429 11.6175 18.1337 10.8193 16.9596C10.1592 15.9883 10.0416 14.6827 10.5212 13.6364C11.2305 12.0827 13.0684 11.529 14.4814 11.6725C16.1601 11.8429 17.1721 12.9744 17.5305 13.4531C17.8638 13.8985 17.7721 14.5309 17.3268 14.8642C16.8795 15.1976 16.248 15.1059 15.9147 14.6596C15.7601 14.4531 15.1851 13.7707 14.2777 13.679C13.5453 13.605 12.6258 13.8809 12.3555 14.4744C12.198 14.8179 12.1934 15.392 12.4879 15.8263C12.786 16.2651 13.3092 16.3707 14.2101 16.5216C15.2323 16.692 16.5036 16.905 17.4119 18.0698C18.2018 19.0837 18.4434 20.454 18.0286 21.5633C17.4119 23.2077 15.5629 23.8494 14.1666 23.8985C14.1119 23.9003 14.0573 23.9013 14.0027 23.9013Z" fill="#18273C"/>
<path d="M1.45348 17.3911C1.44052 17.3911 1.42848 17.3911 1.41552 17.3902C0.859035 17.3698 0.424776 16.9022 0.445146 16.3448C0.715517 9.02816 6.87848 3.3013 14.2063 3.56426C14.7637 3.58556 15.1979 4.05315 15.1766 4.60963C15.1563 5.16612 14.6831 5.59945 14.1322 5.58001C7.90719 5.34204 2.68959 10.2133 2.45996 16.4198C2.44052 16.9633 1.9933 17.3911 1.45348 17.3911Z" fill="#18273C"/>
<path d="M57.3009 36.1541C56.7435 36.1541 56.2926 35.7023 56.2926 35.1458V12.706H27.7018V25.5615C27.7018 26.118 27.2499 26.5699 26.6925 26.5699C26.1361 26.5699 25.6842 26.118 25.6842 25.5615V11.6967C25.6842 11.1402 26.1361 10.6884 26.6925 10.6884H57.3009C57.8583 10.6884 58.3092 11.1402 58.3092 11.6967V35.1458C58.3092 35.7023 57.8583 36.1541 57.3009 36.1541Z" fill="#18273C"/>
<path d="M45.2416 67.8013H26.6935C26.1361 67.8013 25.6842 67.3495 25.6842 66.793V63.9189C25.6842 63.3615 26.1361 62.9106 26.6935 62.9106C27.2499 62.9106 27.7018 63.3615 27.7018 63.9189V65.7847H45.2416C45.799 65.7847 46.25 66.2356 46.25 66.793C46.25 67.3495 45.799 67.8013 45.2416 67.8013Z" fill="#18273C"/>
<path d="M14.5332 64.8088C14.1332 64.8088 13.7545 64.569 13.5962 64.1745C13.3897 63.6569 13.6416 63.0708 14.1582 62.8634C15.5629 62.3023 18.1443 61.7523 20.6416 61.2208C22.7267 60.7764 24.8832 60.3171 25.9295 59.9282C26.1842 59.8421 26.3064 59.7727 26.3388 59.7532C26.9869 59.3514 29.5823 56.8801 31.6675 54.8949C34.9351 51.7847 36.5443 50.2819 37.1943 49.9319C42.9731 46.8227 43.874 44.3689 43.8981 43.1828C43.9268 41.7245 42.7656 40.9662 42.5332 40.8282C40.6212 39.6995 38.6656 41.0217 35.673 43.3365C34.2758 44.418 32.8323 45.5356 31.3323 46.1838C29.9916 46.7625 28.5379 46.7162 27.3416 46.056C26.2277 45.4421 25.4777 44.3865 25.2842 43.1578C25.2193 42.7847 25.2147 42.3995 25.2721 41.9949V30.4893C22.4221 30.9699 20.4267 31.5338 18.9712 31.9865C16.3906 32.7976 14.8777 35.0051 14.0638 36.1912L14.0267 36.2449C13.2462 37.3699 12.4897 39.6282 11.7591 41.8125C10.7934 44.6977 9.79433 47.6801 8.43877 49.1504C8.06192 49.5597 7.42488 49.5875 7.01377 49.2088C6.60451 48.831 6.57858 48.193 6.95544 47.7838C8.0184 46.631 8.9897 43.731 9.84618 41.1717C10.6582 38.7476 11.4249 36.4578 12.3666 35.1004L12.3999 35.0504C13.2832 33.7625 15.1212 31.0828 18.3693 30.0615C20.0869 29.5273 22.5175 28.8467 26.1332 28.3115C26.423 28.2699 26.7175 28.3541 26.9397 28.5458C27.1619 28.7375 27.2888 29.0162 27.2888 29.3097V42.0708C27.2888 42.1254 27.2851 42.1791 27.2758 42.2328C27.2416 42.4467 27.2416 42.6356 27.274 42.8291C27.373 43.4523 27.7508 43.9791 28.3147 44.2902C28.9703 44.6514 29.7573 44.6662 30.5323 44.3328C31.798 43.7847 33.1406 42.7467 34.4388 41.7421C37.1999 39.6051 40.3277 37.1838 43.5582 39.0912C44.7221 39.7782 45.9536 41.2245 45.9147 43.2226C45.8573 46.1115 43.2462 48.9662 38.1508 51.7069C37.6332 52.0004 34.9888 54.518 33.0582 56.3551C30.0518 59.218 28.1712 60.9903 27.3971 61.4699C27.1758 61.6051 26.9017 61.7301 26.5999 61.8301C25.448 62.2588 23.3175 62.7125 21.061 63.193C18.6471 63.7069 16.1517 64.2393 14.9073 64.7365C14.7841 64.7856 14.6582 64.8088 14.5332 64.8088Z" fill="#18273C"/>
<path d="M7.5351 72.1606C7.16843 72.1606 6.81473 71.9606 6.63603 71.6116C6.38325 71.1153 6.57954 70.5079 7.07492 70.2542L14.5573 66.4264L5.33973 48.4078L1.96565 50.1347C1.46843 50.3893 0.861947 50.1921 0.608244 49.6958C0.355466 49.2004 0.551762 48.593 1.04713 48.3393L5.31936 46.1532C5.81566 45.8995 6.42306 46.0958 6.67677 46.5921L16.8129 66.4051C16.9351 66.644 16.9564 66.9208 16.874 67.1745C16.7925 67.4292 16.6129 67.6412 16.374 67.7625L7.99343 72.0495C7.84621 72.1255 7.68973 72.1606 7.5351 72.1606Z" fill="#18273C"/>
<path d="M11.0858 65.2786C11.3271 66.1524 10.813 67.0553 9.93967 67.2946C9.0659 67.536 8.16318 67.0228 7.92275 66.1488C7.68231 65.2747 8.19551 64.372 9.06953 64.1316C9.94265 63.8914 10.8463 64.4044 11.0858 65.2786Z" fill="#18273C"/>
<path d="M78.5026 60.1153C78.4702 60.1153 78.4368 60.1135 78.4026 60.1107C77.848 60.056 77.4433 59.5625 77.4979 59.0079C77.7498 56.4533 77.4442 53.9218 76.5915 51.4847C74.1202 44.4209 67.4322 39.6755 59.9526 39.6755C57.972 39.6755 56.0127 40.0097 54.1285 40.669C53.384 40.9301 52.6526 41.2412 51.9553 41.5958C51.459 41.8486 50.8507 41.6496 50.5989 41.1542C50.347 40.6579 50.5442 40.0505 51.0414 39.7977C51.8183 39.4033 52.6331 39.0551 53.4627 38.7653C55.5609 38.031 57.7442 37.6579 59.9526 37.6579C68.2887 37.6579 75.7405 42.9468 78.4952 50.8181C79.4461 53.5347 79.7859 56.357 79.5054 59.206C79.4544 59.7264 79.0155 60.1153 78.5026 60.1153Z" fill="#18273C"/>
<path d="M56.1007 65.7837C55.9165 65.7837 55.7313 65.7328 55.5646 65.6263C55.1016 65.33 54.9674 64.7152 55.2637 64.2522L64.0776 50.4846C64.3748 50.0217 64.9896 49.8874 65.4526 50.1837C65.9155 50.4791 66.0507 51.0948 65.7544 51.5578L56.9396 65.3254C56.7498 65.6217 56.4285 65.7837 56.1007 65.7837Z" fill="#18273C"/>
<path d="M56.5055 52.6041C55.85 52.6041 55.3176 53.1365 55.3176 53.792C55.3176 54.4467 55.85 54.9791 56.5055 54.9791C57.1602 54.9791 57.6935 54.4467 57.6935 53.792C57.6935 53.1365 57.1602 52.6041 56.5055 52.6041ZM56.5055 56.9698C54.7528 56.9698 53.3278 55.5439 53.3278 53.792C53.3278 52.0393 54.7528 50.6143 56.5055 50.6143C58.2574 50.6143 59.6833 52.0393 59.6833 53.792C59.6833 55.5439 58.2574 56.9698 56.5055 56.9698Z" fill="#18273C"/>
<path d="M64.4961 60.6633C63.8406 60.6633 63.3082 61.1957 63.3082 61.8504C63.3082 62.5059 63.8406 63.0383 64.4961 63.0383C65.1517 63.0383 65.6841 62.5059 65.6841 61.8504C65.6841 61.1957 65.1517 60.6633 64.4961 60.6633ZM64.4961 65.0281C62.7434 65.0281 61.3184 63.6031 61.3184 61.8504C61.3184 60.0985 62.7434 58.6735 64.4961 58.6735C66.248 58.6735 67.6739 60.0985 67.6739 61.8504C67.6739 63.6031 66.248 65.0281 64.4961 65.0281Z" fill="#18273C"/>
<path d="M61.9674 34.7161C61.41 34.7161 60.9591 34.2643 60.9591 33.7078V7.82537H26.6924C26.1359 7.82537 25.6841 7.37352 25.6841 6.81703C25.6841 6.25963 26.1359 5.8087 26.6924 5.8087H61.9674C62.5249 5.8087 62.9758 6.25963 62.9758 6.81703V33.7078C62.9758 34.2643 62.5249 34.7161 61.9674 34.7161Z" fill="#18273C"/>
<path d="M18.7462 5.05872C18.7462 5.60779 18.2999 6.05316 17.7508 6.05316C17.2008 6.05316 16.7555 5.60779 16.7555 5.05872C16.7555 4.50872 17.2008 4.06335 17.7508 4.06335C18.2999 4.06335 18.7462 4.50872 18.7462 5.05872Z" fill="#18273C"/>
</svg>
