<svg width="24" height="24" viewBox="0 0 24 24" fill="none" xmlns="http://www.w3.org/2000/svg">
<path d="M8.25 22.5H15.75C16.1642 22.5 16.5 22.1642 16.5 21.75C16.5 21.3358 16.1642 21 15.75 21H8.25C7.83579 21 7.5 21.3358 7.5 21.75C7.5 22.1642 7.83579 22.5 8.25 22.5Z" fill="#828282"/>
<path fill-rule="evenodd" clip-rule="evenodd" d="M7.3435 16.7772C7.3435 16.7772 7.18984 16.4633 6.91564 16.2467C6.91564 16.2467 5.42372 15.0859 4.59025 13.3891C4.59025 13.3891 3.75619 11.6911 3.75 9.80031C3.75 9.80031 3.7424 8.15061 4.37068 6.62823C4.37068 6.62823 4.97715 5.15867 6.08954 4.01085C6.08954 4.01085 7.20287 2.86205 8.65178 2.21224C8.65178 2.21224 10.1547 1.5382 11.8041 1.50019C11.8041 1.50019 14.4684 1.43703 16.6662 2.94453C16.6662 2.94453 18.864 4.45202 19.7644 6.96037C19.7644 6.96037 20.6649 9.46872 19.9277 12.0298C19.9277 12.0298 19.1906 14.5909 17.0899 16.2403C17.0899 16.2403 16.8115 16.4555 16.6561 16.7712C16.6561 16.7712 16.5007 17.087 16.5 17.4375V18C16.5 18 16.5 18.6213 16.0607 19.0606C16.0607 19.0606 15.6213 19.5 15 19.5H9C9 19.5 8.37867 19.5 7.93934 19.0606C7.93934 19.0606 7.5 18.6213 7.5 18L7.50001 17.4426C7.50001 17.4426 7.49762 17.0921 7.3435 16.7772ZM7.84236 15.0672C7.84236 15.0672 8.38642 15.496 8.69076 16.1177C8.69076 16.1177 8.99524 16.7398 8.99998 17.4324L9 18H15V17.4375C15 17.4375 15.0014 16.7365 15.3102 16.1089C15.3102 16.1089 15.6191 15.4813 16.1726 15.0535C16.1726 15.0535 17.8831 13.7104 18.4863 11.6149C18.4863 11.6149 19.0894 9.51948 18.3526 7.46719C18.3526 7.46719 17.6159 5.41491 15.8177 4.1815C15.8177 4.1815 14.0196 2.9481 11.8396 2.99977C11.8396 2.99977 10.4921 3.03082 9.2656 3.5809C9.2656 3.5809 8.07955 4.11282 7.1667 5.05475C7.1667 5.05475 6.25417 5.99635 5.75724 7.20045C5.75724 7.20045 5.24377 8.44464 5.24999 9.7934C5.24999 9.7934 5.25505 11.3403 5.93659 12.7278C5.93659 12.7278 6.61814 14.1153 7.83849 15.0642L7.84236 15.0672Z" fill="#828282"/>
<path d="M14.6504 7.10414C15.4933 7.9448 15.6952 9.11794 15.6952 9.11794C15.7572 9.47776 16.0692 9.7407 16.4343 9.7407L16.4426 9.74065C16.4825 9.74021 16.5223 9.73659 16.5616 9.72983C16.9214 9.66788 17.1843 9.35582 17.1843 8.9907L17.1843 8.98244C17.1839 8.94255 17.1802 8.90277 17.1735 8.86346C16.8904 7.22023 15.7098 6.04212 15.7098 6.04212C14.529 4.86436 12.8847 4.58562 12.8847 4.58562C12.8433 4.5786 12.8013 4.57507 12.7593 4.57507L12.748 4.57516C12.3865 4.5806 12.0803 4.84323 12.0199 5.19972C12.0129 5.24114 12.0093 5.28307 12.0093 5.32507L12.0096 5.34496C12.0135 5.49373 12.0617 5.63797 12.1478 5.75931C12.263 5.92149 12.4379 6.03128 12.634 6.06452C13.8076 6.26348 14.6504 7.10414 14.6504 7.10414Z" fill="#828282"/>
</svg>
