<svg width="283" height="70" viewBox="0 0 283 70" fill="none" xmlns="http://www.w3.org/2000/svg">
<path d="M107.564 20.3312C106.916 20.7956 106.377 21.3229 105.953 21.9131L92.8979 40.3213H100.354L109.908 26.8132L115.627 35.152L119.175 40.3213H126.769L114.046 21.9131C113.599 21.2656 113.06 20.7209 112.418 20.2855C111.782 19.8499 110.985 19.6322 110.028 19.6322C109.037 19.6322 108.211 19.8614 107.564 20.3312Z" fill="url(#paint0_linear_113_4483)"/>
<path d="M129.021 19.9647V40.3213H147.005L151.08 35.0889H135.319V19.9647H129.021Z" fill="url(#paint1_linear_113_4483)"/>
<path d="M151.51 19.9647L147.429 25.26H156.983V40.3213H163.287V25.26H170.56L174.635 19.9647H151.51Z" fill="url(#paint2_linear_113_4483)"/>
<path d="M176.646 40.3213H182.945V19.9645H176.646V40.3213Z" fill="url(#paint3_linear_113_4483)"/>
<path d="M198.493 19.9647C196.728 19.9647 195.095 20.2053 193.593 20.681C192.092 21.1565 190.796 21.8386 189.713 22.7213C188.63 23.6037 187.776 24.6582 187.157 25.8847C186.538 27.1111 186.229 28.4637 186.229 29.9479C186.229 31.4267 186.538 32.802 187.157 34.0686C187.776 35.3351 188.63 36.4358 189.713 37.3582C190.796 38.281 192.092 39.0033 193.593 39.5303C195.095 40.0577 196.728 40.3213 198.493 40.3213H208.717L212.763 35.0889H198.493C197.639 35.0889 196.848 34.9743 196.121 34.7391C195.387 34.5042 194.757 34.1775 194.218 33.7476C193.679 33.3238 193.266 32.8135 192.968 32.2118C192.676 31.6157 192.527 30.9511 192.527 30.2231C192.527 29.4896 192.682 28.819 192.986 28.2116C193.289 27.604 193.702 27.0825 194.235 26.6469C194.762 26.2114 195.387 25.8675 196.121 25.6267C196.848 25.3804 197.639 25.26 198.493 25.26H208.717L212.763 19.9647H198.493Z" fill="url(#paint4_linear_113_4483)"/>
<path d="M218.03 22.1539C215.555 23.8387 214.317 26.498 214.317 30.1315C214.317 33.7822 215.549 36.4473 218.013 38.1321C220.478 39.817 224.209 40.6594 229.2 40.6594C234.169 40.6594 237.889 39.817 240.364 38.1321C242.84 36.4473 244.078 33.7822 244.078 30.1315C244.078 26.498 242.835 23.8387 240.353 22.1539C237.866 20.4747 234.146 19.6322 229.2 19.6322C224.226 19.6322 220.506 20.4747 218.03 22.1539ZM225.183 35.1635C224.082 35.0316 223.2 34.7735 222.518 34.3896C221.836 34.0058 221.349 33.4728 221.039 32.7906C220.736 32.1146 220.586 31.226 220.586 30.1315C220.586 29.0311 220.736 28.1484 221.039 27.4665C221.349 26.7845 221.836 26.2573 222.518 25.8848C223.2 25.5065 224.082 25.2544 225.183 25.1226C226.278 24.9907 227.613 24.9278 229.2 24.9278C230.782 24.9278 232.117 24.9907 233.212 25.1226C234.312 25.2544 235.195 25.5065 235.877 25.8848C236.559 26.2573 237.046 26.7845 237.356 27.4665C237.659 28.1484 237.808 29.0311 237.808 30.1315C237.808 31.226 237.659 32.1146 237.356 32.7906C237.046 33.4728 236.559 34.0058 235.877 34.3896C235.195 34.7735 234.312 35.0316 233.212 35.1635C232.117 35.2953 230.782 35.3639 229.2 35.3639C227.613 35.3639 226.278 35.2953 225.183 35.1635Z" fill="url(#paint5_linear_113_4483)"/>
<path d="M271.633 20.2224C271.077 20.6178 270.613 21.1394 270.252 21.7927L266.991 27.5753C266.544 28.3662 266.154 29.054 265.822 29.6442C265.489 30.2289 265.191 30.7618 264.939 31.2376C264.687 31.719 264.464 32.1431 264.269 32.5156C264.074 32.8939 263.902 33.2665 263.736 33.6274C263.552 33.2665 263.369 32.8881 263.174 32.504C262.979 32.1202 262.756 31.6904 262.504 31.226C262.252 30.7562 261.959 30.2231 261.621 29.6271C261.289 29.0311 260.899 28.3319 260.452 27.5409L257.197 21.7927C256.83 21.1223 256.366 20.5949 255.81 20.211C255.254 19.8212 254.566 19.6322 253.758 19.6322C252.967 19.6322 252.245 19.8614 251.597 20.3141C250.944 20.7726 250.48 21.4775 250.193 22.4289L244.932 40.3213H251.11L253.024 33.232C253.328 32.0742 253.592 31.0599 253.815 30.1773C254.039 29.2947 254.234 28.4464 254.394 27.6326C254.555 27.9766 254.726 28.3319 254.898 28.6987C255.071 29.0655 255.271 29.4667 255.506 29.9023C255.741 30.3377 255.999 30.8307 256.28 31.3751C256.566 31.9253 256.893 32.5443 257.254 33.232L259.993 38.3784C260.257 38.8829 260.526 39.2841 260.801 39.5762C261.077 39.8743 261.352 40.0978 261.638 40.264C261.919 40.4244 262.228 40.5334 262.549 40.585C262.876 40.6309 263.231 40.6594 263.615 40.6594C263.999 40.6594 264.355 40.6309 264.681 40.585C265.002 40.5334 265.312 40.4244 265.593 40.264C265.879 40.0978 266.154 39.8743 266.429 39.5762C266.704 39.2841 266.974 38.8829 267.238 38.3784L269.977 33.2665C270.665 31.9425 271.22 30.8537 271.65 29.994C272.075 29.1286 272.458 28.3433 272.808 27.6326C272.969 28.4637 273.158 29.3176 273.381 30.1888C273.605 31.0599 273.88 32.0742 274.207 33.232L276.121 40.3213H282.39L277.25 22.4289C276.963 21.4775 276.505 20.7726 275.863 20.3141C275.227 19.8614 274.51 19.6322 273.719 19.6322C272.888 19.6322 272.189 19.827 271.633 20.2224Z" fill="url(#paint6_linear_113_4483)"/>
<path d="M92.8979 45.9378V50.2991H97.0988L97.9642 49.1758H94.2562V48.5856H96.9326L97.7119 47.5941H94.2562V47.0723H97.0757L97.9527 45.9378H92.8979Z" fill="#00A2E0"/>
<path d="M112.773 45.9378V50.2991H116.625L117.502 49.1758H114.12V45.9378H112.773Z" fill="#00A2E0"/>
<path d="M132.293 45.9378V50.2991H136.494L137.36 49.1758H133.652V48.5856H136.328L137.107 47.5941H133.652V47.0723H136.471L137.348 45.9378H132.293Z" fill="#00A2E0"/>
<path d="M157.493 45.9378L155.447 48.8319L153.487 45.9378H151.831L154.559 49.8807C154.656 50.0182 154.771 50.1386 154.908 50.2303C155.046 50.322 155.218 50.3678 155.418 50.3678C155.63 50.3678 155.802 50.322 155.94 50.2188C156.083 50.1214 156.198 50.0068 156.295 49.8807L159.086 45.9378H157.493Z" fill="#00A2E0"/>
<path d="M175.036 46.0122C174.893 46.1153 174.778 46.2243 174.686 46.3505L171.889 50.2991H173.488L175.534 47.4048L177.523 50.2991H179.151L176.423 46.3505C176.325 46.2128 176.211 46.0982 176.073 46.0065C175.936 45.9091 175.764 45.8632 175.563 45.8632C175.351 45.8632 175.173 45.9147 175.036 46.0122Z" fill="#00A2E0"/>
<path d="M194.837 45.9378L193.977 47.0723H196.9C197.078 47.0723 197.25 47.0954 197.404 47.1527C197.565 47.2043 197.697 47.2787 197.817 47.3762C197.932 47.468 198.023 47.5768 198.092 47.7087C198.155 47.8405 198.189 47.9837 198.189 48.1326C198.189 48.2876 198.155 48.4307 198.092 48.5626C198.023 48.6888 197.937 48.7977 197.823 48.8894C197.708 48.9809 197.576 49.0498 197.416 49.1013C197.255 49.1529 197.083 49.1758 196.9 49.1758H195.33V47.5768H193.977V50.2991H196.9C197.273 50.2991 197.622 50.2418 197.949 50.1272C198.27 50.0126 198.545 49.8578 198.78 49.6629C199.009 49.4624 199.192 49.2275 199.324 48.958C199.456 48.6888 199.525 48.3907 199.525 48.0753C199.525 47.7603 199.462 47.4737 199.33 47.2102C199.198 46.9463 199.015 46.7229 198.785 46.5338C198.551 46.3447 198.275 46.1957 197.954 46.0924C197.633 45.9893 197.278 45.9378 196.9 45.9378H194.837Z" fill="#00A2E0"/>
<path d="M215.211 46.4077C214.683 46.7688 214.42 47.3362 214.42 48.1155C214.42 48.895 214.683 49.4681 215.211 49.8291C215.738 50.1903 216.535 50.3678 217.606 50.3678C218.672 50.3678 219.469 50.1903 219.996 49.8291C220.529 49.4681 220.793 48.895 220.793 48.1155C220.793 47.3362 220.529 46.7688 219.996 46.4077C219.463 46.0467 218.667 45.8632 217.606 45.8632C216.54 45.8632 215.744 46.0467 215.211 46.4077ZM216.747 49.1929C216.512 49.1644 216.323 49.1071 216.174 49.0269C216.03 48.9465 215.921 48.8319 215.859 48.6829C215.795 48.5396 215.761 48.3503 215.761 48.1155C215.761 47.8805 215.795 47.6914 215.859 47.5424C215.921 47.3991 216.03 47.2845 216.174 47.2043C216.323 47.1241 216.512 47.0668 216.747 47.0439C216.982 47.0152 217.268 46.9981 217.606 46.9981C217.944 46.9981 218.231 47.0152 218.466 47.0439C218.701 47.0668 218.89 47.1241 219.039 47.2043C219.182 47.2845 219.286 47.3991 219.354 47.5424C219.417 47.6914 219.452 47.8805 219.452 48.1155C219.452 48.3503 219.417 48.5396 219.354 48.6829C219.286 48.8319 219.182 48.9465 219.039 49.0269C218.89 49.1071 218.701 49.1644 218.466 49.1929C218.231 49.2216 217.944 49.2331 217.606 49.2331C217.268 49.2331 216.982 49.2216 216.747 49.1929Z" fill="#00A2E0"/>
<path d="M236.691 45.9378L235.808 47.0723H239.602C239.837 47.0723 240.021 47.1127 240.152 47.1987C240.284 47.2846 240.347 47.4106 240.347 47.5768C240.347 47.7318 240.278 47.852 240.135 47.938C239.992 48.0239 239.814 48.0699 239.602 48.0699H235.808V50.2991H237.161V49.1415H239.235L240.204 50.2991H242.009L241.207 49.451C241.058 49.2961 240.938 49.1815 240.846 49.0896C240.754 49.004 240.668 48.935 240.594 48.8778C240.771 48.8434 240.932 48.7803 241.075 48.6944C241.218 48.6142 241.339 48.5111 241.436 48.3849C241.534 48.2646 241.608 48.127 241.66 47.978C241.711 47.8233 241.734 47.6628 241.734 47.4966C241.734 47.1814 241.665 46.9235 241.528 46.7229C241.385 46.5223 241.207 46.3676 240.989 46.2473C240.771 46.1326 240.531 46.0525 240.261 46.0065C239.998 45.9607 239.74 45.9378 239.493 45.9378H236.691Z" fill="#00A2E0"/>
<path d="M256.835 45.9378V50.2991H261.036L261.907 49.1758H258.194V48.5856H260.876L261.65 47.5941H258.194V47.0723H261.019L261.89 45.9378H256.835Z" fill="#00A2E0"/>
<path d="M278.488 45.9378C278.155 45.9378 277.874 45.9664 277.634 46.0351C277.399 46.0982 277.204 46.19 277.055 46.3103C276.906 46.4249 276.791 46.5683 276.722 46.7344C276.648 46.9006 276.614 47.0898 276.614 47.2902C276.614 47.4795 276.648 47.6515 276.711 47.806C276.78 47.9608 276.877 48.0926 277.015 48.1959C277.147 48.3047 277.318 48.3907 277.519 48.4536C277.725 48.5111 277.966 48.5453 278.253 48.5453H280.625C280.786 48.5453 280.9 48.5684 280.975 48.6142C281.049 48.6657 281.09 48.7461 281.09 48.8548C281.09 48.9694 281.049 49.0498 280.975 49.1013C280.9 49.1529 280.786 49.1758 280.625 49.1758H277.324L276.459 50.2991H280.522C280.849 50.2991 281.135 50.2647 281.37 50.2018C281.605 50.1328 281.8 50.0412 281.955 49.9209C282.104 49.8006 282.219 49.6459 282.287 49.4681C282.356 49.2904 282.39 49.0896 282.39 48.8721C282.39 48.4709 282.253 48.173 281.972 47.9722C281.697 47.7774 281.29 47.6743 280.757 47.6743H278.379C278.224 47.6743 278.109 47.6515 278.035 47.6056C277.955 47.5654 277.92 47.4852 277.92 47.3704C277.92 47.2558 277.955 47.1814 278.035 47.1356C278.109 47.0898 278.224 47.0723 278.379 47.0723H281.405L282.276 45.9378H278.488Z" fill="#00A2E0"/>
<path d="M7.92773 33.5142L16.9196 20.833C17.5665 19.8482 18.3316 18.7907 19.2336 17.7013C20.3211 16.3876 21.4044 15.2734 22.4103 14.3397C22.4103 14.3397 23.5495 13.2143 24.762 12.2463C29.7391 8.27303 36.0433 5.89453 42.8926 5.89453C54.1417 5.89453 63.9182 12.3036 68.7583 21.6619L70.6306 19.0161C71.2559 18.1317 71.8813 17.2473 72.5068 16.363C66.305 6.53831 55.348 -4.57764e-05 42.8926 -4.57764e-05C24.0909 -4.57764e-05 8.7048 14.9014 7.92773 33.5142Z" fill="url(#paint7_linear_113_4483)"/>
<path d="M22.1161 20.4132C21.1394 21.1135 20.3271 21.9083 19.6875 22.7985L0 50.5582H11.2439L25.6507 30.188L34.276 42.7628L39.6257 50.5582H51.077L31.8907 22.7985C31.2166 21.8221 30.4042 21.0008 29.4362 20.3442C28.4771 19.6873 27.2757 19.3589 25.8323 19.3589C24.3372 19.3589 23.0928 19.7046 22.1161 20.4132Z" fill="#00A2E0"/>
<path d="M74.5471 19.3589L60.1401 39.7293L51.5148 27.1545L46.1652 19.3589H34.714L53.9003 47.1188C54.5744 48.0952 55.3868 48.9163 56.3546 49.573C57.314 50.23 58.5154 50.5582 59.9587 50.5582C61.4539 50.5582 62.6983 50.2127 63.6749 49.5039C64.6514 48.8038 65.464 48.0088 66.1034 47.1188L85.7909 19.3589H74.5471Z" fill="#00A2E0"/>
<path d="M74.2705 41.4721L71.9436 44.7524L68.8731 49.0817C67.1598 51.5433 65.5085 53.4298 64.2086 54.782C62.3046 56.7632 60.9283 57.8337 60.5447 58.128C59.8612 58.652 58.7643 59.4433 57.3365 60.2628C53.0779 62.707 48.1453 64.1054 42.8927 64.1054C31.6288 64.1054 21.8411 57.6739 17.0084 48.2898L13.2562 53.5962C19.4544 63.4429 30.4223 70 42.8927 70C61.7239 70 77.1247 55.0578 77.865 36.4041L74.2705 41.4721Z" fill="url(#paint8_linear_113_4483)"/>
<defs>
<linearGradient id="paint0_linear_113_4483" x1="93.3284" y1="29.9767" x2="282.21" y2="29.9767" gradientUnits="userSpaceOnUse">
<stop stop-color="#4A4C4F"/>
<stop offset="0.499496" stop-color="#606367"/>
<stop offset="0.5" stop-color="#606367"/>
<stop offset="0.946828" stop-color="#4A4C4F"/>
<stop offset="1" stop-color="#4A4C4F"/>
</linearGradient>
<linearGradient id="paint1_linear_113_4483" x1="93.3284" y1="30.143" x2="282.21" y2="30.143" gradientUnits="userSpaceOnUse">
<stop stop-color="#4A4C4F"/>
<stop offset="0.499496" stop-color="#606367"/>
<stop offset="0.5" stop-color="#606367"/>
<stop offset="0.946828" stop-color="#4A4C4F"/>
<stop offset="1" stop-color="#4A4C4F"/>
</linearGradient>
<linearGradient id="paint2_linear_113_4483" x1="93.3284" y1="30.143" x2="282.21" y2="30.143" gradientUnits="userSpaceOnUse">
<stop stop-color="#4A4C4F"/>
<stop offset="0.499496" stop-color="#606367"/>
<stop offset="0.5" stop-color="#606367"/>
<stop offset="0.946828" stop-color="#4A4C4F"/>
<stop offset="1" stop-color="#4A4C4F"/>
</linearGradient>
<linearGradient id="paint3_linear_113_4483" x1="93.3285" y1="30.1429" x2="282.21" y2="30.1429" gradientUnits="userSpaceOnUse">
<stop stop-color="#4A4C4F"/>
<stop offset="0.499496" stop-color="#606367"/>
<stop offset="0.5" stop-color="#606367"/>
<stop offset="0.946828" stop-color="#4A4C4F"/>
<stop offset="1" stop-color="#4A4C4F"/>
</linearGradient>
<linearGradient id="paint4_linear_113_4483" x1="93.3284" y1="30.143" x2="282.21" y2="30.143" gradientUnits="userSpaceOnUse">
<stop stop-color="#4A4C4F"/>
<stop offset="0.499496" stop-color="#606367"/>
<stop offset="0.5" stop-color="#606367"/>
<stop offset="0.946828" stop-color="#4A4C4F"/>
<stop offset="1" stop-color="#4A4C4F"/>
</linearGradient>
<linearGradient id="paint5_linear_113_4483" x1="93.3285" y1="30.1458" x2="282.21" y2="30.1458" gradientUnits="userSpaceOnUse">
<stop stop-color="#4A4C4F"/>
<stop offset="0.499496" stop-color="#606367"/>
<stop offset="0.5" stop-color="#606367"/>
<stop offset="0.946828" stop-color="#4A4C4F"/>
<stop offset="1" stop-color="#4A4C4F"/>
</linearGradient>
<linearGradient id="paint6_linear_113_4483" x1="93.3284" y1="30.1458" x2="282.21" y2="30.1458" gradientUnits="userSpaceOnUse">
<stop stop-color="#4A4C4F"/>
<stop offset="0.499496" stop-color="#606367"/>
<stop offset="0.5" stop-color="#606367"/>
<stop offset="0.946828" stop-color="#4A4C4F"/>
<stop offset="1" stop-color="#4A4C4F"/>
</linearGradient>
<linearGradient id="paint7_linear_113_4483" x1="7.9277" y1="16.757" x2="72.5067" y2="16.757" gradientUnits="userSpaceOnUse">
<stop stop-color="#4A4C4F"/>
<stop offset="0.499496" stop-color="#606367"/>
<stop offset="0.5" stop-color="#606367"/>
<stop offset="0.946828" stop-color="#4A4C4F"/>
<stop offset="1" stop-color="#4A4C4F"/>
</linearGradient>
<linearGradient id="paint8_linear_113_4483" x1="13.2562" y1="53.2021" x2="77.8649" y2="53.2021" gradientUnits="userSpaceOnUse">
<stop stop-color="#4A4C4F"/>
<stop offset="0.499496" stop-color="#606367"/>
<stop offset="0.5" stop-color="#606367"/>
<stop offset="0.946828" stop-color="#4A4C4F"/>
<stop offset="1" stop-color="#4A4C4F"/>
</linearGradient>
</defs>
</svg>
