<svg width="24" height="24" viewBox="0 0 24 24" fill="none" xmlns="http://www.w3.org/2000/svg">
<path fill-rule="evenodd" clip-rule="evenodd" d="M12.2895 15.1819L7.41152 20.8338C7.39954 20.8476 7.38705 20.8611 7.37408 20.8741C7.37408 20.8741 6.49426 21.7539 5.25 21.7539C5.25 21.7539 4.00574 21.7539 3.12592 20.8741C3.12592 20.8741 2.24609 19.9942 2.24609 18.75C2.24609 18.75 2.24609 17.5057 3.12592 16.6259C3.13889 16.6129 3.15233 16.6004 3.16621 16.5885L8.8181 11.7104C8.8181 11.7104 8.0789 10.0618 8.28779 8.22378C8.28779 8.22378 8.53193 6.07558 9.98002 4.47016C9.98002 4.47016 11.4281 2.86474 13.5399 2.40112C13.5399 2.40112 15.6516 1.9375 17.639 2.78867C18.0198 2.95174 18.1962 3.3926 18.0332 3.77337C17.9955 3.86141 17.9412 3.94142 17.8734 4.00906L14.221 7.65283L14.5774 9.42255L16.3471 9.77899L19.9909 6.12653C20.1314 5.98571 20.3221 5.90646 20.521 5.90622C20.7199 5.90599 20.9107 5.98478 21.0516 6.12526C21.1194 6.19291 21.1736 6.27291 21.2113 6.36096C21.2113 6.36096 22.0625 8.34838 21.5989 10.4601C21.5989 10.4601 21.1352 12.5718 19.5298 14.0199C19.5298 14.0199 17.9244 15.468 15.7762 15.7122C15.7762 15.7122 13.9381 15.9211 12.2895 15.1819ZM15.6068 14.2218C15.6068 14.2218 13.9372 14.4115 12.4687 13.5951L12.4677 13.5945C12.2938 13.4978 12.0887 13.4742 11.8974 13.5287C11.7568 13.5688 11.6309 13.6492 11.5353 13.7599L6.29555 19.831C6.29555 19.831 5.86036 20.2539 5.25 20.2539C5.25 20.2539 4.62706 20.2539 4.18658 19.8134C4.18658 19.8134 3.74609 19.3729 3.74609 18.75C3.74609 18.75 3.74609 18.1396 4.16897 17.7044L10.24 12.4646C10.5092 12.2323 10.5782 11.843 10.4054 11.5323C10.4054 11.5323 9.58838 10.0633 9.77819 8.39316C9.77819 8.39316 9.968 6.723 11.0939 5.47484C11.0939 5.47484 12.2197 4.22667 13.8615 3.86623C13.8615 3.86623 14.9176 3.63437 15.9336 3.82545L12.8765 6.87526C12.6985 7.05285 12.6214 7.30782 12.671 7.55431L13.2054 10.2074C13.265 10.5035 13.4964 10.7349 13.7925 10.7946L16.4457 11.329C16.6922 11.3786 16.9471 11.3014 17.1247 11.1234L20.1745 8.06633C20.1745 8.06633 20.3656 9.0824 20.1337 10.1385C20.1337 10.1385 19.7733 11.7803 18.5251 12.9061C18.5251 12.9061 17.277 14.032 15.6068 14.2218Z" fill="#18273C"/>
</svg>
